fontCallback.success({"glyphs":{"S":{"x_min":20,"x_max":827,"ha":814,"o":"m 363 -14 q 212 1 277 -14 q 105 44 148 17 q 41 108 62 71 q 20 188 20 145 q 33 245 20 221 q 70 286 46 270 q 127 310 94 302 q 200 319 160 319 q 213 208 200 255 q 251 130 227 161 q 310 85 276 99 q 384 70 344 70 q 454 81 424 70 q 506 111 485 92 q 539 157 527 131 q 550 213 550 183 q 543 266 550 242 q 517 314 536 291 q 464 361 498 337 q 379 413 431 385 q 283 474 324 443 q 215 543 242 506 q 173 623 187 579 q 160 722 160 667 q 185 837 160 784 q 257 926 210 889 q 370 985 303 964 q 519 1006 436 1006 q 654 993 596 1006 q 750 960 712 981 q 808 911 789 939 q 827 850 827 882 q 784 761 827 793 q 644 729 741 729 q 638 794 644 760 q 616 856 632 828 q 574 902 601 884 q 507 921 548 921 q 452 912 479 921 q 402 885 424 903 q 367 841 381 868 q 353 778 353 814 q 365 715 353 741 q 400 667 377 689 q 457 624 423 645 q 539 579 492 604 q 694 453 644 522 q 745 295 745 384 q 718 163 745 221 q 641 66 691 106 q 521 6 591 27 q 363 -14 450 -14 "},"¦":{"x_min":358,"x_max":458.375,"ha":777,"o":"m 458 500 l 358 500 l 358 1055 l 458 1055 l 458 500 m 458 -334 l 358 -334 l 358 222 l 458 222 l 458 -334 "},"/":{"x_min":-143,"x_max":557,"ha":400,"o":"m -34 -168 l -143 -168 l 449 1055 l 557 1055 l -34 -168 "},"y":{"x_min":-233,"x_max":770,"ha":814,"o":"m 109 597 q 75 655 97 639 q 12 671 53 671 l 0 671 l 16 745 l 288 745 l 379 384 q 393 321 386 357 q 407 248 401 284 q 419 180 414 212 q 425 132 424 149 l 429 132 q 507 244 471 187 q 571 353 544 300 q 615 454 599 406 q 630 543 630 503 q 608 614 630 589 q 544 638 585 638 q 553 687 544 665 q 576 725 561 709 q 611 749 591 741 q 656 758 632 758 q 741 726 712 758 q 770 639 770 695 q 751 525 770 585 q 699 397 733 464 q 617 253 665 329 q 507 92 568 177 q 413 -36 457 22 q 326 -143 369 -95 q 240 -226 284 -190 q 147 -286 197 -262 q 40 -322 98 -310 q -88 -334 -17 -334 q -166 -327 -128 -334 q -233 -308 -203 -320 l -211 -230 q -166 -242 -195 -236 q -93 -249 -136 -249 q 22 -232 -30 -249 q 120 -186 75 -215 q 205 -118 165 -157 q 282 -36 245 -80 l 109 597 "},"Á":{"x_min":-68.03125,"x_max":987.875,"ha":1046,"o":"m 296 326 l 229 201 q 209 157 215 176 q 202 123 202 138 q 221 85 202 97 q 280 73 240 73 l 308 73 l 292 0 l -68 0 l -53 73 l -23 73 q 9 78 -4 73 q 37 94 24 82 q 65 128 51 107 q 99 181 80 149 l 571 992 l 761 992 l 878 173 q 887 133 881 151 q 902 102 892 115 q 926 81 911 88 q 962 73 941 73 l 987 73 l 972 0 l 514 0 l 529 73 l 561 73 q 632 87 606 73 q 658 132 658 101 q 658 155 658 143 q 656 176 657 166 l 635 326 l 296 326 m 600 644 q 594 701 597 675 q 588 753 591 728 q 584 802 586 778 q 582 851 582 826 q 561 805 572 826 q 540 761 551 783 q 514 714 528 739 q 482 657 500 690 l 344 411 l 626 411 l 600 644 m 586 1089 q 627 1134 605 1108 q 671 1187 649 1160 q 714 1242 693 1215 q 751 1293 735 1269 l 969 1293 l 964 1278 q 935 1250 954 1266 q 892 1214 916 1233 q 840 1175 868 1195 q 784 1136 813 1155 q 728 1100 756 1117 q 676 1071 700 1083 l 582 1071 l 586 1089 "},"g":{"x_min":-81,"x_max":871,"ha":806,"o":"m 123 456 q 144 558 123 504 q 208 655 165 611 q 317 729 251 700 q 470 758 382 758 q 557 747 516 758 q 627 713 597 736 q 661 750 643 733 q 698 780 678 768 q 740 800 718 793 q 788 808 763 808 q 851 787 831 808 q 871 734 871 766 q 866 699 871 717 q 852 667 862 681 q 824 644 841 653 q 782 635 807 635 q 769 679 782 664 q 733 695 757 695 q 698 688 714 695 q 669 670 682 681 q 694 620 684 650 q 704 559 704 591 q 695 495 704 528 q 668 428 686 461 q 623 365 651 395 q 559 312 596 335 q 474 275 522 289 q 369 262 427 262 q 353 262 363 262 q 333 263 343 262 q 313 264 323 263 q 298 266 304 264 q 243 233 265 251 q 221 192 221 214 q 227 173 221 181 q 243 162 233 166 q 266 154 253 157 q 296 150 280 152 l 452 136 q 611 80 554 126 q 668 -53 668 34 q 639 -168 668 -116 q 555 -256 610 -220 q 419 -313 499 -293 q 235 -334 338 -334 q 90 -321 151 -334 q -7 -285 30 -308 q -63 -229 -45 -262 q -81 -156 -81 -197 q -62 -90 -81 -120 q -12 -38 -43 -60 q 58 -1 18 -16 q 141 20 98 13 q 114 39 127 27 q 92 66 101 51 q 76 98 82 81 q 70 134 70 116 q 78 175 70 156 q 105 212 87 194 q 152 249 124 230 q 220 289 181 268 q 148 354 174 311 q 123 456 123 397 m 488 -118 q 458 -57 488 -79 q 356 -30 428 -36 l 233 -20 q 175 -35 202 -24 q 128 -64 148 -47 q 96 -102 108 -81 q 84 -147 84 -123 q 92 -187 84 -169 q 119 -220 100 -206 q 172 -242 138 -234 q 256 -250 205 -250 q 361 -239 317 -250 q 433 -210 405 -228 q 475 -168 461 -192 q 488 -118 488 -144 m 373 346 q 418 358 397 346 q 454 388 438 369 q 483 431 471 407 q 503 481 495 456 q 515 532 511 507 q 519 577 519 557 q 500 649 519 626 q 444 671 480 671 q 380 648 408 671 q 335 589 353 624 q 307 514 317 553 q 297 442 297 474 q 317 369 297 391 q 373 346 337 346 "},"²":{"x_min":40,"x_max":560,"ha":555,"o":"m 40 397 l 59 496 l 264 646 q 335 705 306 677 q 380 760 363 733 q 404 815 397 788 q 411 872 411 843 q 408 898 411 885 q 398 921 405 911 q 380 937 391 931 q 353 943 369 943 q 318 932 333 943 q 290 901 302 920 q 271 857 279 882 q 260 805 263 833 q 183 825 211 805 q 155 876 155 845 q 169 928 155 904 q 212 969 184 952 q 280 996 241 987 q 371 1006 320 1006 q 449 996 415 1006 q 509 971 484 987 q 546 931 533 955 q 560 880 560 908 q 550 824 560 851 q 516 768 540 797 q 453 706 492 739 q 354 630 413 672 l 181 504 l 385 504 q 434 521 417 504 q 458 561 450 538 l 469 590 l 524 590 l 485 397 l 40 397 "},"ë":{"x_min":56,"x_max":736,"ha":743,"o":"m 419 91 q 483 100 453 91 q 540 126 514 110 q 586 162 566 142 q 622 203 607 182 q 635 177 630 193 q 640 144 640 161 q 623 91 640 118 q 573 39 607 63 q 488 1 540 16 q 365 -14 436 -14 q 245 3 301 -14 q 147 56 189 21 q 80 146 104 92 q 56 272 56 200 q 69 380 56 324 q 109 491 83 437 q 176 593 136 544 q 268 678 216 642 q 385 736 320 715 q 526 758 449 758 q 681 714 626 758 q 736 594 736 671 q 704 486 736 538 q 618 396 673 435 q 487 334 563 357 q 322 311 411 311 q 297 311 310 311 q 271 312 283 311 q 268 285 268 299 q 268 259 268 271 q 305 134 268 178 q 419 91 343 91 m 468 674 q 403 649 434 674 q 348 583 373 623 q 306 491 324 542 q 281 392 289 441 l 293 392 q 389 405 344 392 q 466 444 433 419 q 517 505 499 469 q 536 584 536 540 q 518 650 536 627 q 468 674 500 674 m 430 961 q 422 915 430 934 q 403 885 415 897 q 377 869 392 874 q 347 864 362 864 q 292 882 313 864 q 271 940 271 901 q 293 1011 271 984 q 354 1038 315 1038 q 409 1018 387 1038 q 430 961 430 999 m 720 961 q 712 915 720 934 q 693 885 705 897 q 667 869 682 874 q 637 864 652 864 q 582 882 603 864 q 561 940 561 901 q 583 1011 561 984 q 644 1038 605 1038 q 699 1018 677 1038 q 720 961 720 999 "},"Î":{"x_min":-31.734375,"x_max":678,"ha":557,"o":"m -31 0 l -16 73 l 1 73 q 43 76 23 73 q 81 88 64 79 q 111 113 98 97 q 129 156 123 129 l 273 839 q 277 856 276 846 q 279 871 279 865 q 272 895 279 886 q 251 910 264 905 q 219 917 238 915 q 179 918 200 918 l 161 918 l 176 992 l 655 992 l 640 918 l 622 918 q 578 915 599 918 q 539 903 556 912 q 508 878 521 895 q 490 833 495 861 l 347 152 q 344 135 346 145 q 341 120 341 126 q 349 96 341 105 q 370 82 356 87 q 402 75 384 77 q 443 73 421 73 l 461 73 l 445 0 l -31 0 m 185 1089 q 231 1134 205 1108 q 284 1186 256 1159 q 336 1241 311 1213 q 382 1293 362 1268 l 569 1293 q 591 1244 578 1271 q 620 1189 605 1217 q 650 1135 635 1161 q 678 1089 665 1108 l 673 1071 l 586 1071 q 557 1098 574 1082 q 524 1130 541 1113 q 491 1164 507 1147 q 462 1195 474 1181 q 421 1164 444 1181 q 374 1130 397 1147 q 328 1098 350 1113 q 288 1071 305 1082 l 181 1071 l 185 1089 "},"e":{"x_min":56,"x_max":736,"ha":743,"o":"m 419 91 q 483 100 453 91 q 540 126 514 110 q 586 162 566 142 q 622 203 607 182 q 635 177 630 193 q 640 144 640 161 q 623 91 640 118 q 573 39 607 63 q 488 1 540 16 q 365 -14 436 -14 q 245 3 301 -14 q 147 56 189 21 q 80 146 104 92 q 56 272 56 200 q 69 380 56 324 q 109 491 83 437 q 176 593 136 544 q 268 678 216 642 q 385 736 320 715 q 526 758 449 758 q 681 714 626 758 q 736 594 736 671 q 704 486 736 538 q 618 396 673 435 q 487 334 563 357 q 322 311 411 311 q 297 311 310 311 q 271 312 283 311 q 268 285 268 299 q 268 259 268 271 q 305 134 268 178 q 419 91 343 91 m 468 674 q 403 649 434 674 q 348 583 373 623 q 306 491 324 542 q 281 392 289 441 l 293 392 q 389 405 344 392 q 466 444 433 419 q 517 505 499 469 q 536 584 536 540 q 518 650 536 627 q 468 674 500 674 "},"Ã":{"x_min":-68.03125,"x_max":987.875,"ha":1046,"o":"m 296 326 l 229 201 q 209 157 215 176 q 202 123 202 138 q 221 85 202 97 q 280 73 240 73 l 308 73 l 292 0 l -68 0 l -53 73 l -23 73 q 9 78 -4 73 q 37 94 24 82 q 65 128 51 107 q 99 181 80 149 l 571 992 l 761 992 l 878 173 q 887 133 881 151 q 902 102 892 115 q 926 81 911 88 q 962 73 941 73 l 987 73 l 972 0 l 514 0 l 529 73 l 561 73 q 632 87 606 73 q 658 132 658 101 q 658 155 658 143 q 656 176 657 166 l 635 326 l 296 326 m 600 644 q 594 701 597 675 q 588 753 591 728 q 584 802 586 778 q 582 851 582 826 q 561 805 572 826 q 540 761 551 783 q 514 714 528 739 q 482 657 500 690 l 344 411 l 626 411 l 600 644 m 805 1203 q 836 1209 823 1203 q 858 1225 849 1215 q 873 1249 867 1236 q 882 1277 879 1262 l 966 1277 q 943 1207 958 1243 q 905 1140 928 1170 q 852 1090 882 1110 q 784 1071 822 1071 q 717 1084 747 1071 q 662 1114 687 1098 q 615 1145 637 1131 q 571 1158 593 1158 q 544 1152 557 1158 q 521 1136 531 1146 q 504 1112 511 1125 q 494 1085 497 1099 l 412 1085 q 434 1152 418 1116 q 474 1219 449 1189 q 530 1270 498 1250 q 599 1291 561 1291 q 664 1277 635 1291 q 717 1247 693 1263 q 762 1216 741 1230 q 805 1203 784 1203 "},"J":{"x_min":-219.75,"x_max":655.84375,"ha":557,"o":"m 314 -4 q 255 -151 296 -89 q 157 -253 213 -213 q 33 -314 101 -294 q -105 -334 -34 -334 q -168 -329 -143 -334 q -219 -318 -193 -325 l -200 -241 q -180 -247 -191 -245 q -156 -251 -168 -249 q -132 -253 -144 -253 q -109 -254 -120 -254 q -43 -241 -73 -254 q 13 -199 -12 -228 q 59 -121 38 -169 q 94 -4 79 -74 l 273 839 q 277 856 276 846 q 279 871 279 865 q 271 895 279 886 q 251 910 264 905 q 219 917 238 915 q 179 918 200 918 l 161 918 l 176 992 l 655 992 l 640 918 l 622 918 q 578 915 599 918 q 539 903 556 912 q 508 878 521 894 q 490 833 495 861 l 314 -4 "},"»":{"x_min":31,"x_max":685,"ha":770,"o":"m 669 330 l 406 97 l 310 97 l 510 375 l 428 653 l 524 653 l 685 402 l 669 330 m 390 330 l 127 97 l 31 97 l 231 375 l 149 653 l 245 653 l 406 402 l 390 330 "},"©":{"x_min":87,"x_max":1108,"ha":1174,"o":"m 87 495 q 105 631 87 566 q 156 753 123 696 q 236 857 189 810 q 339 937 283 903 q 461 988 396 970 q 597 1007 526 1007 q 732 988 667 1007 q 854 937 797 970 q 958 857 911 903 q 1038 753 1004 810 q 1089 631 1071 696 q 1108 495 1108 566 q 1089 359 1108 424 q 1038 238 1071 294 q 958 134 1004 181 q 854 55 911 88 q 732 3 797 21 q 597 -14 667 -14 q 461 3 526 -14 q 339 55 396 21 q 236 134 283 88 q 156 238 189 181 q 105 359 123 294 q 87 495 87 424 m 163 495 q 179 380 163 435 q 223 277 194 325 q 290 189 251 228 q 378 121 329 149 q 481 77 426 93 q 597 61 537 61 q 712 77 657 61 q 816 121 768 93 q 904 189 865 149 q 972 277 944 228 q 1016 380 1000 325 q 1032 495 1032 435 q 997 664 1032 585 q 904 802 963 743 q 766 896 845 861 q 597 930 687 930 q 481 914 537 930 q 378 871 426 899 q 290 803 329 842 q 223 714 251 763 q 179 610 194 666 q 163 495 163 555 m 622 247 q 681 255 654 247 q 730 277 708 263 q 768 307 752 290 q 793 341 783 324 q 807 324 802 335 q 813 298 813 313 q 800 259 813 279 q 761 223 787 239 q 695 197 734 207 q 604 187 656 187 q 482 209 535 187 q 395 272 430 231 q 343 370 360 313 q 326 496 326 427 q 345 620 326 564 q 401 717 364 677 q 495 781 439 758 q 623 804 550 804 q 707 796 671 804 q 766 775 743 788 q 802 743 790 761 q 814 704 814 726 q 806 677 814 690 q 786 657 799 665 q 756 644 773 648 q 719 639 739 639 q 714 677 719 658 q 697 712 709 696 q 667 736 686 727 q 620 745 648 745 q 537 729 571 745 q 481 681 503 713 q 449 602 459 649 q 439 496 439 556 q 486 312 439 376 q 622 247 533 247 "},"ò":{"x_min":56,"x_max":802,"ha":859,"o":"m 56 277 q 68 385 56 329 q 105 494 80 441 q 167 596 129 548 q 255 679 204 644 q 369 736 305 715 q 511 758 433 758 q 624 741 571 758 q 716 689 677 724 q 778 598 755 654 q 802 466 802 543 q 790 361 802 416 q 754 252 778 306 q 693 151 730 199 q 606 66 656 102 q 492 7 556 29 q 350 -14 429 -14 q 230 3 285 -14 q 138 58 176 21 q 77 149 99 94 q 56 277 56 204 m 375 85 q 442 107 412 85 q 497 163 473 128 q 538 243 521 198 q 567 335 556 287 q 584 428 578 382 q 590 511 590 474 q 562 629 590 593 q 485 665 534 665 q 420 644 450 665 q 366 590 390 624 q 323 512 342 556 q 293 422 305 469 q 274 328 280 375 q 268 243 268 282 q 296 122 268 158 q 375 85 325 85 m 514 842 q 451 886 485 859 q 386 943 417 913 q 329 1001 355 972 q 288 1049 303 1029 l 293 1064 l 497 1064 q 518 1009 505 1038 q 546 953 531 980 q 574 900 560 925 q 601 860 589 876 l 597 842 l 514 842 "},"^":{"x_min":93,"x_max":741,"ha":777,"o":"m 386 992 l 445 992 l 741 365 l 632 365 l 415 841 l 201 365 l 93 365 l 386 992 "},"«":{"x_min":83,"x_max":737,"ha":770,"o":"m 97 421 l 361 653 l 459 653 l 260 375 l 341 97 l 243 97 l 83 348 l 97 421 m 376 421 l 640 653 l 737 653 l 539 375 l 619 97 l 522 97 l 361 348 l 376 421 "},"D":{"x_min":-33.09375,"x_max":1042,"ha":1067,"o":"m -18 73 l 1 73 q 43 76 23 73 q 81 88 64 79 q 111 113 98 97 q 129 156 123 129 l 273 839 q 277 856 276 846 q 279 871 279 865 q 272 895 279 886 q 251 910 264 905 q 219 917 238 915 q 179 918 200 918 l 161 918 l 176 992 l 620 992 q 798 967 720 992 q 931 895 877 943 q 1013 776 985 847 q 1042 614 1042 706 q 1024 453 1042 531 q 973 307 1007 375 q 890 182 940 239 q 776 85 841 126 q 630 22 710 44 q 455 0 550 0 l -33 0 l -18 73 m 396 86 q 570 125 493 86 q 700 237 647 165 q 780 407 753 308 q 808 625 808 506 q 791 751 808 698 q 743 839 774 804 q 666 890 711 873 q 565 907 621 907 l 507 907 l 333 86 l 396 86 "},"ⁿ":{"x_min":127.5,"x_max":726.53125,"ha":660,"o":"m 450 609 q 455 662 450 634 q 466 719 460 689 l 482 787 q 490 826 486 804 q 494 869 494 848 q 493 886 494 877 q 489 902 492 894 q 479 913 485 909 q 461 917 472 917 q 416 901 437 917 q 378 859 395 884 q 349 805 361 834 q 333 751 338 775 l 287 537 l 127 537 l 200 867 q 204 890 203 880 q 205 904 205 901 q 201 924 205 916 q 188 937 196 933 q 171 943 181 941 q 151 945 161 945 l 144 945 l 155 992 l 369 992 l 354 905 l 362 905 q 440 976 398 953 q 546 1000 483 1000 q 600 992 578 1000 q 634 971 621 984 q 653 941 647 958 q 658 906 658 924 q 657 884 658 896 q 653 859 655 872 q 648 834 651 847 q 644 812 646 822 l 625 718 q 616 677 620 695 q 612 644 612 659 q 623 617 612 625 q 648 608 634 608 q 675 613 662 608 q 704 628 688 618 l 726 583 q 663 544 702 560 q 571 528 624 528 q 481 551 512 528 q 450 609 450 574 "},"ÿ":{"x_min":-233,"x_max":770,"ha":814,"o":"m 109 597 q 75 655 97 639 q 12 671 53 671 l 0 671 l 16 745 l 288 745 l 379 384 q 393 321 386 357 q 407 248 401 284 q 419 180 414 212 q 425 132 424 149 l 429 132 q 507 244 471 187 q 571 353 544 300 q 615 454 599 406 q 630 543 630 503 q 608 614 630 589 q 544 638 585 638 q 553 687 544 665 q 576 725 561 709 q 611 749 591 741 q 656 758 632 758 q 741 726 712 758 q 770 639 770 695 q 751 525 770 585 q 699 397 733 464 q 617 253 665 329 q 507 92 568 177 q 413 -36 457 22 q 326 -143 369 -95 q 240 -226 284 -190 q 147 -286 197 -262 q 40 -322 98 -310 q -88 -334 -17 -334 q -166 -327 -128 -334 q -233 -308 -203 -320 l -211 -230 q -166 -242 -195 -236 q -93 -249 -136 -249 q 22 -232 -30 -249 q 120 -186 75 -215 q 205 -118 165 -157 q 282 -36 245 -80 l 109 597 m 377 961 q 369 915 377 934 q 350 885 362 897 q 324 869 339 874 q 294 864 309 864 q 239 882 260 864 q 218 940 218 901 q 240 1011 218 984 q 301 1038 262 1038 q 356 1018 334 1038 q 377 961 377 999 m 667 961 q 659 915 667 934 q 640 885 652 897 q 614 869 629 874 q 584 864 599 864 q 529 882 550 864 q 508 940 508 901 q 530 1011 508 984 q 591 1038 552 1038 q 646 1018 624 1038 q 667 961 667 999 "},"í":{"x_min":79.296875,"x_max":617,"ha":492,"o":"m 421 745 l 324 292 q 311 221 316 254 q 305 159 305 188 q 318 112 305 129 q 353 96 330 96 q 393 104 375 96 q 436 128 412 112 l 469 81 q 431 46 452 64 q 384 15 410 29 q 326 -5 358 2 q 256 -14 294 -14 q 134 23 176 -14 q 91 128 91 61 q 96 199 91 158 q 113 294 102 241 l 168 552 q 171 571 170 561 q 174 589 173 580 q 176 603 176 597 q 177 612 177 609 q 173 643 177 631 q 160 660 169 654 q 137 669 151 667 q 104 671 124 671 l 79 671 l 91 745 l 421 745 m 234 860 q 275 905 253 879 q 319 958 297 931 q 362 1013 341 986 q 399 1064 383 1040 l 617 1064 l 612 1049 q 583 1021 602 1037 q 540 985 564 1004 q 488 946 516 966 q 432 907 461 926 q 376 871 404 888 q 324 842 348 854 l 230 842 l 234 860 "},"w":{"x_min":51.234375,"x_max":1183,"ha":1215,"o":"m 1183 639 q 1152 488 1183 568 q 1071 324 1121 407 q 954 159 1020 241 q 818 0 888 76 l 649 -14 q 648 78 649 28 q 646 181 647 128 q 644 287 645 234 q 641 388 643 340 q 639 477 640 436 q 637 547 637 518 q 513 279 582 418 q 350 3 443 140 l 169 -8 l 155 569 q 146 621 154 601 q 126 652 139 641 q 97 667 114 663 q 59 671 79 671 l 51 671 l 73 745 l 341 745 q 348 606 345 675 q 354 477 352 537 q 357 369 356 417 q 359 294 359 322 q 358 209 359 241 q 357 173 357 176 l 367 173 q 437 293 402 228 q 505 430 471 358 q 572 578 539 502 q 634 732 604 655 l 803 737 q 811 652 808 702 q 818 545 815 602 q 825 428 822 488 q 830 315 828 368 q 834 219 833 262 q 835 152 835 176 l 845 152 q 946 288 906 227 q 1009 399 986 349 q 1042 490 1033 449 q 1052 565 1052 530 q 1046 602 1052 585 q 1030 630 1039 618 q 1008 649 1020 642 q 982 659 995 656 q 994 704 984 686 q 1017 735 1003 723 q 1048 752 1031 747 q 1086 758 1066 758 q 1157 727 1132 758 q 1183 639 1183 696 "},"$":{"x_min":35,"x_max":774,"ha":777,"o":"m 699 325 q 675 211 699 261 q 608 125 652 160 q 502 71 564 90 q 363 51 440 52 l 329 -110 l 252 -110 l 286 52 q 97 111 159 62 q 35 238 35 160 q 75 333 35 303 q 189 363 115 363 q 197 277 189 314 q 221 213 206 240 q 257 168 236 185 q 305 141 278 150 l 367 437 q 279 490 318 463 q 215 548 241 517 q 176 617 189 580 q 163 703 163 655 q 185 807 163 761 q 249 884 208 852 q 349 934 291 916 q 478 954 407 951 l 500 1055 l 578 1055 l 555 951 q 719 905 664 942 q 774 810 774 867 q 765 760 774 782 q 739 722 757 737 q 690 698 721 706 q 616 690 660 690 q 611 741 616 715 q 597 791 607 767 q 573 834 588 815 q 537 865 558 854 l 479 591 l 511 574 q 652 464 606 524 q 699 325 699 405 m 521 263 q 517 298 521 282 q 505 331 514 315 q 479 363 495 346 q 436 396 462 379 l 379 130 q 438 140 412 131 q 482 168 464 150 q 511 210 500 185 q 521 263 521 234 m 342 749 q 358 683 342 709 q 408 633 375 656 l 460 874 q 415 862 437 871 q 377 839 393 854 q 351 801 361 823 q 342 749 342 779 "},"\\":{"x_min":150,"x_max":322,"ha":400,"o":"m 150 1055 l 247 1055 l 322 -168 l 225 -168 l 150 1055 "},"Ì":{"x_min":-31.734375,"x_max":655.984375,"ha":557,"o":"m -31 0 l -16 73 l 1 73 q 43 76 23 73 q 81 88 64 79 q 111 113 98 97 q 129 156 123 129 l 273 839 q 277 856 276 846 q 279 871 279 865 q 272 895 279 886 q 251 910 264 905 q 219 917 238 915 q 179 918 200 918 l 161 918 l 176 992 l 655 992 l 640 918 l 622 918 q 578 915 599 918 q 539 903 556 912 q 508 878 521 895 q 490 833 495 861 l 347 152 q 344 135 346 145 q 341 120 341 126 q 349 96 341 105 q 370 82 356 87 q 402 75 384 77 q 443 73 421 73 l 461 73 l 445 0 l -31 0 m 426 1071 q 363 1115 397 1088 q 298 1172 329 1142 q 241 1230 267 1201 q 200 1278 215 1258 l 205 1293 l 409 1293 q 430 1238 417 1267 q 458 1182 443 1209 q 486 1129 472 1154 q 513 1089 501 1105 l 509 1071 l 426 1071 "},"µ":{"x_min":-3,"x_max":918.203125,"ha":940,"o":"m 544 127 q 498 69 520 95 q 450 24 475 43 q 396 -3 425 6 q 333 -14 368 -14 q 228 13 271 -14 q 161 85 186 40 q 152 35 156 61 q 146 -14 148 9 q 142 -61 144 -38 q 141 -100 141 -83 q 145 -143 141 -123 q 162 -176 150 -162 q 197 -200 175 -190 q 254 -212 219 -209 q 232 -266 248 -243 q 194 -304 216 -289 q 143 -326 171 -319 q 87 -334 115 -334 q 50 -328 67 -334 q 22 -311 34 -323 q 3 -281 10 -300 q -3 -233 -3 -262 q 8 -140 -3 -192 q 38 -23 20 -89 q 79 125 56 42 q 123 312 101 208 l 214 745 l 426 745 l 333 308 q 328 284 331 298 q 323 255 325 271 q 319 225 321 240 q 317 197 317 209 q 322 161 317 178 q 336 131 326 144 q 360 111 346 118 q 395 104 375 104 q 504 166 460 104 q 576 360 548 228 l 658 745 l 869 745 l 773 292 q 759 221 764 254 q 754 159 754 188 q 766 112 754 129 q 802 96 779 96 q 842 104 824 96 q 884 128 860 112 l 918 81 q 880 46 901 64 q 832 15 859 29 q 771 -5 804 2 q 697 -14 738 -14 q 626 -2 654 -14 q 581 29 598 9 q 558 73 564 48 q 551 127 551 99 l 544 127 "},"Ç":{"x_min":87,"x_max":977,"ha":928,"o":"m 558 102 q 645 113 606 102 q 714 142 684 124 q 768 182 745 160 q 809 228 791 205 q 825 209 817 222 q 833 181 833 196 q 811 111 833 146 q 749 48 790 76 q 648 3 708 20 q 508 -14 587 -14 q 330 10 409 -14 q 198 83 252 35 q 115 200 144 131 q 87 359 87 270 q 106 523 87 442 q 163 676 126 603 q 255 810 201 749 q 377 916 308 871 q 526 985 445 960 q 701 1011 608 1011 q 822 999 770 1011 q 908 965 874 987 q 960 913 943 944 q 977 845 977 882 q 962 791 977 814 q 921 752 947 768 q 858 728 894 737 q 781 720 823 720 q 776 785 781 749 q 760 850 772 820 q 724 901 747 881 q 662 922 701 922 q 561 897 607 922 q 476 828 514 871 q 408 728 437 785 q 358 608 378 671 q 328 478 338 544 q 317 350 317 412 q 378 167 317 232 q 558 102 438 102 m 464 -47 q 515 -61 492 -51 q 554 -86 537 -71 q 579 -121 570 -101 q 588 -163 588 -140 q 567 -240 588 -207 q 512 -293 546 -272 q 433 -324 477 -314 q 341 -334 388 -334 q 290 -328 319 -334 q 237 -315 260 -323 l 255 -233 q 302 -241 278 -239 q 345 -244 326 -244 q 385 -240 366 -244 q 417 -227 404 -236 q 439 -206 431 -219 q 447 -173 447 -192 q 440 -149 447 -160 q 421 -129 433 -137 q 392 -116 408 -120 q 356 -110 375 -111 l 411 12 l 491 12 l 464 -47 "},"-":{"x_min":14,"x_max":407,"ha":431,"o":"m 14 306 l 46 452 l 407 452 l 375 306 l 14 306 "},"Q":{"x_min":86,"x_max":1061,"ha":1093,"o":"m 86 369 q 102 509 86 435 q 152 653 119 582 q 235 788 185 724 q 350 900 284 852 q 497 978 415 949 q 677 1007 579 1007 q 823 984 753 1007 q 945 915 892 962 q 1029 796 998 868 q 1061 625 1061 724 q 1048 505 1061 568 q 1011 378 1035 441 q 948 255 986 315 q 859 144 910 194 q 745 55 809 93 q 605 0 681 17 q 619 -126 607 -77 q 652 -203 631 -175 q 701 -242 673 -231 q 764 -253 730 -253 l 787 -253 l 769 -334 l 669 -334 q 553 -315 606 -334 q 459 -257 499 -296 q 397 -154 420 -217 q 372 -4 374 -92 q 256 38 309 8 q 166 115 203 68 q 107 226 128 163 q 86 369 86 289 m 312 336 q 327 218 312 267 q 367 137 341 169 q 427 91 392 106 q 500 76 461 76 q 605 104 558 76 q 690 178 652 131 q 754 284 727 224 q 800 409 782 344 q 827 537 818 473 q 835 656 835 602 q 821 773 835 724 q 782 854 807 822 q 723 901 757 886 q 648 916 688 916 q 543 888 590 916 q 458 814 496 861 q 393 708 421 768 q 348 583 366 648 q 321 454 330 518 q 312 336 312 390 m 474 -16 l 474 -16 "},"M":{"x_min":-31.734375,"x_max":1422.515625,"ha":1323,"o":"m 1422 992 l 1407 918 l 1389 918 q 1345 915 1366 918 q 1307 903 1324 912 q 1277 878 1289 895 q 1258 833 1264 861 l 1115 152 q 1111 135 1113 145 q 1109 120 1109 126 q 1117 96 1109 105 q 1138 82 1124 87 q 1169 75 1151 77 q 1210 73 1188 73 l 1227 73 l 1212 0 l 739 0 l 754 73 l 772 73 q 816 76 795 73 q 854 88 837 79 q 884 113 871 97 q 903 158 897 130 l 1050 854 l 590 0 l 494 0 l 381 854 l 234 164 q 229 137 231 148 q 228 120 228 126 q 235 96 228 105 q 256 82 242 87 q 288 75 270 77 q 329 73 307 73 l 333 73 l 318 0 l -31 0 l -16 73 l 1 73 q 43 76 23 73 q 81 88 64 79 q 111 113 98 97 q 129 156 123 129 l 270 823 q 279 871 279 859 q 272 895 279 886 q 251 910 264 905 q 219 917 238 915 q 179 918 200 918 l 161 918 l 176 992 l 563 992 l 657 316 l 1021 992 l 1422 992 "},"C":{"x_min":87,"x_max":977,"ha":928,"o":"m 558 102 q 645 113 606 102 q 714 142 684 124 q 768 182 745 160 q 809 228 791 205 q 825 209 817 222 q 833 181 833 196 q 811 111 833 146 q 749 48 790 76 q 648 3 708 20 q 508 -14 587 -14 q 330 10 409 -14 q 198 83 252 35 q 115 200 144 131 q 87 359 87 270 q 106 523 87 442 q 163 676 126 603 q 255 810 201 749 q 377 916 308 871 q 526 985 445 960 q 701 1011 608 1011 q 822 999 770 1011 q 908 965 874 987 q 960 913 943 944 q 977 845 977 882 q 962 791 977 814 q 921 752 947 768 q 858 728 894 737 q 781 720 823 720 q 776 785 781 749 q 760 850 772 820 q 724 901 747 881 q 662 922 701 922 q 561 897 607 922 q 476 828 514 871 q 408 728 437 785 q 358 608 378 671 q 328 478 338 544 q 317 350 317 412 q 378 167 317 232 q 558 102 438 102 "},"!":{"x_min":107,"x_max":533,"ha":549,"o":"m 291 992 l 533 992 l 292 316 l 212 316 l 291 992 m 340 113 q 329 54 340 79 q 301 16 319 30 q 262 -4 284 1 q 219 -11 241 -11 q 137 13 168 -11 q 107 88 107 37 q 115 139 107 116 q 139 179 123 162 q 177 204 155 195 q 227 213 199 213 q 271 206 251 213 q 307 188 292 200 q 331 157 323 176 q 340 113 340 138 "},"ç":{"x_min":56,"x_max":733,"ha":733,"o":"m 421 91 q 487 100 457 91 q 540 127 516 110 q 582 163 564 143 q 615 205 600 184 q 629 180 623 196 q 636 144 636 165 q 620 88 636 116 q 570 37 604 60 q 485 0 537 15 q 362 -14 434 -14 q 244 3 299 -14 q 146 57 188 21 q 80 146 104 93 q 56 272 56 200 q 68 380 56 324 q 107 490 81 436 q 171 592 133 544 q 260 677 209 641 q 374 736 311 714 q 512 758 437 758 q 612 746 570 758 q 680 714 653 734 q 720 667 707 694 q 733 610 733 640 q 723 568 733 589 q 694 531 714 547 q 641 504 674 514 q 563 494 609 494 q 557 563 563 530 q 537 621 550 596 q 506 660 524 646 q 462 674 487 674 q 406 654 432 674 q 358 601 380 634 q 320 526 337 568 q 292 438 304 483 q 274 349 280 393 q 268 270 268 306 q 306 138 268 185 q 421 91 345 91 m 330 -47 q 381 -61 358 -51 q 420 -86 403 -71 q 445 -121 436 -101 q 454 -163 454 -140 q 433 -240 454 -207 q 378 -293 412 -272 q 299 -324 343 -314 q 207 -334 254 -334 q 156 -328 185 -334 q 103 -315 126 -323 l 121 -233 q 168 -241 144 -239 q 211 -244 192 -244 q 251 -240 232 -244 q 283 -227 270 -236 q 305 -206 297 -219 q 313 -173 313 -192 q 306 -149 313 -160 q 287 -129 299 -137 q 258 -116 274 -120 q 222 -110 241 -111 l 277 12 l 357 12 l 330 -47 "},"È":{"x_min":-31.734375,"x_max":931,"ha":879,"o":"m -16 73 l 1 73 q 43 76 23 73 q 81 88 64 79 q 111 113 98 97 q 129 156 123 129 l 273 839 q 277 856 276 846 q 279 871 279 865 q 272 895 279 886 q 251 910 264 905 q 219 917 238 915 q 179 918 200 918 l 161 918 l 176 992 l 931 992 l 882 733 l 783 733 q 785 750 784 737 q 787 775 786 762 q 789 800 788 788 q 790 813 790 811 q 785 850 790 833 q 768 879 779 867 q 737 900 756 892 q 692 907 719 907 l 507 907 l 433 560 l 749 560 l 730 476 l 415 476 l 331 84 l 551 84 q 610 93 584 84 q 654 118 635 103 q 687 155 673 134 q 708 199 700 175 l 730 259 l 830 259 l 765 0 l -31 0 l -16 73 m 589 1071 q 526 1115 560 1088 q 461 1172 492 1142 q 404 1230 430 1201 q 363 1278 378 1258 l 368 1293 l 572 1293 q 593 1238 580 1267 q 621 1182 606 1209 q 649 1129 635 1154 q 676 1089 664 1105 l 672 1071 l 589 1071 "},"{":{"x_min":54.40625,"x_max":723.84375,"ha":614,"o":"m 330 -174 q 181 -133 231 -174 q 132 -22 132 -93 q 132 -9 132 -16 q 134 9 133 -1 q 138 36 135 20 q 146 75 141 52 l 187 269 q 192 307 192 288 q 181 352 192 334 q 152 380 171 369 q 108 394 133 390 q 54 400 83 398 l 72 485 q 137 491 106 485 q 192 511 168 497 q 235 550 217 525 q 260 613 252 575 l 311 852 q 342 942 322 904 q 395 1005 363 981 q 476 1042 428 1030 q 591 1055 525 1055 l 723 1055 l 708 981 l 654 981 q 604 972 624 981 q 568 947 583 964 q 544 904 554 930 q 527 846 535 879 l 477 611 q 419 507 463 548 q 289 449 374 467 l 287 437 q 379 389 350 420 q 409 312 409 358 q 405 273 409 294 l 354 35 q 348 2 350 18 q 347 -26 347 -13 q 365 -81 347 -62 q 425 -100 382 -100 l 479 -100 l 462 -174 l 330 -174 "},"X":{"x_min":-58.296875,"x_max":1106.96875,"ha":1017,"o":"m 1092 918 l 1079 918 q 1041 913 1058 918 q 1006 897 1024 909 q 968 867 988 886 q 922 819 948 848 l 661 544 l 832 147 q 876 89 851 104 q 928 73 902 73 l 946 73 l 930 0 l 472 0 l 487 73 l 509 73 q 569 86 550 73 q 587 122 587 99 q 580 165 587 141 q 561 218 574 189 l 476 409 l 282 208 q 241 158 257 182 q 226 115 226 135 q 229 97 226 105 q 241 84 233 90 q 264 76 250 79 q 302 73 279 73 l 307 73 l 291 0 l -58 0 l -42 73 l -29 73 q 9 79 -8 73 q 46 95 27 84 q 86 126 65 107 q 135 173 107 145 l 442 490 l 286 847 q 265 884 275 870 q 241 906 254 899 q 213 916 229 913 q 177 918 197 918 l 165 918 l 180 992 l 640 992 l 625 918 l 592 918 q 542 908 557 918 q 527 879 527 898 q 533 845 527 865 q 552 796 540 825 l 626 624 l 790 799 q 824 842 809 818 q 839 884 839 865 q 822 910 839 901 q 772 918 805 918 l 768 918 l 783 992 l 1106 992 l 1092 918 "},"ô":{"x_min":56,"x_max":802,"ha":859,"o":"m 56 277 q 68 385 56 329 q 105 494 80 441 q 167 596 129 548 q 255 679 204 644 q 369 736 305 715 q 511 758 433 758 q 624 741 571 758 q 716 689 677 724 q 778 598 755 654 q 802 466 802 543 q 790 361 802 416 q 754 252 778 306 q 693 151 730 199 q 606 66 656 102 q 492 7 556 29 q 350 -14 429 -14 q 230 3 285 -14 q 138 58 176 21 q 77 149 99 94 q 56 277 56 204 m 375 85 q 442 107 412 85 q 497 163 473 128 q 538 243 521 198 q 567 335 556 287 q 584 428 578 382 q 590 511 590 474 q 562 629 590 593 q 485 665 534 665 q 420 644 450 665 q 366 590 390 624 q 323 512 342 556 q 293 422 305 469 q 274 328 280 375 q 268 243 268 282 q 296 122 268 158 q 375 85 325 85 m 277 860 q 323 905 297 879 q 376 957 348 930 q 428 1012 403 984 q 474 1064 454 1039 l 661 1064 q 683 1015 670 1042 q 712 960 697 988 q 742 906 727 932 q 770 860 757 879 l 765 842 l 678 842 q 649 869 666 853 q 616 901 633 884 q 583 935 599 918 q 554 966 566 952 q 513 935 536 952 q 466 901 489 918 q 420 869 442 884 q 380 842 397 853 l 273 842 l 277 860 "},"¼":{"x_min":36.828125,"x_max":1118.734375,"ha":1167,"o":"m 434 999 l 335 531 q 330 509 331 519 q 329 495 329 499 q 334 476 329 483 q 346 465 338 469 q 363 461 353 462 q 384 460 373 460 l 441 460 l 428 399 l 36 399 l 49 460 l 120 460 q 145 461 133 460 q 166 468 156 463 q 182 484 175 474 q 193 512 190 495 l 276 906 q 206 844 237 868 q 150 820 175 820 q 120 840 131 820 q 110 889 110 860 q 143 896 127 891 q 177 908 159 901 q 215 927 194 916 q 259 952 235 937 l 331 999 l 434 999 m 312 0 l 194 0 l 898 992 l 1015 992 l 312 0 m 994 163 l 988 138 q 984 112 985 123 q 983 96 983 100 q 987 78 983 85 q 997 67 990 71 q 1013 63 1004 64 q 1031 62 1022 62 l 1059 62 l 1047 1 l 727 1 l 739 62 l 779 62 q 801 63 790 62 q 820 70 811 65 q 836 86 830 76 q 847 114 843 97 l 856 163 l 594 163 l 605 218 l 963 601 l 1087 601 l 1010 237 l 1118 237 l 1102 163 l 994 163 m 905 392 q 916 435 909 413 q 931 482 924 456 q 915 459 924 470 q 902 443 906 449 l 707 237 l 873 237 l 905 392 "},"#":{"x_min":39.03125,"x_max":785.25,"ha":777,"o":"m 703 373 l 693 278 l 519 278 l 439 0 l 341 0 l 421 278 l 276 278 l 195 0 l 96 0 l 178 278 l 39 278 l 49 373 l 206 373 l 281 626 l 119 626 l 131 723 l 310 723 l 386 992 l 486 992 l 409 723 l 553 723 l 632 992 l 731 992 l 652 723 l 785 723 l 774 626 l 623 626 l 549 373 l 703 373 m 304 373 l 450 373 l 525 626 l 379 626 l 304 373 "},"Ê":{"x_min":-31.734375,"x_max":931,"ha":879,"o":"m -16 73 l 1 73 q 43 76 23 73 q 81 88 64 79 q 111 113 98 97 q 129 156 123 129 l 273 839 q 277 856 276 846 q 279 871 279 865 q 272 895 279 886 q 251 910 264 905 q 219 917 238 915 q 179 918 200 918 l 161 918 l 176 992 l 931 992 l 882 733 l 783 733 q 785 750 784 737 q 787 775 786 762 q 789 800 788 788 q 790 813 790 811 q 785 850 790 833 q 768 879 779 867 q 737 900 756 892 q 692 907 719 907 l 507 907 l 433 560 l 749 560 l 730 476 l 415 476 l 331 84 l 551 84 q 610 93 584 84 q 654 118 635 103 q 687 155 673 134 q 708 199 700 175 l 730 259 l 830 259 l 765 0 l -31 0 l -16 73 m 378 1089 q 424 1134 398 1108 q 477 1186 449 1159 q 529 1241 504 1213 q 575 1293 555 1268 l 762 1293 q 784 1244 771 1271 q 813 1189 798 1217 q 843 1135 828 1161 q 871 1089 858 1108 l 866 1071 l 779 1071 q 750 1098 767 1082 q 717 1130 734 1113 q 684 1164 700 1147 q 655 1195 667 1181 q 614 1164 637 1181 q 567 1130 590 1147 q 521 1098 543 1113 q 481 1071 498 1082 l 374 1071 l 378 1089 "},")":{"x_min":-61,"x_max":521,"ha":555,"o":"m 307 688 q 301 773 307 730 q 280 854 295 816 q 243 927 266 893 q 185 985 219 960 l 204 1074 q 348 998 288 1044 q 446 893 408 952 q 503 766 485 835 q 521 622 521 697 q 505 449 521 536 q 457 279 489 361 q 377 121 425 196 q 264 -15 329 45 q 118 -123 199 -77 q -61 -193 37 -168 l -47 -104 q 45 -38 4 -75 q 118 40 86 -1 q 174 128 150 83 q 215 218 198 173 q 244 305 232 263 q 265 383 256 347 q 299 562 291 488 q 307 688 307 637 "},"Å":{"x_min":-68.03125,"x_max":987.875,"ha":1046,"o":"m 296 326 l 229 201 q 209 157 215 176 q 202 123 202 138 q 221 85 202 97 q 280 73 240 73 l 308 73 l 292 0 l -68 0 l -53 73 l -23 73 q 9 78 -4 73 q 37 94 24 82 q 65 128 51 107 q 99 181 80 149 l 571 992 l 761 992 l 878 173 q 887 133 881 151 q 902 102 892 115 q 926 81 911 88 q 962 73 941 73 l 987 73 l 972 0 l 514 0 l 529 73 l 561 73 q 632 87 606 73 q 658 132 658 101 q 658 155 658 143 q 656 176 657 166 l 635 326 l 296 326 m 600 644 q 594 701 597 675 q 588 753 591 728 q 584 802 586 778 q 582 851 582 826 q 561 805 572 826 q 540 761 551 783 q 514 714 528 739 q 482 657 500 690 l 344 411 l 626 411 l 600 644 m 826 1066 q 813 1001 826 1029 q 777 953 800 973 q 724 924 754 934 q 659 915 693 915 q 593 924 624 915 q 540 953 563 934 q 504 1001 517 973 q 492 1066 492 1029 q 504 1131 492 1103 q 540 1179 517 1160 q 593 1208 563 1198 q 659 1218 624 1218 q 724 1208 693 1218 q 777 1179 754 1198 q 813 1131 800 1160 q 826 1066 826 1103 m 741 1066 q 734 1101 741 1087 q 716 1124 727 1114 q 690 1137 705 1133 q 659 1141 675 1141 q 627 1137 642 1141 q 600 1124 612 1133 q 583 1101 589 1114 q 576 1066 576 1087 q 583 1032 576 1046 q 600 1008 589 1018 q 627 995 612 999 q 659 991 642 991 q 690 995 675 991 q 716 1008 705 999 q 734 1032 727 1018 q 741 1066 741 1046 "},"ø":{"x_min":18.703125,"x_max":825.734375,"ha":859,"o":"m 56 277 q 68 385 56 329 q 105 494 80 441 q 167 596 129 548 q 255 679 204 644 q 369 736 305 715 q 511 758 433 758 q 589 750 552 758 q 658 727 626 743 l 721 800 l 825 800 l 726 678 q 781 590 761 643 q 802 466 802 538 q 790 361 802 416 q 754 252 778 306 q 693 151 730 199 q 606 66 656 102 q 492 7 556 29 q 350 -14 429 -14 q 187 21 257 -14 l 123 -56 l 18 -56 l 122 71 q 72 159 89 108 q 56 277 56 210 m 375 85 q 442 107 412 85 q 497 163 473 128 q 538 243 521 198 q 567 335 556 287 q 584 428 578 382 q 590 511 590 474 l 590 513 l 285 141 q 321 98 298 112 q 375 85 344 85 m 485 665 q 420 645 450 665 q 366 592 391 625 q 324 516 342 559 q 294 426 306 473 q 275 335 281 380 q 268 249 268 289 l 568 617 q 533 653 555 641 q 485 665 512 665 "},"â":{"x_min":56,"x_max":876.578125,"ha":924,"o":"m 657 -14 q 558 14 595 -14 q 521 96 521 42 q 523 138 521 118 q 530 186 525 159 l 521 186 q 469 100 495 138 q 413 37 444 63 q 343 0 382 12 q 254 -14 305 -14 q 167 5 205 -14 q 105 58 130 24 q 68 138 81 92 q 56 239 56 185 q 68 353 56 293 q 106 470 81 412 q 168 580 131 528 q 253 671 205 632 q 361 734 302 711 q 492 758 421 758 q 547 753 519 758 q 601 742 575 749 q 649 727 627 735 q 688 709 672 718 l 761 743 l 835 743 l 743 309 q 736 279 740 298 q 729 238 732 260 q 722 197 725 217 q 719 163 719 177 q 733 112 719 129 q 768 95 747 95 q 806 103 788 95 q 846 124 824 112 l 876 68 q 836 40 858 55 q 786 13 814 26 q 727 -6 759 1 q 657 -14 694 -14 m 266 238 q 272 171 266 198 q 288 127 278 144 q 312 103 298 110 q 342 96 325 96 q 405 123 372 96 q 466 192 437 149 q 517 289 494 235 q 551 399 540 344 l 600 630 q 562 659 586 650 q 511 669 538 669 q 437 648 471 669 q 376 591 403 627 q 328 511 349 556 q 294 418 308 466 q 273 323 280 370 q 266 238 266 276 m 264 860 q 310 905 284 879 q 363 957 335 930 q 415 1012 390 984 q 461 1064 441 1039 l 648 1064 q 670 1015 657 1042 q 699 960 684 988 q 729 906 714 932 q 757 860 744 879 l 752 842 l 665 842 q 636 869 653 853 q 603 901 620 884 q 570 935 586 918 q 541 966 553 952 q 500 935 523 952 q 453 901 476 918 q 407 869 429 884 q 367 842 384 853 l 260 842 l 264 860 "},"}":{"x_min":-75,"x_max":595.25,"ha":614,"o":"m 318 1057 q 467 1017 418 1057 q 517 905 517 977 q 516 891 517 899 q 514 873 516 884 q 510 847 513 862 q 502 808 507 831 l 461 614 q 457 576 457 593 q 468 531 457 549 q 497 503 478 513 q 541 489 515 493 q 595 484 566 484 l 576 399 q 511 392 542 397 q 456 372 481 387 q 413 333 431 358 q 387 269 395 308 l 338 30 q 306 -59 327 -21 q 253 -122 286 -98 q 171 -159 220 -147 q 57 -172 123 -172 l -75 -172 l -59 -98 l -5 -98 q 45 -89 24 -98 q 80 -63 66 -80 q 104 -21 95 -46 q 121 36 113 3 l 171 272 q 229 375 185 335 q 359 435 274 416 l 361 446 q 269 494 299 462 q 239 571 239 525 q 243 609 239 589 l 294 846 q 300 880 298 864 q 301 909 301 895 q 284 964 301 945 q 224 983 266 983 l 169 983 l 186 1057 l 318 1057 "},"Ä":{"x_min":-68.03125,"x_max":987.875,"ha":1046,"o":"m 296 326 l 229 201 q 209 157 215 176 q 202 123 202 138 q 221 85 202 97 q 280 73 240 73 l 308 73 l 292 0 l -68 0 l -53 73 l -23 73 q 9 78 -4 73 q 37 94 24 82 q 65 128 51 107 q 99 181 80 149 l 571 992 l 761 992 l 878 173 q 887 133 881 151 q 902 102 892 115 q 926 81 911 88 q 962 73 941 73 l 987 73 l 972 0 l 514 0 l 529 73 l 561 73 q 632 87 606 73 q 658 132 658 101 q 658 155 658 143 q 656 176 657 166 l 635 326 l 296 326 m 600 644 q 594 701 597 675 q 588 753 591 728 q 584 802 586 778 q 582 851 582 826 q 561 805 572 826 q 540 761 551 783 q 514 714 528 739 q 482 657 500 690 l 344 411 l 626 411 l 600 644 m 619 1190 q 611 1144 619 1163 q 592 1114 604 1126 q 566 1098 581 1103 q 536 1093 551 1093 q 481 1111 502 1093 q 460 1169 460 1130 q 482 1240 460 1213 q 543 1267 504 1267 q 598 1247 576 1267 q 619 1190 619 1228 m 909 1190 q 901 1144 909 1163 q 882 1114 894 1126 q 856 1098 871 1103 q 826 1093 841 1093 q 771 1111 792 1093 q 750 1169 750 1130 q 772 1240 750 1213 q 833 1267 794 1267 q 888 1247 866 1267 q 909 1190 909 1228 "},"¸":{"x_min":35,"x_max":386,"ha":463,"o":"m 262 -47 q 313 -61 290 -51 q 352 -86 335 -71 q 377 -121 368 -101 q 386 -163 386 -140 q 365 -240 386 -207 q 310 -293 344 -272 q 231 -324 275 -314 q 139 -334 186 -334 q 88 -328 117 -334 q 35 -315 58 -323 l 53 -233 q 100 -241 76 -239 q 143 -244 124 -244 q 183 -240 164 -244 q 215 -227 202 -236 q 237 -206 229 -219 q 245 -173 245 -192 q 238 -149 245 -160 q 219 -129 231 -137 q 190 -116 206 -120 q 154 -110 173 -111 l 209 12 l 289 12 l 262 -47 "},"a":{"x_min":56,"x_max":876.578125,"ha":924,"o":"m 657 -14 q 558 14 595 -14 q 521 96 521 42 q 523 138 521 118 q 530 186 525 159 l 521 186 q 469 100 495 138 q 413 37 444 63 q 343 0 382 12 q 254 -14 305 -14 q 167 5 205 -14 q 105 58 130 24 q 68 138 81 92 q 56 239 56 185 q 68 353 56 293 q 106 470 81 412 q 168 580 131 528 q 253 671 205 632 q 361 734 302 711 q 492 758 421 758 q 547 753 519 758 q 601 742 575 749 q 649 727 627 735 q 688 709 672 718 l 761 743 l 835 743 l 743 309 q 736 279 740 298 q 729 238 732 260 q 722 197 725 217 q 719 163 719 177 q 733 112 719 129 q 768 95 747 95 q 806 103 788 95 q 846 124 824 112 l 876 68 q 836 40 858 55 q 786 13 814 26 q 727 -6 759 1 q 657 -14 694 -14 m 266 238 q 272 171 266 198 q 288 127 278 144 q 312 103 298 110 q 342 96 325 96 q 405 123 372 96 q 466 192 437 149 q 517 289 494 235 q 551 399 540 344 l 600 630 q 562 659 586 650 q 511 669 538 669 q 437 648 471 669 q 376 591 403 627 q 328 511 349 556 q 294 418 308 466 q 273 323 280 370 q 266 238 266 276 "},"=":{"x_min":113,"x_max":715,"ha":777,"o":"m 715 409 l 715 313 l 113 313 l 113 409 l 715 409 m 715 679 l 715 582 l 113 582 l 113 679 l 715 679 "},"N":{"x_min":-31.734375,"x_max":1207.53125,"ha":1095,"o":"m 742 0 l 365 786 l 234 164 q 229 137 231 148 q 228 120 228 126 q 235 96 228 105 q 256 82 242 87 q 288 75 270 77 q 329 73 307 73 l 333 73 l 318 0 l -31 0 l -16 73 l 1 73 q 43 76 23 73 q 81 88 64 79 q 111 113 98 97 q 129 156 123 129 l 270 823 q 279 871 279 859 q 272 895 279 886 q 251 910 264 905 q 219 917 238 915 q 179 918 200 918 l 161 918 l 176 992 l 485 992 l 823 279 l 940 828 q 947 871 947 860 q 939 895 947 886 q 918 910 932 905 q 886 917 905 915 q 846 918 867 918 l 841 918 l 857 992 l 1207 992 l 1191 918 l 1174 918 q 1131 915 1152 918 q 1094 903 1111 912 q 1064 878 1077 895 q 1046 835 1052 862 l 869 0 l 742 0 "},"ú":{"x_min":79.296875,"x_max":913.1875,"ha":935,"o":"m 537 119 q 538 133 537 125 q 539 150 538 141 q 541 166 540 159 q 544 180 542 174 l 532 180 q 472 101 502 136 q 410 40 443 66 q 338 1 376 15 q 250 -12 299 -12 q 174 0 205 -12 q 126 33 144 12 q 99 82 107 54 q 91 141 91 110 q 99 217 91 176 q 115 294 107 258 l 165 539 q 174 590 170 567 q 177 625 177 614 q 160 662 177 653 q 104 671 143 671 l 79 671 l 91 745 l 425 745 l 333 328 q 325 292 329 312 q 318 251 321 271 q 312 212 314 230 q 309 181 309 194 q 322 132 309 150 q 369 114 335 114 q 432 142 400 114 q 494 213 464 169 q 546 311 523 257 q 582 417 570 365 l 656 745 l 863 745 l 768 292 q 754 221 759 254 q 749 159 749 188 q 761 112 749 129 q 797 96 774 96 q 837 104 819 96 q 879 128 855 112 l 913 81 q 875 46 896 64 q 828 15 854 29 q 770 -5 801 2 q 700 -14 738 -14 q 622 -3 653 -14 q 572 25 591 7 q 545 67 553 43 q 537 119 537 91 m 467 860 q 508 905 486 879 q 552 958 530 931 q 595 1013 574 986 q 632 1064 616 1040 l 850 1064 l 845 1049 q 816 1021 835 1037 q 773 985 797 1004 q 721 946 749 966 q 665 907 694 926 q 609 871 637 888 q 557 842 581 854 l 463 842 l 467 860 "},"2":{"x_min":-20,"x_max":780,"ha":777,"o":"m -20 0 l 9 143 l 333 416 q 450 525 404 476 q 522 619 495 575 q 558 703 548 662 q 569 788 569 744 q 562 841 569 817 q 543 882 556 865 q 512 910 530 900 q 471 919 494 919 q 409 901 436 919 q 363 851 382 883 q 333 777 344 820 q 319 685 322 734 q 255 692 284 685 q 205 714 226 699 q 171 751 183 728 q 160 804 160 774 q 181 882 160 845 q 243 946 202 919 q 345 990 284 974 q 485 1006 406 1006 q 611 992 556 1006 q 703 954 666 978 q 760 893 741 929 q 780 812 780 857 q 760 722 780 766 q 704 630 741 677 q 610 532 666 584 q 479 421 553 481 l 145 152 l 469 152 q 526 162 502 152 q 566 188 549 172 q 593 224 582 204 q 614 266 604 245 l 624 292 l 706 292 l 638 0 l -20 0 "},"ü":{"x_min":79.296875,"x_max":913.1875,"ha":935,"o":"m 537 119 q 538 133 537 125 q 539 150 538 141 q 541 166 540 159 q 544 180 542 174 l 532 180 q 472 101 502 136 q 410 40 443 66 q 338 1 376 15 q 250 -12 299 -12 q 174 0 205 -12 q 126 33 144 12 q 99 82 107 54 q 91 141 91 110 q 99 217 91 176 q 115 294 107 258 l 165 539 q 174 590 170 567 q 177 625 177 614 q 160 662 177 653 q 104 671 143 671 l 79 671 l 91 745 l 425 745 l 333 328 q 325 292 329 312 q 318 251 321 271 q 312 212 314 230 q 309 181 309 194 q 322 132 309 150 q 369 114 335 114 q 432 142 400 114 q 494 213 464 169 q 546 311 523 257 q 582 417 570 365 l 656 745 l 863 745 l 768 292 q 754 221 759 254 q 749 159 749 188 q 761 112 749 129 q 797 96 774 96 q 837 104 819 96 q 879 128 855 112 l 913 81 q 875 46 896 64 q 828 15 854 29 q 770 -5 801 2 q 700 -14 738 -14 q 622 -3 653 -14 q 572 25 591 7 q 545 67 553 43 q 537 119 537 91 m 496 961 q 488 915 496 934 q 469 885 481 897 q 443 869 458 874 q 413 864 428 864 q 358 882 379 864 q 337 940 337 901 q 359 1011 337 984 q 420 1038 381 1038 q 475 1018 453 1038 q 496 961 496 999 m 786 961 q 778 915 786 934 q 759 885 771 897 q 733 869 748 874 q 703 864 718 864 q 648 882 669 864 q 627 940 627 901 q 649 1011 627 984 q 710 1038 671 1038 q 765 1018 743 1038 q 786 961 786 999 "},"¯":{"x_min":-7,"x_max":645,"ha":638,"o":"m 645 1054 l -7 1054 l -7 1137 l 645 1137 l 645 1054 "},"Z":{"x_min":-3,"x_max":979,"ha":925,"o":"m 964 921 l 279 84 l 565 84 q 624 92 596 84 q 674 118 651 101 q 716 165 697 136 q 746 235 734 193 l 761 286 l 862 286 l 795 0 l -3 0 l 9 69 l 694 907 l 452 907 q 351 878 389 907 q 295 786 313 850 l 271 706 l 172 706 l 239 992 l 979 992 l 964 921 "},"u":{"x_min":79.296875,"x_max":913.1875,"ha":935,"o":"m 537 119 q 538 133 537 125 q 539 150 538 141 q 541 166 540 159 q 544 180 542 174 l 532 180 q 472 101 502 136 q 410 40 443 66 q 338 1 376 15 q 250 -12 299 -12 q 174 0 205 -12 q 126 33 144 12 q 99 82 107 54 q 91 141 91 110 q 99 217 91 176 q 115 294 107 258 l 165 539 q 174 590 170 567 q 177 625 177 614 q 160 662 177 653 q 104 671 143 671 l 79 671 l 91 745 l 425 745 l 333 328 q 325 292 329 312 q 318 251 321 271 q 312 212 314 230 q 309 181 309 194 q 322 132 309 150 q 369 114 335 114 q 432 142 400 114 q 494 213 464 169 q 546 311 523 257 q 582 417 570 365 l 656 745 l 863 745 l 768 292 q 754 221 759 254 q 749 159 749 188 q 761 112 749 129 q 797 96 774 96 q 837 104 819 96 q 879 128 855 112 l 913 81 q 875 46 896 64 q 828 15 854 29 q 770 -5 801 2 q 700 -14 738 -14 q 622 -3 653 -14 q 572 25 591 7 q 545 67 553 43 q 537 119 537 91 "},"Ó":{"x_min":87,"x_max":1063,"ha":1100,"o":"m 87 369 q 103 509 87 435 q 153 653 120 582 q 236 788 186 724 q 351 900 285 852 q 498 978 416 949 q 678 1007 581 1007 q 825 984 755 1007 q 947 915 894 962 q 1031 796 1000 868 q 1063 625 1063 724 q 1047 488 1063 561 q 998 344 1031 416 q 918 208 966 273 q 804 93 869 143 q 656 13 738 43 q 474 -16 573 -16 q 321 8 392 -16 q 198 82 250 33 q 116 203 146 131 q 87 369 87 275 m 313 336 q 328 218 313 267 q 368 137 342 169 q 428 91 393 106 q 502 76 462 76 q 607 104 560 76 q 691 178 654 131 q 756 284 729 224 q 802 409 784 344 q 829 537 820 473 q 837 656 837 602 q 823 773 837 724 q 784 854 809 822 q 725 901 759 886 q 649 916 690 916 q 544 888 591 916 q 460 814 497 861 q 395 708 422 768 q 349 583 367 648 q 322 454 331 518 q 313 336 313 390 m 597 1089 q 638 1134 616 1108 q 682 1187 660 1160 q 725 1242 704 1215 q 762 1293 746 1269 l 980 1293 l 975 1278 q 946 1250 965 1266 q 903 1214 927 1233 q 851 1175 879 1195 q 795 1136 824 1155 q 739 1100 767 1117 q 687 1071 711 1083 l 593 1071 l 597 1089 "},"k":{"x_min":29,"x_max":881,"ha":829,"o":"m 297 276 l 237 0 l 29 0 l 212 863 q 216 882 214 872 q 219 900 218 891 q 221 914 220 908 q 222 923 222 920 q 218 953 222 942 q 205 971 214 965 q 182 979 196 977 q 148 981 168 981 l 119 981 l 132 1055 l 467 1055 l 395 716 q 373 618 383 661 q 355 537 364 575 q 336 459 346 498 q 315 375 327 421 l 530 571 q 557 597 547 586 q 573 617 567 609 q 581 632 579 626 q 583 644 583 639 q 566 667 583 659 q 518 675 549 675 l 532 745 l 881 745 l 867 675 q 766 646 819 675 q 646 557 713 618 l 535 454 l 639 227 q 682 149 661 179 q 722 102 703 119 q 756 79 740 85 q 784 73 771 73 l 789 73 l 774 0 l 703 0 q 612 7 652 0 q 541 30 572 14 q 489 70 511 46 q 453 130 467 95 l 371 324 l 297 276 "},"Ù":{"x_min":137.671875,"x_max":1153.0625,"ha":1038,"o":"m 523 84 q 630 102 586 84 q 702 153 673 121 q 749 230 731 185 q 778 327 767 274 l 885 829 q 888 853 887 841 q 890 871 890 865 q 883 895 890 886 q 862 910 875 905 q 830 917 849 915 q 790 918 811 918 l 772 918 l 787 992 l 1153 992 l 1137 918 l 1119 918 q 1076 915 1097 918 q 1037 903 1055 912 q 1007 877 1020 894 q 988 833 995 861 l 877 305 q 829 167 861 227 q 747 67 796 108 q 629 6 697 27 q 473 -14 561 -14 q 329 1 392 -14 q 224 48 267 17 q 159 124 181 79 q 137 226 137 169 q 139 253 137 237 q 142 287 140 269 q 147 320 144 304 q 152 349 149 337 l 254 823 q 262 871 262 861 q 255 895 262 886 q 234 910 247 905 q 202 917 221 915 q 162 918 184 918 l 144 918 l 160 992 l 640 992 l 625 918 l 607 918 q 562 915 583 918 q 523 904 541 912 q 493 879 505 895 q 474 836 480 863 l 369 347 q 363 319 366 334 q 358 289 360 305 q 354 256 356 273 q 352 226 352 240 q 396 120 352 156 q 523 84 439 84 m 688 1071 q 625 1115 659 1088 q 560 1172 591 1142 q 503 1230 529 1201 q 462 1278 477 1258 l 467 1293 l 671 1293 q 692 1238 679 1267 q 720 1182 705 1209 q 748 1129 734 1154 q 775 1089 763 1105 l 771 1071 l 688 1071 "},"€":{"x_min":30.65625,"x_max":850,"ha":777,"o":"m 479 89 q 542 98 514 89 q 592 123 569 108 q 633 159 615 139 q 666 202 651 179 q 683 180 675 194 q 692 144 692 167 q 675 91 692 119 q 625 40 658 64 q 541 1 591 17 q 422 -14 490 -14 q 299 4 356 -14 q 200 61 242 23 q 134 159 158 100 q 110 300 110 219 q 110 334 110 318 q 112 367 110 350 l 30 367 l 48 454 l 120 454 q 127 490 122 467 q 140 539 133 513 l 67 539 l 86 626 l 165 626 q 250 807 202 734 q 355 922 298 879 q 477 984 413 966 q 611 1003 542 1003 q 716 990 671 1003 q 791 957 761 978 q 835 910 820 937 q 850 852 850 882 q 802 758 850 792 q 665 724 754 724 q 661 793 665 759 q 647 854 658 827 q 620 898 637 881 q 575 915 602 915 q 519 901 547 915 q 465 855 491 888 q 413 765 438 821 q 368 626 389 710 l 624 626 l 605 539 l 344 539 q 332 490 337 514 q 326 454 327 465 l 530 454 l 512 367 l 315 367 q 313 331 313 350 q 312 296 312 311 q 355 144 312 198 q 479 89 398 89 "},"⅝":{"x_min":52,"x_max":1165,"ha":1167,"o":"m 311 0 l 193 0 l 897 992 l 1014 992 l 311 0 m 852 -10 q 759 1 800 -10 q 690 32 718 12 q 648 80 663 53 q 634 141 634 108 q 678 238 634 201 q 804 301 722 275 q 773 325 789 311 q 746 356 758 339 q 727 395 734 374 q 720 441 720 416 q 731 501 720 472 q 771 555 743 531 q 847 592 799 578 q 967 607 895 607 q 1047 598 1011 607 q 1109 574 1083 590 q 1150 536 1135 558 q 1165 484 1165 513 q 1152 425 1165 450 q 1117 382 1139 400 q 1068 351 1095 364 q 1010 326 1040 337 q 1093 263 1063 300 q 1123 177 1123 226 q 1106 99 1123 134 q 1055 40 1089 65 q 971 3 1021 16 q 852 -10 920 -10 m 864 51 q 945 76 916 51 q 975 144 975 100 q 949 209 975 179 q 870 261 922 240 q 835 240 852 252 q 804 213 818 228 q 782 178 791 197 q 774 134 774 158 q 780 103 774 118 q 798 76 786 88 q 826 58 809 65 q 864 51 842 51 m 937 362 q 969 383 955 372 q 993 406 983 394 q 1007 434 1002 419 q 1013 470 1013 450 q 1009 497 1013 484 q 998 521 1005 511 q 979 539 990 532 q 952 545 967 545 q 919 539 934 545 q 894 520 905 532 q 877 491 883 508 q 871 457 871 475 q 890 399 871 423 q 937 362 909 375 m 259 461 q 301 468 281 461 q 335 491 320 475 q 358 532 349 507 q 367 595 367 557 q 345 667 367 639 q 274 694 324 694 q 204 686 235 694 q 154 669 174 678 l 102 679 l 198 992 l 546 992 l 516 821 l 459 821 l 459 846 q 458 861 459 855 q 452 872 457 867 q 439 878 448 876 q 416 880 431 880 l 235 880 l 188 745 q 236 757 207 751 q 309 764 265 764 q 401 753 363 764 q 464 721 439 742 q 500 671 489 700 q 512 604 512 641 q 493 516 512 555 q 441 448 475 476 q 358 404 407 420 q 249 389 310 389 q 164 398 201 389 q 102 423 127 407 q 64 461 77 439 q 52 509 52 483 q 57 538 52 524 q 74 563 62 553 q 105 581 85 574 q 153 587 124 587 q 158 547 153 569 q 175 506 163 525 q 208 474 188 487 q 259 461 229 461 "},"¢":{"x_min":93,"x_max":799,"ha":777,"o":"m 469 219 q 541 229 509 219 q 598 255 573 239 q 643 292 623 272 q 678 333 663 312 q 694 309 687 324 q 701 272 701 293 q 685 219 701 246 q 637 169 669 192 q 554 131 604 146 q 436 114 504 116 l 412 0 l 326 0 l 351 118 q 248 147 296 126 q 166 204 201 169 q 112 288 132 239 q 93 401 93 338 q 104 502 93 450 q 140 606 116 555 q 199 705 164 658 q 282 790 235 752 q 386 854 328 828 q 514 887 444 879 l 536 992 l 622 992 l 600 890 q 690 873 652 886 q 751 841 727 860 q 787 796 776 821 q 799 744 799 771 q 789 701 799 722 q 759 664 780 681 q 707 637 739 647 q 629 627 674 627 q 616 719 629 677 q 578 784 603 760 l 458 219 l 469 219 m 305 399 q 323 302 305 342 q 377 241 341 262 l 496 805 q 441 774 466 798 q 394 717 415 751 q 357 642 373 683 q 329 558 340 600 q 311 473 317 515 q 305 399 305 432 "},"ß":{"x_min":-202.609375,"x_max":917,"ha":965,"o":"m 607 990 q 541 977 569 990 q 490 939 512 963 q 454 878 469 914 q 432 797 440 843 l 258 -11 q 221 -123 245 -74 q 168 -208 198 -172 q 104 -268 139 -244 q 33 -307 70 -292 q -40 -327 -3 -321 q -113 -334 -78 -334 q -164 -329 -140 -334 q -202 -319 -189 -325 l -182 -243 q -155 -249 -171 -246 q -117 -251 -139 -251 q -62 -238 -87 -251 q -18 -196 -38 -225 q 17 -122 1 -167 q 49 -12 34 -76 l 189 649 l 76 650 l 94 745 l 209 745 l 221 787 q 276 920 239 866 q 365 1007 313 974 q 480 1056 416 1041 q 616 1071 544 1071 q 748 1055 691 1071 q 842 1011 804 1039 q 898 943 879 983 q 917 854 917 903 q 914 814 917 837 q 908 769 912 792 q 901 724 905 746 q 891 682 896 701 l 812 682 q 741 674 771 682 q 692 651 711 666 q 663 616 672 636 q 654 571 654 596 q 660 535 654 551 q 679 503 666 518 q 716 470 693 487 q 775 433 740 454 q 871 345 842 394 q 900 229 900 296 q 877 129 900 174 q 815 52 855 84 q 718 3 775 20 q 592 -14 662 -14 q 497 -3 540 -14 q 424 26 455 6 q 377 73 394 45 q 361 137 361 101 q 371 185 361 164 q 400 221 381 207 q 445 243 419 236 q 504 251 471 251 q 509 186 504 218 q 527 129 514 154 q 560 87 540 103 q 608 71 580 71 q 678 102 654 71 q 702 182 702 132 q 698 223 702 204 q 682 261 694 243 q 650 297 671 279 q 597 334 630 315 q 496 423 532 372 q 460 543 460 475 q 481 639 460 599 q 537 706 502 680 q 616 744 572 732 q 706 757 660 757 q 717 814 713 788 q 721 864 721 841 q 693 955 721 921 q 607 990 665 990 "},"é":{"x_min":56,"x_max":813,"ha":743,"o":"m 419 91 q 483 100 453 91 q 540 126 514 110 q 586 162 566 142 q 622 203 607 182 q 635 177 630 193 q 640 144 640 161 q 623 91 640 118 q 573 39 607 63 q 488 1 540 16 q 365 -14 436 -14 q 245 3 301 -14 q 147 56 189 21 q 80 146 104 92 q 56 272 56 200 q 69 380 56 324 q 109 491 83 437 q 176 593 136 544 q 268 678 216 642 q 385 736 320 715 q 526 758 449 758 q 681 714 626 758 q 736 594 736 671 q 704 486 736 538 q 618 396 673 435 q 487 334 563 357 q 322 311 411 311 q 297 311 310 311 q 271 312 283 311 q 268 285 268 299 q 268 259 268 271 q 305 134 268 178 q 419 91 343 91 m 468 674 q 403 649 434 674 q 348 583 373 623 q 306 491 324 542 q 281 392 289 441 l 293 392 q 389 405 344 392 q 466 444 433 419 q 517 505 499 469 q 536 584 536 540 q 518 650 536 627 q 468 674 500 674 m 430 860 q 471 905 449 879 q 515 958 493 931 q 558 1013 537 986 q 595 1064 579 1040 l 813 1064 l 808 1049 q 779 1021 798 1037 q 736 985 760 1004 q 684 946 712 966 q 628 907 657 926 q 572 871 600 888 q 520 842 544 854 l 426 842 l 430 860 "},"s":{"x_min":24,"x_max":676,"ha":714,"o":"m 310 68 q 362 75 338 68 q 404 96 387 82 q 432 128 422 109 q 442 173 442 148 q 433 215 442 196 q 405 249 424 233 q 356 281 386 265 q 286 316 327 296 q 212 357 245 335 q 157 405 180 378 q 121 464 134 431 q 109 537 109 496 q 130 629 109 588 q 193 698 152 669 q 291 742 233 727 q 422 758 349 758 q 540 747 492 758 q 619 718 589 736 q 662 676 649 700 q 676 627 676 652 q 633 547 676 572 q 516 521 590 521 q 511 577 516 549 q 492 629 505 606 q 459 666 480 652 q 409 680 439 680 q 361 672 382 680 q 324 651 340 665 q 301 620 309 638 q 293 583 293 603 q 302 542 293 559 q 331 511 311 526 q 380 481 350 496 q 450 448 409 466 q 527 405 495 428 q 581 356 560 382 q 613 297 603 329 q 624 227 624 266 q 602 126 624 171 q 538 50 581 81 q 432 2 495 19 q 286 -14 369 -14 q 178 -3 226 -14 q 95 26 129 6 q 42 74 61 45 q 24 138 24 102 q 36 193 24 171 q 70 229 49 215 q 117 250 91 243 q 172 256 144 256 q 179 185 172 219 q 203 125 187 151 q 246 83 219 99 q 310 68 272 68 "},"B":{"x_min":-31.734375,"x_max":932,"ha":933,"o":"m -16 73 l 1 73 q 43 76 23 73 q 81 88 64 79 q 111 113 98 97 q 129 156 123 129 l 270 825 q 276 852 274 839 q 279 871 279 865 q 272 895 279 886 q 251 910 264 905 q 219 917 238 915 q 179 918 200 918 l 161 918 l 176 992 l 607 992 q 850 939 768 992 q 932 783 932 886 q 914 682 932 726 q 866 607 897 639 q 795 555 836 576 q 705 524 753 535 l 704 519 q 772 496 741 512 q 826 454 804 479 q 861 394 848 429 q 874 316 874 359 q 848 181 874 240 q 772 82 822 122 q 647 21 722 42 q 473 0 572 0 l -31 0 l -16 73 m 331 84 l 428 84 q 528 100 487 84 q 595 146 569 115 q 632 222 621 176 q 644 326 644 267 q 610 438 644 401 q 502 475 575 475 l 415 475 l 331 84 m 433 562 l 511 562 q 653 613 609 562 q 697 759 697 664 q 664 870 697 833 q 567 907 630 907 l 505 907 l 433 562 "},"?":{"x_min":140,"x_max":761,"ha":743,"o":"m 761 775 q 734 664 761 714 q 661 573 708 614 q 552 499 615 532 q 414 439 488 466 l 365 316 l 276 316 l 273 488 q 384 537 334 510 q 470 598 434 564 q 525 677 505 633 q 544 777 544 720 q 536 839 544 812 q 515 883 529 865 q 483 911 502 902 q 444 921 465 921 q 388 904 411 921 q 348 859 364 887 q 324 794 333 831 q 310 718 315 757 q 140 825 140 718 q 162 895 140 862 q 226 953 184 928 q 327 991 268 977 q 461 1006 387 1006 q 585 992 530 1006 q 680 950 641 978 q 739 878 718 921 q 761 775 761 834 m 408 113 q 397 54 408 79 q 369 16 387 30 q 330 -4 352 1 q 287 -11 309 -11 q 206 13 237 -11 q 175 88 175 37 q 183 139 175 116 q 207 179 191 162 q 245 204 223 195 q 295 213 267 213 q 339 206 319 213 q 375 188 360 200 q 399 157 391 176 q 408 113 408 138 "},"H":{"x_min":-31.734375,"x_max":1236.453125,"ha":1137,"o":"m 547 0 l 562 73 l 580 73 q 624 76 602 73 q 662 88 645 79 q 692 113 680 97 q 711 158 705 130 l 778 475 l 415 475 l 347 152 q 343 135 345 145 q 341 120 341 126 q 349 96 341 105 q 370 82 356 87 q 402 75 384 77 q 443 73 421 73 l 461 73 l 445 0 l -31 0 l -16 73 l 1 73 q 43 76 23 73 q 81 88 64 79 q 111 113 98 97 q 129 156 123 129 l 270 823 q 279 871 279 859 q 272 895 279 886 q 251 910 264 905 q 219 917 238 915 q 179 918 200 918 l 161 918 l 176 992 l 655 992 l 640 918 l 622 918 q 578 915 599 918 q 539 903 556 912 q 508 878 521 895 q 490 833 495 861 l 433 560 l 796 560 l 854 829 q 859 854 858 844 q 861 871 861 865 q 853 895 861 886 q 832 910 845 905 q 800 917 818 915 q 759 918 781 918 l 742 918 l 756 992 l 1236 992 l 1220 918 l 1203 918 q 1159 915 1180 918 q 1121 903 1138 912 q 1090 878 1103 895 q 1072 833 1078 861 l 929 152 q 925 135 927 145 q 923 120 923 126 q 931 96 923 105 q 951 82 938 87 q 983 75 965 77 q 1023 73 1001 73 l 1041 73 l 1026 0 l 547 0 "},"î":{"x_min":43,"x_max":540,"ha":492,"o":"m 421 745 l 324 292 q 311 221 316 254 q 305 159 305 188 q 318 112 305 129 q 353 96 330 96 q 393 104 375 96 q 436 128 412 112 l 469 81 q 431 46 452 64 q 384 15 410 29 q 326 -5 358 2 q 256 -14 294 -14 q 134 23 176 -14 q 91 128 91 61 q 96 199 91 158 q 113 294 102 241 l 168 552 q 171 571 170 561 q 174 589 173 580 q 176 603 176 597 q 177 612 177 609 q 173 643 177 631 q 160 660 169 654 q 137 669 151 667 q 104 671 124 671 l 79 671 l 91 745 l 421 745 m 47 860 q 93 905 67 879 q 146 957 118 930 q 198 1012 173 984 q 244 1064 224 1039 l 431 1064 q 453 1015 440 1042 q 482 960 467 988 q 512 906 497 932 q 540 860 527 879 l 535 842 l 448 842 q 419 869 436 853 q 386 901 403 884 q 353 935 369 918 q 324 966 336 952 q 283 935 306 952 q 236 901 259 918 q 190 869 212 884 q 150 842 167 853 l 43 842 l 47 860 "},"c":{"x_min":56,"x_max":733,"ha":733,"o":"m 421 91 q 487 100 457 91 q 540 127 516 110 q 582 163 564 143 q 615 205 600 184 q 629 180 623 196 q 636 144 636 165 q 620 88 636 116 q 570 37 604 60 q 485 0 537 15 q 362 -14 434 -14 q 244 3 299 -14 q 146 57 188 21 q 80 146 104 93 q 56 272 56 200 q 68 380 56 324 q 107 490 81 436 q 171 592 133 544 q 260 677 209 641 q 374 736 311 714 q 512 758 437 758 q 612 746 570 758 q 680 714 653 734 q 720 667 707 694 q 733 610 733 640 q 723 568 733 589 q 694 531 714 547 q 641 504 674 514 q 563 494 609 494 q 557 563 563 530 q 537 621 550 596 q 506 660 524 646 q 462 674 487 674 q 406 654 432 674 q 358 601 380 634 q 320 526 337 568 q 292 438 304 483 q 274 349 280 393 q 268 270 268 306 q 306 138 268 185 q 421 91 345 91 "},"¶":{"x_min":89,"x_max":848.578125,"ha":871,"o":"m 616 969 l 499 969 l 499 -154 l 267 -154 l 267 -80 l 286 -80 q 330 -77 309 -80 q 366 -64 351 -74 q 390 -33 381 -53 q 400 18 400 -14 l 400 536 l 301 536 q 199 558 240 536 q 134 617 158 580 q 99 704 110 655 q 89 808 89 753 q 100 909 89 863 q 137 987 112 954 q 204 1037 163 1019 q 304 1055 245 1055 l 848 1055 l 848 981 l 830 981 q 786 978 807 981 q 750 964 765 974 q 726 934 735 953 q 717 881 717 914 l 717 18 q 726 -33 717 -14 q 750 -64 735 -53 q 786 -77 765 -74 q 830 -80 807 -80 l 848 -80 l 848 -154 l 616 -154 l 616 969 "},"⅜":{"x_min":34,"x_max":1164,"ha":1167,"o":"m 238 389 q 85 419 137 389 q 34 501 34 449 q 41 535 34 520 q 63 559 49 549 q 96 575 77 569 q 137 580 115 580 q 143 539 137 561 q 162 501 149 518 q 198 472 176 483 q 250 461 219 461 q 298 467 276 461 q 336 487 320 473 q 362 523 352 501 q 371 575 371 544 q 364 611 371 594 q 341 642 356 629 q 301 663 326 655 q 245 670 277 670 l 199 670 l 209 736 l 257 736 q 313 745 286 736 q 359 773 339 755 q 391 819 379 792 q 403 880 403 845 q 390 925 403 908 q 350 943 378 943 q 311 933 328 943 q 283 906 294 923 q 264 868 271 890 q 253 822 256 846 q 171 837 202 822 q 141 886 141 852 q 155 932 141 911 q 198 970 170 954 q 267 996 227 987 q 359 1006 308 1006 q 445 996 408 1006 q 505 969 481 986 q 540 928 528 951 q 552 879 552 905 q 539 815 552 842 q 502 768 526 788 q 447 736 479 748 q 376 715 414 723 l 375 708 q 477 669 439 700 q 516 580 516 638 q 494 498 516 534 q 437 438 473 462 q 348 401 400 414 q 238 389 297 389 m 316 0 l 198 0 l 902 992 l 1019 992 l 316 0 m 851 -10 q 758 1 799 -10 q 689 32 717 12 q 647 80 662 53 q 633 141 633 108 q 677 238 633 201 q 803 301 721 275 q 772 325 788 311 q 745 356 757 339 q 726 395 733 374 q 719 441 719 416 q 730 501 719 472 q 770 555 742 531 q 846 592 798 578 q 966 607 894 607 q 1046 598 1010 607 q 1108 574 1082 590 q 1149 536 1134 558 q 1164 484 1164 513 q 1151 425 1164 450 q 1116 382 1138 400 q 1067 351 1094 364 q 1009 326 1039 337 q 1092 263 1062 300 q 1122 177 1122 226 q 1105 99 1122 134 q 1054 40 1088 65 q 970 3 1020 16 q 851 -10 919 -10 m 863 51 q 944 76 915 51 q 974 144 974 100 q 948 209 974 179 q 869 261 921 240 q 834 240 851 252 q 803 213 817 228 q 781 178 790 197 q 773 134 773 158 q 779 103 773 118 q 797 76 785 88 q 825 58 808 65 q 863 51 841 51 m 936 362 q 968 383 954 372 q 992 406 982 394 q 1006 434 1001 419 q 1012 470 1012 450 q 1008 497 1012 484 q 997 521 1004 511 q 978 539 989 532 q 951 545 966 545 q 918 539 933 545 q 893 520 904 532 q 876 491 882 508 q 870 457 870 475 q 889 399 870 423 q 936 362 908 375 "},"¥":{"x_min":47.4375,"x_max":880.296875,"ha":749,"o":"m 516 474 l 694 474 l 677 392 l 483 392 l 465 311 l 660 311 l 643 228 l 448 228 l 433 162 q 428 136 429 147 q 426 120 426 126 q 434 96 426 105 q 454 82 441 87 q 486 75 467 77 q 526 73 504 73 l 559 73 l 544 0 l 47 0 l 62 73 l 99 73 q 141 76 121 73 q 179 89 162 80 q 208 114 195 98 q 226 157 220 130 l 241 228 l 47 228 l 63 311 l 259 311 l 276 392 l 82 392 l 98 474 l 282 474 l 197 844 q 187 879 192 865 q 175 902 183 893 q 154 915 167 911 q 122 918 142 918 l 104 918 l 119 992 l 498 992 l 483 918 l 444 918 q 399 907 413 918 q 385 878 385 897 q 391 840 385 865 q 402 782 396 815 l 427 650 q 442 565 436 606 q 448 496 448 524 q 470 541 456 515 q 502 598 484 568 l 609 778 q 638 830 624 803 q 651 880 651 857 q 636 909 651 899 q 597 918 620 918 l 569 918 l 585 992 l 880 992 l 865 918 l 861 918 q 799 892 829 918 q 733 810 769 865 l 516 474 "},"Ὅ":{"x_min":-199.40625,"x_max":1081,"ha":1118,"o":"m 105 369 q 121 509 105 435 q 171 653 138 582 q 254 788 204 724 q 369 900 303 852 q 516 978 434 949 q 696 1007 599 1007 q 843 984 773 1007 q 965 915 912 962 q 1049 796 1018 868 q 1081 625 1081 724 q 1065 488 1081 561 q 1016 344 1049 416 q 936 208 984 273 q 822 93 887 143 q 674 13 756 43 q 492 -16 591 -16 q 339 8 410 -16 q 216 82 268 33 q 134 203 164 131 q 105 369 105 275 m 331 336 q 346 218 331 267 q 386 137 360 169 q 446 91 411 106 q 520 76 480 76 q 625 104 578 76 q 709 178 672 131 q 774 284 747 224 q 820 409 802 344 q 847 537 838 473 q 855 656 855 602 q 841 773 855 724 q 802 854 827 822 q 743 901 777 886 q 667 916 708 916 q 562 888 609 916 q 478 814 515 861 q 413 708 440 768 q 367 583 385 648 q 340 454 349 518 q 331 336 331 390 m 7 947 q -66 926 -41 939 q -94 893 -92 913 q -82 874 -94 881 q -56 860 -70 867 q -30 843 -42 853 q -19 815 -19 833 q -39 778 -19 792 q -92 764 -59 764 q -133 769 -114 764 q -167 787 -153 775 q -190 816 -182 799 q -199 859 -199 834 q -187 907 -199 884 q -150 948 -175 930 q -84 978 -124 966 q 12 992 -44 990 l 7 947 m 30 787 q 52 834 40 808 q 75 887 63 860 q 96 942 86 915 q 114 992 106 968 l 274 992 l 272 978 q 240 929 259 956 q 199 874 221 902 q 154 819 177 846 q 110 770 131 792 l 28 770 l 30 787 "},"(":{"x_min":58,"x_max":640,"ha":555,"o":"m 271 193 q 277 108 271 150 q 298 26 283 65 q 335 -46 312 -12 q 393 -104 359 -79 l 374 -193 q 230 -117 290 -163 q 132 -13 170 -71 q 75 114 93 45 q 58 258 58 183 q 73 432 58 344 q 121 602 89 519 q 201 760 153 684 q 314 897 249 835 q 460 1003 379 958 q 640 1072 541 1048 l 626 984 q 533 918 574 956 q 460 839 492 881 q 404 752 428 797 q 363 661 380 706 q 334 575 346 617 q 313 497 322 533 q 279 317 287 392 q 271 193 271 242 "},"U":{"x_min":137.671875,"x_max":1153.0625,"ha":1038,"o":"m 523 84 q 630 102 586 84 q 702 153 673 121 q 749 230 731 185 q 778 327 767 274 l 885 829 q 888 853 887 841 q 890 871 890 865 q 883 895 890 886 q 862 910 875 905 q 830 917 849 915 q 790 918 811 918 l 772 918 l 787 992 l 1153 992 l 1137 918 l 1119 918 q 1076 915 1097 918 q 1037 903 1055 912 q 1007 877 1020 894 q 988 833 995 861 l 877 305 q 829 167 861 227 q 747 67 796 108 q 629 6 697 27 q 473 -14 561 -14 q 329 1 392 -14 q 224 48 267 17 q 159 124 181 79 q 137 226 137 169 q 139 253 137 237 q 142 287 140 269 q 147 320 144 304 q 152 349 149 337 l 254 823 q 262 871 262 861 q 255 895 262 886 q 234 910 247 905 q 202 917 221 915 q 162 918 184 918 l 144 918 l 160 992 l 640 992 l 625 918 l 607 918 q 562 915 583 918 q 523 904 541 912 q 493 879 505 895 q 474 836 480 863 l 369 347 q 363 319 366 334 q 358 289 360 305 q 354 256 356 273 q 352 226 352 240 q 396 120 352 156 q 523 84 439 84 "},"◊":{"x_min":60,"x_max":746,"ha":761,"o":"m 434 0 l 371 0 l 60 494 l 371 992 l 434 992 l 746 496 l 434 0 m 404 864 l 177 496 l 404 122 l 628 496 l 404 864 "},"Ñ":{"x_min":-31.734375,"x_max":1207.53125,"ha":1095,"o":"m 742 0 l 365 786 l 234 164 q 229 137 231 148 q 228 120 228 126 q 235 96 228 105 q 256 82 242 87 q 288 75 270 77 q 329 73 307 73 l 333 73 l 318 0 l -31 0 l -16 73 l 1 73 q 43 76 23 73 q 81 88 64 79 q 111 113 98 97 q 129 156 123 129 l 270 823 q 279 871 279 859 q 272 895 279 886 q 251 910 264 905 q 219 917 238 915 q 179 918 200 918 l 161 918 l 176 992 l 485 992 l 823 279 l 940 828 q 947 871 947 860 q 939 895 947 886 q 918 910 932 905 q 886 917 905 915 q 846 918 867 918 l 841 918 l 857 992 l 1207 992 l 1191 918 l 1174 918 q 1131 915 1152 918 q 1094 903 1111 912 q 1064 878 1077 895 q 1046 835 1052 862 l 869 0 l 742 0 m 845 1203 q 876 1209 863 1203 q 898 1225 889 1215 q 913 1249 907 1236 q 922 1277 919 1262 l 1006 1277 q 983 1207 998 1243 q 945 1140 968 1170 q 892 1090 922 1110 q 824 1071 862 1071 q 757 1084 787 1071 q 702 1114 727 1098 q 655 1145 677 1131 q 611 1158 633 1158 q 584 1152 597 1158 q 561 1136 571 1146 q 544 1112 551 1125 q 534 1085 537 1099 l 452 1085 q 474 1152 458 1116 q 514 1219 489 1189 q 570 1270 538 1250 q 639 1291 601 1291 q 704 1277 675 1291 q 757 1247 733 1263 q 802 1216 781 1230 q 845 1203 824 1203 "},"F":{"x_min":-31.734375,"x_max":940,"ha":863,"o":"m 348 164 q 343 137 345 148 q 341 120 341 126 q 349 96 341 105 q 370 82 356 87 q 402 75 384 77 q 443 73 421 73 l 461 73 l 445 0 l -31 0 l -16 73 l 1 73 q 43 76 23 73 q 81 88 64 79 q 111 113 98 97 q 129 156 123 129 l 270 823 q 279 871 279 859 q 272 895 279 886 q 251 910 264 905 q 219 917 238 915 q 179 918 200 918 l 161 918 l 176 992 l 940 992 l 891 733 l 792 733 q 795 757 794 744 q 797 782 796 770 q 799 802 798 794 q 800 813 800 811 q 794 850 800 833 q 777 880 789 867 q 745 900 765 892 q 695 907 725 907 l 507 907 l 426 528 l 756 528 l 739 445 l 408 445 l 348 164 "},"­":{"x_min":14,"x_max":407,"ha":431,"o":"m 14 306 l 46 452 l 407 452 l 375 306 l 14 306 "},":":{"x_min":61,"x_max":416,"ha":497,"o":"m 294 113 q 283 54 294 79 q 255 16 273 30 q 216 -4 238 1 q 173 -11 195 -11 q 92 13 123 -11 q 61 88 61 37 q 69 139 61 116 q 93 179 77 162 q 131 204 109 195 q 181 213 153 213 q 225 206 205 213 q 261 188 246 200 q 285 157 277 176 q 294 113 294 138 m 416 651 q 405 592 416 616 q 377 553 395 568 q 338 532 360 538 q 295 526 317 526 q 214 550 245 526 q 183 626 183 574 q 191 677 183 654 q 215 716 199 700 q 254 741 231 732 q 304 751 276 751 q 348 744 327 751 q 384 726 369 738 q 407 695 399 714 q 416 651 416 676 "},"Û":{"x_min":137.671875,"x_max":1153.0625,"ha":1038,"o":"m 523 84 q 630 102 586 84 q 702 153 673 121 q 749 230 731 185 q 778 327 767 274 l 885 829 q 888 853 887 841 q 890 871 890 865 q 883 895 890 886 q 862 910 875 905 q 830 917 849 915 q 790 918 811 918 l 772 918 l 787 992 l 1153 992 l 1137 918 l 1119 918 q 1076 915 1097 918 q 1037 903 1055 912 q 1007 877 1020 894 q 988 833 995 861 l 877 305 q 829 167 861 227 q 747 67 796 108 q 629 6 697 27 q 473 -14 561 -14 q 329 1 392 -14 q 224 48 267 17 q 159 124 181 79 q 137 226 137 169 q 139 253 137 237 q 142 287 140 269 q 147 320 144 304 q 152 349 149 337 l 254 823 q 262 871 262 861 q 255 895 262 886 q 234 910 247 905 q 202 917 221 915 q 162 918 184 918 l 144 918 l 160 992 l 640 992 l 625 918 l 607 918 q 562 915 583 918 q 523 904 541 912 q 493 879 505 895 q 474 836 480 863 l 369 347 q 363 319 366 334 q 358 289 360 305 q 354 256 356 273 q 352 226 352 240 q 396 120 352 156 q 523 84 439 84 m 473 1089 q 519 1134 493 1108 q 572 1186 544 1159 q 624 1241 599 1213 q 670 1293 650 1268 l 857 1293 q 879 1244 866 1271 q 908 1189 893 1217 q 938 1135 923 1161 q 966 1089 953 1108 l 961 1071 l 874 1071 q 845 1098 862 1082 q 812 1130 829 1113 q 779 1164 795 1147 q 750 1195 762 1181 q 709 1164 732 1181 q 662 1130 685 1147 q 616 1098 638 1113 q 576 1071 593 1082 l 469 1071 l 473 1089 "},"*":{"x_min":176,"x_max":786,"ha":859,"o":"m 199 897 l 290 1022 l 460 832 l 463 1063 l 616 1031 l 520 822 l 754 921 l 786 772 l 563 763 l 763 663 l 673 543 l 499 727 l 501 497 l 349 528 l 441 742 l 209 640 l 176 787 l 399 799 l 199 897 "},"°":{"x_min":153,"x_max":574,"ha":555,"o":"m 153 780 q 169 862 153 824 q 214 930 185 901 q 280 975 242 958 q 363 992 319 992 q 445 975 406 992 q 512 930 483 958 q 557 862 540 901 q 574 780 574 824 q 557 698 574 736 q 512 632 540 660 q 445 587 483 603 q 363 571 406 571 q 280 587 319 571 q 214 632 242 603 q 169 698 185 660 q 153 780 153 736 m 249 780 q 258 736 249 757 q 282 699 266 715 q 318 674 298 683 q 363 665 339 665 q 408 674 387 665 q 445 699 429 683 q 469 736 460 715 q 478 780 478 757 q 469 826 478 805 q 445 863 460 848 q 408 888 429 879 q 363 897 387 897 q 318 888 339 897 q 282 863 298 879 q 258 826 266 848 q 249 780 249 805 "},"V":{"x_min":118.203125,"x_max":1108.171875,"ha":970,"o":"m 447 863 q 448 838 447 851 q 450 815 449 825 l 494 449 q 499 392 497 424 q 503 327 501 360 q 504 264 504 294 q 505 216 505 235 q 522 256 513 235 q 540 297 531 277 q 556 333 548 316 q 569 360 563 350 l 819 810 q 838 851 832 833 q 844 884 844 869 q 823 911 844 904 q 763 918 803 918 l 731 918 l 746 992 l 1108 992 l 1093 918 l 1060 918 q 1025 915 1039 918 q 997 902 1010 911 q 971 873 984 892 q 942 825 958 855 l 479 0 l 340 0 l 224 851 q 212 885 220 872 q 193 906 205 899 q 168 916 182 914 q 136 918 153 918 l 118 918 l 133 992 l 591 992 l 576 918 l 544 918 q 473 907 500 918 q 447 863 447 896 "},"å":{"x_min":56,"x_max":876.578125,"ha":924,"o":"m 657 -14 q 558 14 595 -14 q 521 96 521 42 q 523 138 521 118 q 530 186 525 159 l 521 186 q 469 100 495 138 q 413 37 444 63 q 343 0 382 12 q 254 -14 305 -14 q 167 5 205 -14 q 105 58 130 24 q 68 138 81 92 q 56 239 56 185 q 68 353 56 293 q 106 470 81 412 q 168 580 131 528 q 253 671 205 632 q 361 734 302 711 q 492 758 421 758 q 547 753 519 758 q 601 742 575 749 q 649 727 627 735 q 688 709 672 718 l 761 743 l 835 743 l 743 309 q 736 279 740 298 q 729 238 732 260 q 722 197 725 217 q 719 163 719 177 q 733 112 719 129 q 768 95 747 95 q 806 103 788 95 q 846 124 824 112 l 876 68 q 836 40 858 55 q 786 13 814 26 q 727 -6 759 1 q 657 -14 694 -14 m 266 238 q 272 171 266 198 q 288 127 278 144 q 312 103 298 110 q 342 96 325 96 q 405 123 372 96 q 466 192 437 149 q 517 289 494 235 q 551 399 540 344 l 600 630 q 562 659 586 650 q 511 669 538 669 q 437 648 471 669 q 376 591 403 627 q 328 511 349 556 q 294 418 308 466 q 273 323 280 370 q 266 238 266 276 m 712 970 q 699 905 712 933 q 663 857 686 877 q 610 828 640 838 q 545 819 579 819 q 479 828 510 819 q 426 857 449 838 q 390 905 403 877 q 378 970 378 933 q 390 1035 378 1007 q 426 1083 403 1064 q 479 1112 449 1102 q 545 1122 510 1122 q 610 1112 579 1122 q 663 1083 640 1102 q 699 1035 686 1064 q 712 970 712 1007 m 627 970 q 620 1005 627 991 q 602 1028 613 1018 q 576 1041 591 1037 q 545 1045 561 1045 q 513 1041 528 1045 q 486 1028 498 1037 q 469 1005 475 1018 q 462 970 462 991 q 469 936 462 950 q 486 912 475 922 q 513 899 498 903 q 545 895 528 895 q 576 899 561 895 q 602 912 591 903 q 620 936 613 922 q 627 970 627 950 "}," ":{"x_min":0,"x_max":0,"ha":361},"0":{"x_min":52,"x_max":784,"ha":777,"o":"m 52 320 q 63 471 52 392 q 99 626 75 549 q 160 771 123 702 q 247 893 197 840 q 360 976 296 945 q 500 1007 423 1007 q 611 988 560 1007 q 701 930 663 969 q 761 831 739 891 q 784 688 784 771 q 772 539 784 618 q 737 381 760 459 q 678 230 714 302 q 593 104 642 159 q 480 16 543 49 q 341 -16 417 -16 q 223 5 276 -16 q 132 70 170 27 q 73 175 94 112 q 52 320 52 238 m 241 260 q 271 123 241 167 q 349 78 300 78 q 424 111 389 78 q 486 197 459 143 q 536 319 514 250 q 571 460 557 387 q 593 604 585 533 q 600 734 600 675 q 572 870 600 825 q 493 914 544 914 q 420 882 454 914 q 358 797 386 850 q 309 675 330 744 q 272 534 287 607 q 249 391 257 462 q 241 260 241 319 "},"¾":{"x_min":38,"x_max":1124.734375,"ha":1167,"o":"m 349 0 l 231 0 l 935 992 l 1052 992 l 349 0 m 1000 163 l 994 138 q 990 112 991 123 q 989 96 989 100 q 993 78 989 85 q 1003 67 996 71 q 1019 63 1010 64 q 1037 62 1028 62 l 1065 62 l 1053 1 l 733 1 l 745 62 l 785 62 q 807 63 796 62 q 826 70 817 65 q 842 86 836 76 q 853 114 849 97 l 862 163 l 600 163 l 611 218 l 969 601 l 1093 601 l 1016 237 l 1124 237 l 1108 163 l 1000 163 m 911 392 q 922 435 915 413 q 937 482 930 456 q 921 459 930 470 q 908 443 912 449 l 713 237 l 879 237 l 911 392 m 242 389 q 89 419 141 389 q 38 501 38 449 q 45 535 38 520 q 67 559 53 549 q 100 575 81 569 q 141 580 119 580 q 147 539 141 561 q 166 501 153 518 q 202 472 180 483 q 254 461 223 461 q 302 467 280 461 q 340 487 324 473 q 366 523 356 501 q 375 575 375 544 q 368 611 375 594 q 345 642 360 629 q 305 663 330 655 q 249 670 281 670 l 203 670 l 213 736 l 261 736 q 317 745 290 736 q 363 773 343 755 q 395 819 383 792 q 407 880 407 845 q 394 925 407 908 q 354 943 382 943 q 315 933 332 943 q 287 906 298 923 q 268 868 275 890 q 257 822 260 846 q 175 837 206 822 q 145 886 145 852 q 159 932 145 911 q 202 970 174 954 q 271 996 231 987 q 363 1006 312 1006 q 449 996 412 1006 q 509 969 485 986 q 544 928 532 951 q 556 879 556 905 q 543 815 556 842 q 506 768 530 788 q 451 736 483 748 q 380 715 418 723 l 379 708 q 481 669 443 700 q 520 580 520 638 q 498 498 520 534 q 441 438 477 462 q 352 401 404 414 q 242 389 301 389 "},"@":{"x_min":60,"x_max":1214,"ha":1279,"o":"m 1214 545 q 1188 360 1214 441 q 1123 222 1163 278 q 1031 137 1082 166 q 927 108 980 108 q 823 138 866 108 q 756 238 779 168 l 748 238 q 716 187 734 211 q 674 145 697 163 q 622 118 651 128 q 556 108 593 108 q 473 122 512 108 q 404 165 433 136 q 356 239 374 194 q 339 345 339 284 q 347 425 339 382 q 375 512 356 469 q 424 595 394 555 q 495 666 454 636 q 591 716 537 697 q 712 735 644 735 q 795 722 760 735 q 851 693 829 710 l 909 723 l 943 723 l 885 375 q 881 354 883 367 q 878 328 879 341 q 875 302 876 314 q 874 281 874 289 q 880 234 874 253 q 896 206 887 216 q 918 191 906 195 q 942 188 930 188 q 997 211 969 188 q 1049 278 1026 234 q 1086 388 1072 322 q 1101 539 1101 454 q 1072 706 1101 634 q 992 825 1043 777 q 869 897 940 873 q 715 921 799 921 q 585 903 649 921 q 463 849 521 884 q 357 763 405 814 q 272 646 308 711 q 216 501 236 580 q 196 330 196 422 q 232 121 196 207 q 332 -20 269 34 q 478 -100 394 -75 q 655 -125 562 -125 q 765 -115 712 -125 q 867 -89 819 -105 q 956 -51 915 -72 q 1030 -8 998 -30 l 1064 -61 q 980 -114 1027 -89 q 879 -156 933 -138 q 763 -186 825 -175 q 636 -197 702 -197 q 483 -182 556 -197 q 346 -137 410 -167 q 229 -63 282 -108 q 138 40 176 -19 q 80 174 101 100 q 60 339 60 249 q 82 517 60 432 q 147 674 105 602 q 248 805 188 746 q 382 905 308 863 q 542 969 455 947 q 725 992 628 992 q 936 957 845 992 q 1089 862 1028 922 q 1182 721 1151 802 q 1214 545 1214 639 m 509 331 q 534 224 509 261 q 598 188 558 188 q 649 202 627 188 q 685 239 670 216 q 710 292 700 263 q 725 352 719 321 l 780 635 q 768 651 776 644 q 750 664 760 659 q 729 671 740 669 q 706 673 717 673 q 643 656 671 673 q 593 609 615 638 q 555 544 571 581 q 529 469 539 507 q 514 395 519 431 q 509 331 509 358 "},"ö":{"x_min":56,"x_max":802,"ha":859,"o":"m 56 277 q 68 385 56 329 q 105 494 80 441 q 167 596 129 548 q 255 679 204 644 q 369 736 305 715 q 511 758 433 758 q 624 741 571 758 q 716 689 677 724 q 778 598 755 654 q 802 466 802 543 q 790 361 802 416 q 754 252 778 306 q 693 151 730 199 q 606 66 656 102 q 492 7 556 29 q 350 -14 429 -14 q 230 3 285 -14 q 138 58 176 21 q 77 149 99 94 q 56 277 56 204 m 375 85 q 442 107 412 85 q 497 163 473 128 q 538 243 521 198 q 567 335 556 287 q 584 428 578 382 q 590 511 590 474 q 562 629 590 593 q 485 665 534 665 q 420 644 450 665 q 366 590 390 624 q 323 512 342 556 q 293 422 305 469 q 274 328 280 375 q 268 243 268 282 q 296 122 268 158 q 375 85 325 85 m 468 961 q 460 915 468 934 q 441 885 453 897 q 415 869 430 874 q 385 864 400 864 q 330 882 351 864 q 309 940 309 901 q 331 1011 309 984 q 392 1038 353 1038 q 447 1018 425 1038 q 468 961 468 999 m 758 961 q 750 915 758 934 q 731 885 743 897 q 705 869 720 874 q 675 864 690 864 q 620 882 641 864 q 599 940 599 901 q 621 1011 599 984 q 682 1038 643 1038 q 737 1018 715 1038 q 758 961 758 999 "},"i":{"x_min":79.296875,"x_max":469.265625,"ha":492,"o":"m 421 745 l 324 292 q 311 221 316 254 q 305 159 305 188 q 318 112 305 129 q 353 96 330 96 q 393 104 375 96 q 436 128 412 112 l 469 81 q 431 46 452 64 q 384 15 410 29 q 326 -5 358 2 q 256 -14 294 -14 q 134 23 176 -14 q 91 128 91 61 q 96 199 91 158 q 113 294 102 241 l 168 552 q 171 571 170 561 q 174 589 173 580 q 176 603 176 597 q 177 612 177 609 q 173 643 177 631 q 160 660 169 654 q 137 669 151 667 q 104 671 124 671 l 79 671 l 91 745 l 421 745 m 324 869 q 281 875 301 869 q 247 890 262 880 q 224 918 232 901 q 216 956 216 934 q 226 1007 216 986 q 254 1043 237 1029 q 296 1063 272 1057 q 345 1070 319 1070 q 387 1065 367 1070 q 423 1049 407 1060 q 447 1022 438 1038 q 456 982 456 1005 q 445 932 456 954 q 415 897 434 911 q 373 876 397 883 q 324 869 349 869 "},"Õ":{"x_min":87,"x_max":1063,"ha":1100,"o":"m 87 369 q 103 509 87 435 q 153 653 120 582 q 236 788 186 724 q 351 900 285 852 q 498 978 416 949 q 678 1007 581 1007 q 825 984 755 1007 q 947 915 894 962 q 1031 796 1000 868 q 1063 625 1063 724 q 1047 488 1063 561 q 998 344 1031 416 q 918 208 966 273 q 804 93 869 143 q 656 13 738 43 q 474 -16 573 -16 q 321 8 392 -16 q 198 82 250 33 q 116 203 146 131 q 87 369 87 275 m 313 336 q 328 218 313 267 q 368 137 342 169 q 428 91 393 106 q 502 76 462 76 q 607 104 560 76 q 691 178 654 131 q 756 284 729 224 q 802 409 784 344 q 829 537 820 473 q 837 656 837 602 q 823 773 837 724 q 784 854 809 822 q 725 901 759 886 q 649 916 690 916 q 544 888 591 916 q 460 814 497 861 q 395 708 422 768 q 349 583 367 648 q 322 454 331 518 q 313 336 313 390 m 802 1203 q 833 1209 820 1203 q 855 1225 846 1215 q 870 1249 864 1236 q 879 1277 876 1262 l 963 1277 q 940 1207 955 1243 q 902 1140 925 1170 q 849 1090 879 1110 q 781 1071 819 1071 q 714 1084 744 1071 q 659 1114 684 1098 q 612 1145 634 1131 q 568 1158 590 1158 q 541 1152 554 1158 q 518 1136 528 1146 q 501 1112 508 1125 q 491 1085 494 1099 l 409 1085 q 431 1152 415 1116 q 471 1219 446 1189 q 527 1270 495 1250 q 596 1291 558 1291 q 661 1277 632 1291 q 714 1247 690 1263 q 759 1216 738 1230 q 802 1203 781 1203 "},"þ":{"x_min":-41.5,"x_max":809,"ha":865,"o":"m 599 496 q 595 552 599 525 q 583 599 592 578 q 560 633 575 621 q 524 646 546 646 q 478 633 501 646 q 434 597 456 620 q 394 546 413 575 q 361 485 376 517 q 334 422 345 454 q 318 362 323 390 l 265 113 q 281 100 271 107 q 304 87 291 93 q 332 78 317 82 q 364 74 347 74 q 433 95 401 74 q 491 149 465 115 q 537 227 517 183 q 571 317 558 270 q 592 411 585 364 q 599 496 599 457 m 343 559 q 391 639 366 602 q 447 702 416 675 q 516 743 477 728 q 606 758 555 758 q 689 741 651 758 q 753 693 727 725 q 794 614 779 661 q 809 507 809 568 q 797 398 809 456 q 761 282 785 340 q 702 171 737 224 q 618 76 666 117 q 510 10 570 35 q 379 -14 450 -14 q 300 -5 337 -14 q 237 17 264 2 q 234 -4 236 7 q 231 -25 233 -13 q 226 -49 229 -37 l 206 -142 q 203 -160 204 -150 q 199 -178 201 -169 q 197 -192 198 -186 q 197 -201 197 -199 q 201 -232 197 -220 q 214 -249 205 -243 q 236 -258 223 -256 q 270 -260 250 -260 l 323 -260 l 311 -334 l -41 -334 l 213 863 q 217 882 215 872 q 220 900 219 891 q 223 914 222 908 q 223 923 223 920 q 219 953 223 942 q 206 971 215 965 q 183 979 197 977 q 149 981 169 981 l 117 981 l 130 1055 l 467 1055 l 412 791 q 403 758 409 778 q 389 716 397 738 q 373 670 382 694 q 357 625 365 646 q 343 586 349 604 q 333 559 336 568 l 343 559 "},"]":{"x_min":-74.25,"x_max":572.09375,"ha":575,"o":"m 572 1055 l 309 -178 l -74 -178 l -58 -104 l 1 -104 q 45 -101 24 -104 q 84 -87 66 -97 q 115 -56 102 -76 q 136 -4 129 -36 l 323 881 q 327 916 327 902 q 319 950 327 937 q 299 970 312 963 q 268 979 286 977 q 231 981 251 981 l 171 981 l 186 1055 l 572 1055 "},"m":{"x_min":51.5,"x_max":1323.765625,"ha":1346,"o":"m 1110 -10 q 988 27 1031 -10 q 946 133 946 65 q 951 203 946 162 q 967 298 956 245 l 991 407 q 999 441 994 421 q 1007 482 1003 460 q 1013 524 1011 503 q 1016 563 1016 546 q 1014 590 1016 576 q 1005 616 1011 604 q 988 635 999 627 q 960 642 977 642 q 916 627 938 642 q 873 586 894 611 q 833 527 852 560 q 799 460 814 494 q 773 392 784 425 q 757 331 762 358 l 747 273 q 740 234 744 258 q 732 180 736 209 q 724 122 728 152 q 717 67 720 92 q 712 23 714 42 q 711 0 711 5 l 495 0 q 497 28 495 8 q 504 76 500 48 q 513 135 508 103 q 524 199 519 167 q 535 260 530 231 q 545 309 540 288 l 566 406 q 573 439 569 419 q 580 480 576 458 q 587 523 584 501 q 589 562 589 545 q 588 588 589 574 q 582 613 587 602 q 569 631 578 624 q 544 638 559 638 q 498 624 521 638 q 454 586 475 610 q 414 532 433 562 q 380 469 396 501 q 354 405 365 437 q 337 348 343 374 l 259 0 l 51 0 l 168 553 q 171 571 170 561 q 174 589 173 580 q 176 603 176 597 q 177 612 177 610 q 173 643 177 631 q 160 660 169 654 q 137 669 151 667 q 104 671 124 671 l 79 671 l 91 745 l 413 745 l 386 602 l 396 602 q 452 674 423 644 q 513 722 481 703 q 580 749 545 741 q 658 758 616 758 q 730 745 701 758 q 777 712 759 733 q 803 664 795 691 q 810 606 810 637 l 810 595 l 819 595 q 872 668 844 637 q 931 720 899 699 q 1000 751 963 740 q 1082 762 1038 762 q 1154 749 1125 762 q 1202 714 1184 736 q 1228 663 1220 692 q 1236 602 1236 634 q 1233 564 1236 584 q 1227 524 1230 544 q 1218 483 1223 504 q 1211 445 1214 463 l 1179 296 q 1165 226 1170 259 q 1159 163 1159 192 q 1172 117 1159 133 q 1208 101 1185 101 q 1248 109 1230 101 q 1290 133 1266 117 l 1323 85 q 1285 50 1306 68 q 1238 19 1264 33 q 1180 -1 1212 6 q 1110 -10 1148 -10 "},"8":{"x_min":18,"x_max":788,"ha":777,"o":"m 343 -14 q 210 3 269 -14 q 107 53 150 21 q 41 128 64 85 q 18 224 18 172 q 39 325 18 283 q 96 399 60 367 q 183 455 133 431 q 291 502 233 480 q 237 552 261 524 q 195 611 212 579 q 167 676 177 642 q 158 748 158 711 q 177 847 158 801 q 239 929 196 894 q 348 985 281 964 q 510 1006 415 1006 q 627 990 576 1006 q 715 948 679 975 q 769 883 750 921 q 788 803 788 846 q 771 709 788 750 q 723 637 754 669 q 649 580 692 605 q 554 531 606 554 q 621 482 590 508 q 674 425 652 456 q 710 358 697 394 q 723 280 723 322 q 695 148 723 204 q 616 57 667 93 q 496 3 566 21 q 343 -14 426 -14 m 354 66 q 423 76 390 66 q 480 109 456 87 q 519 164 505 131 q 533 241 533 197 q 523 303 533 275 q 493 357 513 332 q 444 405 473 382 q 375 450 414 428 q 250 361 295 417 q 205 219 205 304 q 244 106 205 147 q 354 66 284 66 m 613 792 q 606 845 613 821 q 586 887 600 869 q 552 915 572 904 q 502 925 531 925 q 442 913 470 925 q 394 879 414 901 q 361 826 373 857 q 349 755 349 794 q 468 575 349 647 q 536 620 508 596 q 581 671 564 644 q 605 729 598 698 q 613 792 613 759 "},"R":{"x_min":-31.734375,"x_max":953,"ha":982,"o":"m 422 512 l 507 512 q 590 524 551 512 q 656 565 628 537 q 700 636 684 592 q 716 742 716 680 q 708 821 716 789 q 683 872 700 853 q 641 901 666 892 q 580 909 615 909 l 510 909 l 422 512 m 622 992 q 870 934 788 992 q 953 760 953 876 q 930 640 953 689 q 872 557 907 590 q 792 503 836 523 q 705 474 748 484 l 802 215 q 829 148 816 175 q 858 104 843 121 q 891 81 873 88 q 933 74 909 74 l 939 74 l 924 0 l 909 0 q 784 6 837 0 q 692 29 730 12 q 629 77 654 46 q 589 158 604 108 l 501 431 l 406 431 l 351 176 q 343 138 346 151 q 341 120 341 126 q 349 96 341 105 q 370 82 356 87 q 402 75 384 77 q 443 73 421 73 l 489 73 l 473 0 l -31 0 l -16 73 l 1 73 q 43 76 23 73 q 81 88 64 79 q 111 113 98 97 q 129 156 123 129 l 270 823 q 279 871 279 859 q 272 895 279 886 q 251 910 264 905 q 219 917 238 915 q 179 918 200 918 l 161 918 l 176 992 l 622 992 "},"á":{"x_min":56,"x_max":876.578125,"ha":924,"o":"m 657 -14 q 558 14 595 -14 q 521 96 521 42 q 523 138 521 118 q 530 186 525 159 l 521 186 q 469 100 495 138 q 413 37 444 63 q 343 0 382 12 q 254 -14 305 -14 q 167 5 205 -14 q 105 58 130 24 q 68 138 81 92 q 56 239 56 185 q 68 353 56 293 q 106 470 81 412 q 168 580 131 528 q 253 671 205 632 q 361 734 302 711 q 492 758 421 758 q 547 753 519 758 q 601 742 575 749 q 649 727 627 735 q 688 709 672 718 l 761 743 l 835 743 l 743 309 q 736 279 740 298 q 729 238 732 260 q 722 197 725 217 q 719 163 719 177 q 733 112 719 129 q 768 95 747 95 q 806 103 788 95 q 846 124 824 112 l 876 68 q 836 40 858 55 q 786 13 814 26 q 727 -6 759 1 q 657 -14 694 -14 m 266 238 q 272 171 266 198 q 288 127 278 144 q 312 103 298 110 q 342 96 325 96 q 405 123 372 96 q 466 192 437 149 q 517 289 494 235 q 551 399 540 344 l 600 630 q 562 659 586 650 q 511 669 538 669 q 437 648 471 669 q 376 591 403 627 q 328 511 349 556 q 294 418 308 466 q 273 323 280 370 q 266 238 266 276 m 432 860 q 473 905 451 879 q 517 958 495 931 q 560 1013 539 986 q 597 1064 581 1040 l 815 1064 l 810 1049 q 781 1021 800 1037 q 738 985 762 1004 q 686 946 714 966 q 630 907 659 926 q 574 871 602 888 q 522 842 546 854 l 428 842 l 432 860 "},"×":{"x_min":134.828125,"x_max":684.859375,"ha":777,"o":"m 409 427 l 205 222 l 134 293 l 338 498 l 134 702 l 205 772 l 409 568 l 613 773 l 684 702 l 479 497 l 684 291 l 615 222 l 409 427 "},"o":{"x_min":56,"x_max":802,"ha":859,"o":"m 56 277 q 68 385 56 329 q 105 494 80 441 q 167 596 129 548 q 255 679 204 644 q 369 736 305 715 q 511 758 433 758 q 624 741 571 758 q 716 689 677 724 q 778 598 755 654 q 802 466 802 543 q 790 361 802 416 q 754 252 778 306 q 693 151 730 199 q 606 66 656 102 q 492 7 556 29 q 350 -14 429 -14 q 230 3 285 -14 q 138 58 176 21 q 77 149 99 94 q 56 277 56 204 m 375 85 q 442 107 412 85 q 497 163 473 128 q 538 243 521 198 q 567 335 556 287 q 584 428 578 382 q 590 511 590 474 q 562 629 590 593 q 485 665 534 665 q 420 644 450 665 q 366 590 390 624 q 323 512 342 556 q 293 422 305 469 q 274 328 280 375 q 268 243 268 282 q 296 122 268 158 q 375 85 325 85 "},"5":{"x_min":14,"x_max":792,"ha":777,"o":"m 294 82 q 377 98 340 82 q 440 145 414 114 q 480 223 466 176 q 495 333 495 271 q 482 411 495 378 q 446 467 469 444 q 393 500 424 489 q 326 511 362 511 q 281 508 301 511 q 243 501 260 506 q 211 491 226 497 q 183 480 196 486 l 125 510 l 266 992 l 792 992 l 751 739 l 667 739 q 669 777 668 757 q 671 806 671 797 q 656 831 671 821 q 603 840 642 840 l 323 840 l 241 580 q 301 595 267 588 q 386 603 335 603 q 516 586 458 603 q 616 536 575 569 q 679 454 657 503 q 702 343 702 406 q 672 201 702 267 q 589 88 643 136 q 455 13 534 40 q 277 -14 377 -14 q 154 -1 204 -14 q 73 33 104 11 q 27 85 41 55 q 14 148 14 114 q 21 191 14 171 q 45 226 29 211 q 85 250 61 241 q 143 259 110 259 q 150 198 144 229 q 173 141 157 167 q 219 99 190 115 q 294 82 248 82 "},"õ":{"x_min":56,"x_max":810,"ha":859,"o":"m 56 277 q 68 385 56 329 q 105 494 80 441 q 167 596 129 548 q 255 679 204 644 q 369 736 305 715 q 511 758 433 758 q 624 741 571 758 q 716 689 677 724 q 778 598 755 654 q 802 466 802 543 q 790 361 802 416 q 754 252 778 306 q 693 151 730 199 q 606 66 656 102 q 492 7 556 29 q 350 -14 429 -14 q 230 3 285 -14 q 138 58 176 21 q 77 149 99 94 q 56 277 56 204 m 375 85 q 442 107 412 85 q 497 163 473 128 q 538 243 521 198 q 567 335 556 287 q 584 428 578 382 q 590 511 590 474 q 562 629 590 593 q 485 665 534 665 q 420 644 450 665 q 366 590 390 624 q 323 512 342 556 q 293 422 305 469 q 274 328 280 375 q 268 243 268 282 q 296 122 268 158 q 375 85 325 85 m 649 974 q 680 980 667 974 q 702 996 693 986 q 717 1020 711 1007 q 726 1048 723 1033 l 810 1048 q 787 978 802 1014 q 749 911 772 941 q 696 861 726 881 q 628 842 666 842 q 561 855 591 842 q 506 885 531 869 q 459 916 481 902 q 415 929 437 929 q 388 923 401 929 q 365 907 375 917 q 348 883 355 896 q 338 856 341 870 l 256 856 q 278 923 262 887 q 318 990 293 960 q 374 1041 342 1021 q 443 1062 405 1062 q 508 1048 479 1062 q 561 1018 537 1034 q 606 987 585 1001 q 649 974 628 974 "},"7":{"x_min":136,"x_max":856,"ha":777,"o":"m 144 0 l 693 840 l 336 840 q 273 822 298 840 q 239 770 249 804 l 220 700 l 136 700 l 193 992 l 856 992 l 840 909 l 262 0 l 144 0 "},"K":{"x_min":-31.734375,"x_max":1126,"ha":1030,"o":"m 703 753 q 749 798 731 778 q 778 834 767 818 q 792 862 788 850 q 797 884 797 874 q 783 910 797 901 q 735 920 769 920 l 750 992 l 1126 992 l 1110 920 q 1056 913 1082 920 q 1004 892 1031 906 q 949 856 978 878 q 887 804 920 834 l 661 606 l 824 215 q 855 149 841 176 q 884 105 869 122 q 915 81 898 88 q 956 73 933 73 l 961 73 l 947 0 l 874 0 q 759 8 805 0 q 682 38 714 16 q 629 97 651 60 q 584 192 606 134 l 481 458 l 399 398 l 347 152 q 344 135 346 145 q 341 120 341 126 q 349 96 341 105 q 370 82 356 87 q 402 75 384 77 q 443 73 421 73 l 461 73 l 445 0 l -31 0 l -16 73 l 1 73 q 43 76 23 73 q 81 88 64 79 q 111 113 98 97 q 129 156 123 129 l 270 823 q 279 871 279 859 q 272 895 279 886 q 251 910 264 905 q 219 917 238 915 q 179 918 200 918 l 161 918 l 176 992 l 655 992 l 640 918 l 622 918 q 578 915 599 918 q 539 903 556 912 q 508 878 521 895 q 490 833 495 861 l 421 504 l 703 753 "},",":{"x_min":-16,"x_max":290,"ha":408,"o":"m 290 85 q 270 -14 290 32 q 212 -100 251 -62 q 117 -167 174 -139 q -16 -210 59 -195 l 0 -136 q 142 -21 142 -102 q 137 3 142 -7 q 122 22 131 13 q 103 39 113 30 q 85 57 94 47 q 70 82 76 68 q 65 116 65 95 q 73 156 65 138 q 96 186 81 174 q 129 205 110 199 q 169 212 148 212 q 216 203 194 212 q 254 179 238 195 q 280 139 271 163 q 290 85 290 116 "},"d":{"x_min":56,"x_max":901.671875,"ha":924,"o":"m 266 238 q 272 171 266 199 q 288 128 278 144 q 312 104 298 111 q 342 96 325 96 q 404 123 372 96 q 465 192 437 149 q 516 289 494 234 q 551 399 539 343 l 600 630 q 559 659 585 649 q 509 669 534 669 q 436 647 469 669 q 376 591 403 626 q 328 511 349 556 q 294 418 308 466 q 274 323 281 370 q 266 238 266 276 m 740 298 q 735 269 738 287 q 728 230 731 250 q 722 190 724 209 q 719 157 719 170 q 734 110 719 125 q 768 95 749 95 q 807 104 786 95 q 846 124 829 114 l 876 70 q 835 40 858 55 q 784 13 812 25 q 725 -6 757 0 q 657 -14 693 -14 q 601 -6 627 -14 q 558 13 576 0 q 531 48 540 27 q 521 96 521 68 q 521 119 521 109 q 523 139 522 129 q 526 160 524 149 q 530 186 527 171 l 522 186 q 468 95 496 133 q 407 32 439 57 q 338 -2 375 8 q 258 -14 301 -14 q 166 6 205 -14 q 103 61 128 26 q 67 142 79 95 q 56 239 56 188 q 68 353 56 293 q 105 470 81 412 q 166 580 130 528 q 250 671 203 632 q 355 734 297 711 q 482 758 413 758 q 558 749 522 758 q 620 724 593 740 q 624 745 622 733 q 629 769 626 757 q 633 791 631 781 q 637 808 636 802 l 650 863 q 654 882 652 872 q 657 900 656 891 q 659 914 658 908 q 660 923 660 920 q 656 953 660 942 q 643 971 652 965 q 620 979 634 977 q 586 981 605 981 l 554 981 l 567 1055 l 901 1055 l 740 298 "},"¨":{"x_min":258,"x_max":707.375,"ha":802,"o":"m 417 961 q 409 915 417 934 q 390 885 402 897 q 364 869 379 874 q 334 864 349 864 q 279 882 300 864 q 258 940 258 901 q 280 1011 258 984 q 341 1038 302 1038 q 396 1018 374 1038 q 417 961 417 999 m 707 961 q 699 915 707 934 q 680 885 692 897 q 654 869 669 874 q 624 864 639 864 q 569 882 590 864 q 548 940 548 901 q 570 1011 548 984 q 631 1038 592 1038 q 686 1018 664 1038 q 707 961 707 999 "},"Ô":{"x_min":87,"x_max":1063,"ha":1100,"o":"m 87 369 q 103 509 87 435 q 153 653 120 582 q 236 788 186 724 q 351 900 285 852 q 498 978 416 949 q 678 1007 581 1007 q 825 984 755 1007 q 947 915 894 962 q 1031 796 1000 868 q 1063 625 1063 724 q 1047 488 1063 561 q 998 344 1031 416 q 918 208 966 273 q 804 93 869 143 q 656 13 738 43 q 474 -16 573 -16 q 321 8 392 -16 q 198 82 250 33 q 116 203 146 131 q 87 369 87 275 m 313 336 q 328 218 313 267 q 368 137 342 169 q 428 91 393 106 q 502 76 462 76 q 607 104 560 76 q 691 178 654 131 q 756 284 729 224 q 802 409 784 344 q 829 537 820 473 q 837 656 837 602 q 823 773 837 724 q 784 854 809 822 q 725 901 759 886 q 649 916 690 916 q 544 888 591 916 q 460 814 497 861 q 395 708 422 768 q 349 583 367 648 q 322 454 331 518 q 313 336 313 390 m 442 1089 q 488 1134 462 1108 q 541 1186 513 1159 q 593 1241 568 1213 q 639 1293 619 1268 l 826 1293 q 848 1244 835 1271 q 877 1189 862 1217 q 907 1135 892 1161 q 935 1089 922 1108 l 930 1071 l 843 1071 q 814 1098 831 1082 q 781 1130 798 1113 q 748 1164 764 1147 q 719 1195 731 1181 q 678 1164 701 1181 q 631 1130 654 1147 q 585 1098 607 1113 q 545 1071 562 1082 l 438 1071 l 442 1089 "},"E":{"x_min":-31.734375,"x_max":931,"ha":879,"o":"m -16 73 l 1 73 q 43 76 23 73 q 81 88 64 79 q 111 113 98 97 q 129 156 123 129 l 273 839 q 277 856 276 846 q 279 871 279 865 q 272 895 279 886 q 251 910 264 905 q 219 917 238 915 q 179 918 200 918 l 161 918 l 176 992 l 931 992 l 882 733 l 783 733 q 785 750 784 737 q 787 775 786 762 q 789 800 788 788 q 790 813 790 811 q 785 850 790 833 q 768 879 779 867 q 737 900 756 892 q 692 907 719 907 l 507 907 l 433 560 l 749 560 l 730 476 l 415 476 l 331 84 l 551 84 q 610 93 584 84 q 654 118 635 103 q 687 155 673 134 q 708 199 700 175 l 730 259 l 830 259 l 765 0 l -31 0 l -16 73 "},"Y":{"x_min":121.9375,"x_max":1098.578125,"ha":962,"o":"m 153 0 l 169 73 l 206 73 q 248 76 228 73 q 286 89 269 80 q 315 114 303 98 q 333 158 327 130 l 373 351 l 223 844 q 211 879 217 865 q 195 902 204 893 q 173 914 187 910 q 140 918 160 918 l 121 918 l 137 992 l 588 992 l 573 918 l 511 918 q 466 907 479 918 q 452 878 452 897 q 456 842 452 865 q 469 787 461 819 l 519 591 q 529 548 524 571 q 539 502 534 525 q 546 456 543 479 q 551 417 549 434 q 590 488 564 445 q 652 582 617 531 l 789 778 q 819 829 806 802 q 832 880 832 857 q 812 909 832 899 q 747 918 793 918 l 718 918 l 734 992 l 1098 992 l 1082 918 l 1057 918 q 1028 914 1041 918 q 1001 900 1015 910 q 972 872 988 889 q 938 828 957 854 l 594 350 l 552 152 q 549 135 551 145 q 547 120 547 126 q 554 96 547 105 q 575 82 562 87 q 607 75 589 77 q 648 73 626 73 l 682 73 l 666 0 l 153 0 "},"\"":{"x_min":211,"x_max":763,"ha":705,"o":"m 546 992 l 763 992 l 618 610 l 527 610 l 546 992 m 244 992 l 461 992 l 302 610 l 211 610 l 244 992 "},"ê":{"x_min":56,"x_max":745,"ha":743,"o":"m 419 91 q 483 100 453 91 q 540 126 514 110 q 586 162 566 142 q 622 203 607 182 q 635 177 630 193 q 640 144 640 161 q 623 91 640 118 q 573 39 607 63 q 488 1 540 16 q 365 -14 436 -14 q 245 3 301 -14 q 147 56 189 21 q 80 146 104 92 q 56 272 56 200 q 69 380 56 324 q 109 491 83 437 q 176 593 136 544 q 268 678 216 642 q 385 736 320 715 q 526 758 449 758 q 681 714 626 758 q 736 594 736 671 q 704 486 736 538 q 618 396 673 435 q 487 334 563 357 q 322 311 411 311 q 297 311 310 311 q 271 312 283 311 q 268 285 268 299 q 268 259 268 271 q 305 134 268 178 q 419 91 343 91 m 468 674 q 403 649 434 674 q 348 583 373 623 q 306 491 324 542 q 281 392 289 441 l 293 392 q 389 405 344 392 q 466 444 433 419 q 517 505 499 469 q 536 584 536 540 q 518 650 536 627 q 468 674 500 674 m 252 860 q 298 905 272 879 q 351 957 323 930 q 403 1012 378 984 q 449 1064 429 1039 l 636 1064 q 658 1015 645 1042 q 687 960 672 988 q 717 906 702 932 q 745 860 732 879 l 740 842 l 653 842 q 624 869 641 853 q 591 901 608 884 q 558 935 574 918 q 529 966 541 952 q 488 935 511 952 q 441 901 464 918 q 395 869 417 884 q 355 842 372 853 l 248 842 l 252 860 "},"Ï":{"x_min":-31.734375,"x_max":667.375,"ha":557,"o":"m -31 0 l -16 73 l 1 73 q 43 76 23 73 q 81 88 64 79 q 111 113 98 97 q 129 156 123 129 l 273 839 q 277 856 276 846 q 279 871 279 865 q 272 895 279 886 q 251 910 264 905 q 219 917 238 915 q 179 918 200 918 l 161 918 l 176 992 l 655 992 l 640 918 l 622 918 q 578 915 599 918 q 539 903 556 912 q 508 878 521 895 q 490 833 495 861 l 347 152 q 344 135 346 145 q 341 120 341 126 q 349 96 341 105 q 370 82 356 87 q 402 75 384 77 q 443 73 421 73 l 461 73 l 445 0 l -31 0 m 377 1190 q 369 1144 377 1163 q 350 1114 362 1126 q 324 1098 339 1103 q 294 1093 309 1093 q 239 1111 260 1093 q 218 1169 218 1130 q 240 1240 218 1213 q 301 1267 262 1267 q 356 1247 334 1267 q 377 1190 377 1228 m 667 1190 q 659 1144 667 1163 q 640 1114 652 1126 q 614 1098 629 1103 q 584 1093 599 1093 q 529 1111 550 1093 q 508 1169 508 1130 q 530 1240 508 1213 q 591 1267 552 1267 q 646 1247 624 1267 q 667 1190 667 1228 "},"Â":{"x_min":-68.03125,"x_max":987.875,"ha":1046,"o":"m 296 326 l 229 201 q 209 157 215 176 q 202 123 202 138 q 221 85 202 97 q 280 73 240 73 l 308 73 l 292 0 l -68 0 l -53 73 l -23 73 q 9 78 -4 73 q 37 94 24 82 q 65 128 51 107 q 99 181 80 149 l 571 992 l 761 992 l 878 173 q 887 133 881 151 q 902 102 892 115 q 926 81 911 88 q 962 73 941 73 l 987 73 l 972 0 l 514 0 l 529 73 l 561 73 q 632 87 606 73 q 658 132 658 101 q 658 155 658 143 q 656 176 657 166 l 635 326 l 296 326 m 600 644 q 594 701 597 675 q 588 753 591 728 q 584 802 586 778 q 582 851 582 826 q 561 805 572 826 q 540 761 551 783 q 514 714 528 739 q 482 657 500 690 l 344 411 l 626 411 l 600 644 m 420 1089 q 466 1134 440 1108 q 519 1186 491 1159 q 571 1241 546 1213 q 617 1293 597 1268 l 804 1293 q 826 1244 813 1271 q 855 1189 840 1217 q 885 1135 870 1161 q 913 1089 900 1108 l 908 1071 l 821 1071 q 792 1098 809 1082 q 759 1130 776 1113 q 726 1164 742 1147 q 697 1195 709 1181 q 656 1164 679 1181 q 609 1130 632 1147 q 563 1098 585 1113 q 523 1071 540 1082 l 416 1071 l 420 1089 "},"Í":{"x_min":-31.734375,"x_max":723,"ha":557,"o":"m -31 0 l -16 73 l 1 73 q 43 76 23 73 q 81 88 64 79 q 111 113 98 97 q 129 156 123 129 l 273 839 q 277 856 276 846 q 279 871 279 865 q 272 895 279 886 q 251 910 264 905 q 219 917 238 915 q 179 918 200 918 l 161 918 l 176 992 l 655 992 l 640 918 l 622 918 q 578 915 599 918 q 539 903 556 912 q 508 878 521 895 q 490 833 495 861 l 347 152 q 344 135 346 145 q 341 120 341 126 q 349 96 341 105 q 370 82 356 87 q 402 75 384 77 q 443 73 421 73 l 461 73 l 445 0 l -31 0 m 340 1089 q 381 1134 359 1108 q 425 1187 403 1160 q 468 1242 447 1215 q 505 1293 489 1269 l 723 1293 l 718 1278 q 689 1250 708 1266 q 646 1214 670 1233 q 594 1175 622 1195 q 538 1136 567 1155 q 482 1100 510 1117 q 430 1071 454 1083 l 336 1071 l 340 1089 "},"´":{"x_min":338,"x_max":725,"ha":802,"o":"m 342 860 q 383 905 361 879 q 427 958 405 931 q 470 1013 449 986 q 507 1064 491 1040 l 725 1064 l 720 1049 q 691 1021 710 1037 q 648 985 672 1004 q 596 946 624 966 q 540 907 569 926 q 484 871 512 888 q 432 842 456 854 l 338 842 l 342 860 "},"ì":{"x_min":79.296875,"x_max":469.265625,"ha":492,"o":"m 421 745 l 324 292 q 311 221 316 254 q 305 159 305 188 q 318 112 305 129 q 353 96 330 96 q 393 104 375 96 q 436 128 412 112 l 469 81 q 431 46 452 64 q 384 15 410 29 q 326 -5 358 2 q 256 -14 294 -14 q 134 23 176 -14 q 91 128 91 61 q 96 199 91 158 q 113 294 102 241 l 168 552 q 171 571 170 561 q 174 589 173 580 q 176 603 176 597 q 177 612 177 609 q 173 643 177 631 q 160 660 169 654 q 137 669 151 667 q 104 671 124 671 l 79 671 l 91 745 l 421 745 m 310 842 q 247 886 281 859 q 182 943 213 913 q 125 1001 151 972 q 84 1049 99 1029 l 89 1064 l 293 1064 q 314 1009 301 1038 q 342 953 327 980 q 370 900 356 925 q 397 860 385 876 l 393 842 l 310 842 "},"±":{"x_min":112,"x_max":707.375,"ha":777,"o":"m 707 0 l 112 0 l 112 98 l 707 98 l 707 0 m 459 446 l 459 198 l 359 198 l 359 446 l 112 446 l 112 546 l 359 546 l 359 794 l 459 794 l 459 546 l 707 546 l 707 446 l 459 446 "},"Ú":{"x_min":137.671875,"x_max":1153.0625,"ha":1038,"o":"m 523 84 q 630 102 586 84 q 702 153 673 121 q 749 230 731 185 q 778 327 767 274 l 885 829 q 888 853 887 841 q 890 871 890 865 q 883 895 890 886 q 862 910 875 905 q 830 917 849 915 q 790 918 811 918 l 772 918 l 787 992 l 1153 992 l 1137 918 l 1119 918 q 1076 915 1097 918 q 1037 903 1055 912 q 1007 877 1020 894 q 988 833 995 861 l 877 305 q 829 167 861 227 q 747 67 796 108 q 629 6 697 27 q 473 -14 561 -14 q 329 1 392 -14 q 224 48 267 17 q 159 124 181 79 q 137 226 137 169 q 139 253 137 237 q 142 287 140 269 q 147 320 144 304 q 152 349 149 337 l 254 823 q 262 871 262 861 q 255 895 262 886 q 234 910 247 905 q 202 917 221 915 q 162 918 184 918 l 144 918 l 160 992 l 640 992 l 625 918 l 607 918 q 562 915 583 918 q 523 904 541 912 q 493 879 505 895 q 474 836 480 863 l 369 347 q 363 319 366 334 q 358 289 360 305 q 354 256 356 273 q 352 226 352 240 q 396 120 352 156 q 523 84 439 84 m 620 1089 q 661 1134 639 1108 q 705 1187 683 1160 q 748 1242 727 1215 q 785 1293 769 1269 l 1003 1293 l 998 1278 q 969 1250 988 1266 q 926 1214 950 1233 q 874 1175 902 1195 q 818 1136 847 1155 q 762 1100 790 1117 q 710 1071 734 1083 l 616 1071 l 620 1089 "},"|":{"x_min":360,"x_max":460.375,"ha":777,"o":"m 460 -334 l 360 -334 l 360 1055 l 460 1055 l 460 -334 "},"§":{"x_min":30,"x_max":752,"ha":756,"o":"m 301 -160 q 187 -147 238 -160 q 102 -113 137 -135 q 48 -60 67 -91 q 30 6 30 -29 q 42 64 30 42 q 75 100 55 87 q 118 117 95 112 q 160 122 141 122 q 171 40 160 78 q 202 -23 182 3 q 251 -66 222 -50 q 316 -82 280 -82 q 382 -70 353 -82 q 431 -39 411 -58 q 462 7 451 -19 q 473 65 473 34 q 465 114 473 92 q 437 158 458 136 q 381 202 417 179 q 290 255 346 225 q 202 311 237 283 q 147 367 168 338 q 119 426 127 395 q 111 489 111 456 q 122 551 111 523 q 151 603 133 580 q 193 645 170 626 q 241 678 216 664 q 218 729 229 698 q 208 803 208 761 q 232 910 208 863 q 297 989 256 957 q 392 1038 338 1021 q 507 1055 447 1055 q 616 1043 570 1055 q 692 1010 662 1031 q 737 963 722 990 q 752 905 752 935 q 742 855 752 875 q 714 823 732 835 q 670 806 695 811 q 614 801 644 801 q 606 871 614 838 q 583 927 598 903 q 545 965 568 951 q 494 979 523 979 q 444 970 469 979 q 399 945 419 962 q 367 902 379 928 q 355 841 355 876 q 363 788 355 810 q 391 745 372 765 q 443 705 411 725 q 523 661 476 686 q 610 608 574 633 q 667 557 645 583 q 699 503 689 530 q 709 444 709 475 q 698 382 709 411 q 669 327 687 353 q 627 279 651 301 q 576 240 603 257 q 598 190 588 220 q 608 124 608 161 q 586 13 608 65 q 524 -76 564 -37 q 427 -137 484 -115 q 301 -160 370 -160 m 433 531 q 351 573 388 552 q 283 620 314 594 q 247 583 261 603 q 233 534 233 563 q 240 492 233 511 q 265 455 248 473 q 313 419 283 437 q 390 378 344 400 q 466 338 429 359 q 527 297 503 316 q 561 337 548 314 q 574 389 574 361 q 568 422 574 405 q 546 456 562 439 q 503 493 530 474 q 433 531 476 511 "},"Ý":{"x_min":121.9375,"x_max":1098.578125,"ha":962,"o":"m 153 0 l 169 73 l 206 73 q 248 76 228 73 q 286 89 269 80 q 315 114 303 98 q 333 158 327 130 l 373 351 l 223 844 q 211 879 217 865 q 195 902 204 893 q 173 914 187 910 q 140 918 160 918 l 121 918 l 137 992 l 588 992 l 573 918 l 511 918 q 466 907 479 918 q 452 878 452 897 q 456 842 452 865 q 469 787 461 819 l 519 591 q 529 548 524 571 q 539 502 534 525 q 546 456 543 479 q 551 417 549 434 q 590 488 564 445 q 652 582 617 531 l 789 778 q 819 829 806 802 q 832 880 832 857 q 812 909 832 899 q 747 918 793 918 l 718 918 l 734 992 l 1098 992 l 1082 918 l 1057 918 q 1028 914 1041 918 q 1001 900 1015 910 q 972 872 988 889 q 938 828 957 854 l 594 350 l 552 152 q 549 135 551 145 q 547 120 547 126 q 554 96 547 105 q 575 82 562 87 q 607 75 589 77 q 648 73 626 73 l 682 73 l 666 0 l 153 0 m 564 1089 q 605 1134 583 1108 q 649 1187 627 1160 q 692 1242 671 1215 q 729 1293 713 1269 l 947 1293 l 942 1278 q 913 1250 932 1266 q 870 1214 894 1233 q 818 1175 846 1195 q 762 1136 791 1155 q 706 1100 734 1117 q 654 1071 678 1083 l 560 1071 l 564 1089 "},"b":{"x_min":29,"x_max":809,"ha":865,"o":"m 213 863 q 217 882 215 872 q 220 900 219 891 q 222 914 222 908 q 223 923 223 920 q 219 953 223 942 q 206 971 215 965 q 183 979 197 977 q 149 981 169 981 l 117 981 l 130 1055 l 467 1055 l 412 791 q 403 758 409 778 q 390 715 397 738 q 375 668 383 692 q 359 622 366 644 q 345 583 351 601 q 336 556 339 566 l 342 556 q 395 645 368 607 q 454 707 422 682 q 523 745 485 732 q 606 758 560 758 q 687 741 650 758 q 751 693 725 725 q 793 615 778 662 q 809 507 809 568 q 795 390 809 450 q 755 271 781 329 q 690 162 729 213 q 602 71 652 110 q 492 9 552 32 q 362 -14 432 -14 q 307 -9 333 -14 q 258 0 281 -5 q 217 16 235 7 q 185 35 198 25 l 106 -4 l 29 -4 l 213 863 m 598 496 q 592 566 598 538 q 576 612 586 595 q 552 638 566 630 q 524 646 539 646 q 475 631 498 646 q 430 591 451 616 q 390 537 408 567 q 359 476 372 507 q 335 419 345 446 q 322 376 326 393 l 265 113 q 302 85 279 96 q 355 74 325 74 q 429 96 395 74 q 490 152 463 117 q 537 232 517 187 q 571 323 557 277 q 591 415 584 370 q 598 496 598 460 "},"q":{"x_min":56,"x_max":837.578125,"ha":876,"o":"m 266 243 q 272 175 266 203 q 288 130 278 148 q 311 104 298 112 q 342 96 325 96 q 384 109 363 96 q 426 143 405 121 q 467 195 447 165 q 502 259 486 225 q 530 329 518 293 q 550 401 543 365 l 600 630 q 567 657 590 646 q 510 669 543 669 q 434 647 468 669 q 373 590 401 625 q 326 509 346 554 q 293 416 306 463 q 273 324 280 369 q 266 243 266 279 m 477 -55 q 483 -29 479 -45 q 490 5 486 -13 q 498 45 494 24 q 507 86 503 66 q 529 186 517 133 l 521 186 q 472 104 497 141 q 416 40 447 67 q 346 0 386 14 q 252 -14 306 -14 q 172 2 208 -14 q 110 50 136 18 q 70 129 85 82 q 56 239 56 177 q 69 353 56 293 q 107 470 82 412 q 169 580 132 528 q 253 671 206 632 q 358 734 301 711 q 482 758 415 758 q 542 753 512 758 q 597 743 571 749 q 646 728 624 736 q 686 712 668 720 l 768 758 l 837 758 l 647 -142 q 640 -179 642 -159 q 637 -212 637 -199 q 654 -248 637 -237 q 711 -260 671 -260 l 763 -260 l 751 -334 l 422 -334 l 477 -55 "},"Ö":{"x_min":87,"x_max":1063,"ha":1100,"o":"m 87 369 q 103 509 87 435 q 153 653 120 582 q 236 788 186 724 q 351 900 285 852 q 498 978 416 949 q 678 1007 581 1007 q 825 984 755 1007 q 947 915 894 962 q 1031 796 1000 868 q 1063 625 1063 724 q 1047 488 1063 561 q 998 344 1031 416 q 918 208 966 273 q 804 93 869 143 q 656 13 738 43 q 474 -16 573 -16 q 321 8 392 -16 q 198 82 250 33 q 116 203 146 131 q 87 369 87 275 m 313 336 q 328 218 313 267 q 368 137 342 169 q 428 91 393 106 q 502 76 462 76 q 607 104 560 76 q 691 178 654 131 q 756 284 729 224 q 802 409 784 344 q 829 537 820 473 q 837 656 837 602 q 823 773 837 724 q 784 854 809 822 q 725 901 759 886 q 649 916 690 916 q 544 888 591 916 q 460 814 497 861 q 395 708 422 768 q 349 583 367 648 q 322 454 331 518 q 313 336 313 390 m 638 1190 q 630 1144 638 1163 q 611 1114 623 1126 q 585 1098 600 1103 q 555 1093 570 1093 q 500 1111 521 1093 q 479 1169 479 1130 q 501 1240 479 1213 q 562 1267 523 1267 q 617 1247 595 1267 q 638 1190 638 1228 m 928 1190 q 920 1144 928 1163 q 901 1114 913 1126 q 875 1098 890 1103 q 845 1093 860 1093 q 790 1111 811 1093 q 769 1169 769 1130 q 791 1240 769 1213 q 852 1267 813 1267 q 907 1247 885 1267 q 928 1190 928 1228 "},"z":{"x_min":0,"x_max":740,"ha":775,"o":"m 484 94 q 526 105 508 94 q 558 134 544 116 q 583 175 572 152 q 603 220 594 197 l 617 252 l 698 252 l 638 0 l 0 0 l 15 70 l 478 650 l 301 650 q 255 640 274 650 q 221 615 236 631 q 195 576 207 599 q 170 525 183 553 l 167 520 l 83 520 l 144 745 l 740 745 l 724 672 l 259 94 l 484 94 "},"ã":{"x_min":56,"x_max":876.578125,"ha":924,"o":"m 657 -14 q 558 14 595 -14 q 521 96 521 42 q 523 138 521 118 q 530 186 525 159 l 521 186 q 469 100 495 138 q 413 37 444 63 q 343 0 382 12 q 254 -14 305 -14 q 167 5 205 -14 q 105 58 130 24 q 68 138 81 92 q 56 239 56 185 q 68 353 56 293 q 106 470 81 412 q 168 580 131 528 q 253 671 205 632 q 361 734 302 711 q 492 758 421 758 q 547 753 519 758 q 601 742 575 749 q 649 727 627 735 q 688 709 672 718 l 761 743 l 835 743 l 743 309 q 736 279 740 298 q 729 238 732 260 q 722 197 725 217 q 719 163 719 177 q 733 112 719 129 q 768 95 747 95 q 806 103 788 95 q 846 124 824 112 l 876 68 q 836 40 858 55 q 786 13 814 26 q 727 -6 759 1 q 657 -14 694 -14 m 266 238 q 272 171 266 198 q 288 127 278 144 q 312 103 298 110 q 342 96 325 96 q 405 123 372 96 q 466 192 437 149 q 517 289 494 235 q 551 399 540 344 l 600 630 q 562 659 586 650 q 511 669 538 669 q 437 648 471 669 q 376 591 403 627 q 328 511 349 556 q 294 418 308 466 q 273 323 280 370 q 266 238 266 276 m 663 974 q 694 980 681 974 q 716 996 707 986 q 731 1020 725 1007 q 740 1048 737 1033 l 824 1048 q 801 978 816 1014 q 763 911 786 941 q 710 861 740 881 q 642 842 680 842 q 575 855 605 842 q 520 885 545 869 q 473 916 495 902 q 429 929 451 929 q 402 923 415 929 q 379 907 389 917 q 362 883 369 896 q 352 856 355 870 l 270 856 q 292 923 276 887 q 332 990 307 960 q 388 1041 356 1021 q 457 1062 419 1062 q 522 1048 493 1062 q 575 1018 551 1034 q 620 987 599 1001 q 663 974 642 974 "},"æ":{"x_min":56,"x_max":1215,"ha":1222,"o":"m 898 91 q 962 100 932 91 q 1018 126 993 110 q 1065 162 1044 142 q 1100 203 1086 182 q 1113 177 1108 193 q 1119 144 1119 161 q 1102 91 1119 118 q 1052 39 1086 63 q 967 1 1019 16 q 843 -14 915 -14 q 641 36 717 -14 q 539 186 564 87 l 526 186 q 474 101 500 138 q 415 37 447 63 q 344 0 383 12 q 254 -14 305 -14 q 167 5 205 -14 q 105 58 130 24 q 68 138 81 92 q 56 239 56 185 q 68 353 56 293 q 106 470 81 412 q 168 580 131 528 q 253 671 205 632 q 361 734 301 711 q 491 758 421 758 q 617 736 561 758 q 722 673 674 715 q 845 738 776 715 q 998 760 914 760 q 1159 717 1103 760 q 1215 597 1215 674 q 1183 489 1215 541 q 1097 397 1152 437 q 966 334 1042 358 q 801 311 891 311 q 776 311 790 311 q 750 312 762 311 q 747 285 748 299 q 747 259 747 271 q 784 134 747 178 q 898 91 822 91 m 266 238 q 272 171 266 198 q 288 127 278 144 q 311 103 298 110 q 342 96 325 96 q 394 115 367 96 q 446 166 421 134 q 494 239 472 197 q 533 327 516 281 q 549 400 539 363 q 571 472 558 437 q 601 540 585 507 q 640 602 618 574 q 620 624 633 612 q 589 645 606 635 q 552 662 572 655 q 511 669 532 669 q 437 648 470 669 q 376 591 403 627 q 328 511 349 556 q 294 418 308 466 q 273 323 280 370 q 266 238 266 277 m 947 677 q 903 665 924 677 q 863 632 882 653 q 827 584 844 612 q 798 524 811 556 q 774 459 784 492 q 759 392 764 425 l 772 392 q 868 406 823 392 q 945 445 912 420 q 996 507 977 471 q 1014 587 1014 543 q 997 653 1014 629 q 947 677 979 677 "},"®":{"x_min":87,"x_max":1108,"ha":1174,"o":"m 334 242 l 352 242 q 378 244 366 242 q 399 251 390 246 q 415 265 409 256 q 421 291 421 275 l 421 698 q 415 724 421 714 q 399 738 409 733 q 378 745 390 743 q 352 747 366 747 l 334 747 l 334 796 l 584 796 q 823 630 823 796 q 812 572 823 597 q 783 528 801 547 q 743 497 766 510 q 696 477 720 485 l 820 279 q 833 260 826 267 q 848 249 839 253 q 868 244 857 245 q 898 242 880 242 l 898 196 l 751 196 l 598 454 l 524 454 l 524 291 q 531 265 525 275 q 546 251 536 256 q 567 244 555 246 q 592 242 579 242 l 612 242 l 612 196 l 334 196 l 334 242 m 524 507 l 583 507 q 645 514 620 507 q 686 536 671 521 q 707 574 700 551 q 713 629 713 597 q 706 681 713 659 q 682 716 698 703 q 640 735 666 729 q 578 741 615 741 l 524 741 l 524 507 m 87 495 q 105 631 87 566 q 156 753 123 696 q 236 857 189 810 q 339 937 283 903 q 461 988 396 970 q 597 1007 526 1007 q 732 988 667 1007 q 854 937 797 970 q 958 857 911 903 q 1038 753 1004 810 q 1089 631 1071 696 q 1108 495 1108 566 q 1089 359 1108 424 q 1038 238 1071 294 q 958 134 1004 181 q 854 55 911 88 q 732 3 797 21 q 597 -14 667 -14 q 461 3 526 -14 q 339 55 396 21 q 236 134 283 88 q 156 238 189 181 q 105 359 123 294 q 87 495 87 424 m 163 495 q 179 380 163 435 q 223 277 194 325 q 290 189 251 228 q 378 121 329 149 q 481 77 426 93 q 597 61 537 61 q 712 77 657 61 q 816 121 768 93 q 904 189 865 149 q 972 277 944 228 q 1016 380 1000 325 q 1032 495 1032 435 q 997 664 1032 585 q 904 802 963 743 q 766 896 845 861 q 597 930 687 930 q 481 914 537 930 q 378 871 426 899 q 290 803 329 842 q 223 714 251 763 q 179 610 194 666 q 163 495 163 555 "},"É":{"x_min":-31.734375,"x_max":931,"ha":879,"o":"m -16 73 l 1 73 q 43 76 23 73 q 81 88 64 79 q 111 113 98 97 q 129 156 123 129 l 273 839 q 277 856 276 846 q 279 871 279 865 q 272 895 279 886 q 251 910 264 905 q 219 917 238 915 q 179 918 200 918 l 161 918 l 176 992 l 931 992 l 882 733 l 783 733 q 785 750 784 737 q 787 775 786 762 q 789 800 788 788 q 790 813 790 811 q 785 850 790 833 q 768 879 779 867 q 737 900 756 892 q 692 907 719 907 l 507 907 l 433 560 l 749 560 l 730 476 l 415 476 l 331 84 l 551 84 q 610 93 584 84 q 654 118 635 103 q 687 155 673 134 q 708 199 700 175 l 730 259 l 830 259 l 765 0 l -31 0 l -16 73 m 508 1089 q 549 1134 527 1108 q 593 1187 571 1160 q 636 1242 615 1215 q 673 1293 657 1269 l 891 1293 l 886 1278 q 857 1250 876 1266 q 814 1214 838 1233 q 762 1175 790 1195 q 706 1136 735 1155 q 650 1100 678 1117 q 598 1071 622 1083 l 504 1071 l 508 1089 "},"~":{"x_min":68,"x_max":695,"ha":779,"o":"m 358 450 q 314 468 333 461 q 280 479 296 475 q 251 485 265 484 q 222 487 237 487 q 183 481 203 487 q 142 464 163 474 q 103 438 122 453 q 68 406 84 422 l 68 512 q 236 586 135 586 q 272 584 255 586 q 308 578 289 582 q 349 565 327 573 q 404 543 372 556 q 448 525 429 532 q 482 513 467 517 q 512 507 498 508 q 540 505 526 505 q 580 511 559 505 q 620 529 600 518 q 659 555 640 540 q 695 587 678 570 l 695 480 q 619 425 661 444 q 526 407 578 407 q 490 408 507 407 q 454 415 473 410 q 413 428 435 419 q 358 450 390 436 "},"³":{"x_min":40,"x_max":558,"ha":555,"o":"m 244 389 q 91 419 143 389 q 40 501 40 449 q 47 535 40 520 q 69 559 55 549 q 102 575 83 569 q 143 580 121 580 q 149 539 143 561 q 168 501 155 518 q 204 472 182 483 q 256 461 225 461 q 304 467 282 461 q 342 487 326 473 q 368 523 358 501 q 377 575 377 544 q 370 611 377 594 q 347 642 362 629 q 307 663 332 655 q 251 670 283 670 l 205 670 l 215 736 l 263 736 q 319 745 292 736 q 365 773 345 755 q 397 819 385 792 q 409 880 409 845 q 396 925 409 908 q 356 943 384 943 q 317 933 334 943 q 289 906 300 923 q 270 868 277 890 q 259 822 262 846 q 177 837 208 822 q 147 886 147 852 q 161 932 147 911 q 204 970 176 954 q 273 996 233 987 q 365 1006 314 1006 q 451 996 414 1006 q 511 969 487 986 q 546 928 534 951 q 558 879 558 905 q 545 815 558 842 q 508 768 532 788 q 453 736 485 748 q 382 715 420 723 l 381 708 q 483 669 445 700 q 522 580 522 638 q 500 498 522 534 q 443 438 479 462 q 354 401 406 414 q 244 389 303 389 "},"₧":{"x_min":-54.421875,"x_max":1221.90625,"ha":1249,"o":"m 1065 74 q 1120 80 1093 74 q 1168 99 1147 87 l 1191 42 q 1112 0 1155 13 q 1012 -14 1069 -14 q 871 26 917 -14 q 825 138 825 66 q 830 196 825 163 q 844 265 836 229 l 878 425 l 795 425 l 809 489 q 869 499 839 489 q 926 532 898 509 q 979 593 954 555 q 1025 684 1004 630 l 1103 684 l 1067 513 l 1221 513 l 1204 425 l 1049 425 l 1016 276 q 1009 240 1012 259 q 1002 204 1005 222 q 998 170 1000 186 q 996 141 996 154 q 1015 90 996 106 q 1065 74 1034 74 m 363 460 l 407 460 q 514 479 470 460 q 585 532 558 498 q 625 613 613 566 q 637 717 637 660 q 625 806 637 769 q 592 865 613 842 q 542 899 571 888 q 478 909 512 909 l 461 909 l 363 460 m 296 152 q 293 135 294 145 q 291 120 291 126 q 299 96 291 105 q 320 82 307 87 q 352 75 334 77 q 393 73 371 73 l 438 73 l 423 0 l -54 0 l -38 73 l -21 73 q 21 76 0 73 q 58 88 41 79 q 88 113 75 97 q 107 156 100 129 l 248 823 q 256 871 256 861 q 249 895 256 886 q 228 910 241 905 q 196 917 215 915 q 156 918 178 918 l 138 918 l 153 992 l 509 992 q 657 974 591 992 q 768 923 722 957 q 839 838 814 888 q 864 721 864 787 q 857 646 864 685 q 833 569 850 607 q 785 497 815 531 q 707 436 754 462 q 594 394 660 410 q 438 379 528 379 l 347 379 l 296 152 "},"¡":{"x_min":17,"x_max":443,"ha":549,"o":"m 258 -249 l 17 -249 l 257 427 l 337 427 l 258 -249 m 210 629 q 220 687 210 663 q 248 726 231 711 q 287 747 265 741 q 330 754 308 754 q 412 729 381 754 q 443 654 443 705 q 434 602 443 625 q 410 563 426 579 q 372 538 394 547 q 322 529 350 529 q 278 535 298 529 q 242 553 257 541 q 218 584 226 565 q 210 629 210 603 "},"[":{"x_min":29,"x_max":676.03125,"ha":575,"o":"m 29 -178 l 291 1055 l 676 1055 l 661 981 l 601 981 q 557 978 578 981 q 517 964 535 974 q 485 934 499 953 q 465 881 471 914 l 277 -4 q 274 -23 275 -15 q 273 -38 273 -31 q 280 -73 273 -60 q 301 -93 288 -86 q 332 -102 314 -100 q 369 -104 349 -104 l 429 -104 l 413 -178 l 29 -178 "},"L":{"x_min":-31.734375,"x_max":858,"ha":908,"o":"m 565 84 q 631 94 603 84 q 679 122 658 103 q 715 169 700 141 q 744 236 731 198 l 769 310 l 858 310 l 781 0 l -31 0 l -16 73 l 1 73 q 43 76 23 73 q 81 88 64 79 q 111 113 98 97 q 129 156 123 129 l 270 823 q 279 871 279 859 q 272 895 279 886 q 251 910 264 905 q 219 917 238 915 q 179 918 200 918 l 161 918 l 176 992 l 655 992 l 640 918 l 622 918 q 578 915 599 918 q 539 903 556 912 q 508 878 521 895 q 490 833 495 861 l 333 84 l 565 84 "}," ":{"x_min":0,"x_max":0,"ha":361},"%":{"x_min":100,"x_max":1198,"ha":1245,"o":"m 356 0 l 249 0 l 938 992 l 1043 992 l 356 0 m 100 591 q 108 682 100 635 q 133 776 116 730 q 176 863 150 822 q 238 937 202 905 q 318 987 273 968 q 419 1006 363 1006 q 510 990 472 1006 q 572 947 548 974 q 609 881 597 919 q 621 799 621 843 q 612 713 621 759 q 587 621 604 666 q 543 534 570 576 q 480 459 517 492 q 398 408 444 427 q 296 389 352 389 q 214 402 251 389 q 153 441 178 415 q 113 504 127 466 q 100 591 100 542 m 415 933 q 365 914 388 933 q 324 866 342 896 q 292 798 306 836 q 269 721 278 760 q 255 644 260 681 q 250 580 250 608 q 264 493 250 525 q 311 460 277 460 q 361 478 338 460 q 402 527 384 497 q 434 595 420 557 q 457 673 448 633 q 471 749 467 712 q 476 814 476 786 q 463 900 476 869 q 415 933 450 932 m 677 188 q 685 279 677 232 q 710 373 693 327 q 753 461 727 419 q 815 534 779 502 q 895 584 850 565 q 996 603 940 603 q 1087 587 1049 603 q 1149 543 1125 571 q 1186 478 1174 516 q 1198 395 1198 440 q 1189 310 1198 355 q 1164 218 1181 264 q 1120 130 1147 172 q 1057 56 1094 89 q 975 5 1021 24 q 873 -14 929 -14 q 791 0 828 -14 q 730 37 755 12 q 690 101 704 63 q 677 188 677 139 m 992 530 q 942 511 965 530 q 901 463 919 493 q 869 395 883 433 q 846 317 855 357 q 832 241 837 278 q 827 177 827 204 q 841 89 827 122 q 888 56 854 56 q 938 75 915 56 q 979 123 961 93 q 1011 191 997 153 q 1034 269 1025 230 q 1048 346 1044 309 q 1053 410 1053 383 q 1040 497 1053 466 q 992 530 1027 529 "},"P":{"x_min":-31.734375,"x_max":928,"ha":921,"o":"m 413 460 l 472 460 q 579 479 535 460 q 649 532 622 498 q 689 613 677 566 q 701 717 701 660 q 689 806 701 769 q 656 865 677 842 q 606 899 635 888 q 542 909 576 909 l 511 909 l 413 460 m 347 152 q 343 135 345 145 q 341 120 341 126 q 349 96 341 105 q 370 82 356 87 q 402 75 384 77 q 443 73 421 73 l 489 73 l 473 0 l -31 0 l -16 73 l 1 73 q 43 76 23 73 q 81 88 64 79 q 111 113 98 97 q 129 156 123 129 l 270 823 q 279 871 279 859 q 272 895 279 886 q 251 910 264 905 q 219 917 238 915 q 179 918 200 918 l 161 918 l 176 992 l 573 992 q 721 974 655 992 q 832 923 786 957 q 903 838 878 888 q 928 721 928 787 q 921 646 928 685 q 897 569 914 607 q 849 497 879 531 q 771 436 818 462 q 658 394 724 410 q 502 379 592 379 l 397 379 l 347 152 "},"À":{"x_min":-68.03125,"x_max":987.875,"ha":1046,"o":"m 296 326 l 229 201 q 209 157 215 176 q 202 123 202 138 q 221 85 202 97 q 280 73 240 73 l 308 73 l 292 0 l -68 0 l -53 73 l -23 73 q 9 78 -4 73 q 37 94 24 82 q 65 128 51 107 q 99 181 80 149 l 571 992 l 761 992 l 878 173 q 887 133 881 151 q 902 102 892 115 q 926 81 911 88 q 962 73 941 73 l 987 73 l 972 0 l 514 0 l 529 73 l 561 73 q 632 87 606 73 q 658 132 658 101 q 658 155 658 143 q 656 176 657 166 l 635 326 l 296 326 m 600 644 q 594 701 597 675 q 588 753 591 728 q 584 802 586 778 q 582 851 582 826 q 561 805 572 826 q 540 761 551 783 q 514 714 528 739 q 482 657 500 690 l 344 411 l 626 411 l 600 644 m 669 1071 q 606 1115 640 1088 q 541 1172 572 1142 q 484 1230 510 1201 q 443 1278 458 1258 l 448 1293 l 652 1293 q 673 1238 660 1267 q 701 1182 686 1209 q 729 1129 715 1154 q 756 1089 744 1105 l 752 1071 l 669 1071 "},"_":{"x_min":-126,"x_max":542,"ha":638,"o":"m 523 -197 l -126 -197 l -108 -115 l 542 -115 l 523 -197 "},"ñ":{"x_min":61.5,"x_max":920.78125,"ha":933,"o":"m 543 128 q 565 293 543 188 l 587 403 q 594 437 590 417 q 602 478 598 456 q 609 520 606 499 q 612 559 612 542 q 610 586 612 572 q 601 612 608 600 q 584 631 595 623 q 554 638 572 638 q 507 622 530 638 q 462 580 484 606 q 421 521 440 554 q 385 452 401 487 q 358 383 369 417 q 340 322 346 349 l 269 0 l 61 0 l 178 552 q 181 571 180 561 q 184 589 183 580 q 186 603 186 597 q 187 612 187 610 q 183 643 187 631 q 170 660 179 654 q 147 669 161 667 q 114 671 134 671 l 89 671 l 101 745 l 410 745 l 394 595 l 403 595 q 457 667 429 637 q 518 718 486 698 q 589 748 551 738 q 673 758 627 758 q 748 745 717 758 q 796 710 778 732 q 823 659 815 688 q 831 598 831 630 q 829 560 831 580 q 823 520 827 540 q 815 479 819 500 q 807 441 810 459 l 776 292 q 762 221 768 254 q 757 159 757 188 q 769 112 757 129 q 806 96 782 96 q 845 104 827 96 q 887 128 863 112 l 920 81 q 883 46 904 64 q 836 15 862 29 q 778 -5 810 2 q 708 -14 746 -14 q 585 23 628 -14 q 543 128 543 61 m 675 974 q 706 980 693 974 q 728 996 719 986 q 743 1020 737 1007 q 752 1048 749 1033 l 836 1048 q 813 978 828 1014 q 775 911 798 941 q 722 861 752 881 q 654 842 692 842 q 587 855 617 842 q 532 885 557 869 q 485 916 507 902 q 441 929 463 929 q 414 923 427 929 q 391 907 401 917 q 374 883 381 896 q 364 856 367 870 l 282 856 q 304 923 288 887 q 344 990 319 960 q 400 1041 368 1021 q 469 1062 431 1062 q 534 1048 505 1062 q 587 1018 563 1034 q 632 987 611 1001 q 675 974 654 974 "},"+":{"x_min":112,"x_max":707.375,"ha":777,"o":"m 459 446 l 459 198 l 359 198 l 359 446 l 112 446 l 112 546 l 359 546 l 359 794 l 459 794 l 459 546 l 707 546 l 707 446 l 459 446 "},"½":{"x_min":36.828125,"x_max":1130,"ha":1167,"o":"m 434 999 l 335 531 q 330 509 331 519 q 329 495 329 499 q 334 476 329 483 q 346 465 338 469 q 363 461 353 462 q 384 460 373 460 l 441 460 l 428 399 l 36 399 l 49 460 l 120 460 q 145 461 133 460 q 166 468 156 463 q 182 484 175 474 q 193 512 190 495 l 276 906 q 206 844 237 868 q 150 820 175 820 q 120 840 131 820 q 110 889 110 860 q 143 896 127 891 q 177 908 159 901 q 215 927 194 916 q 259 952 235 937 l 331 999 l 434 999 m 305 0 l 187 0 l 891 992 l 1008 992 l 305 0 m 610 0 l 629 99 l 834 249 q 905 308 876 280 q 950 363 933 336 q 974 418 967 391 q 981 475 981 446 q 978 501 981 488 q 968 524 975 514 q 950 540 961 534 q 923 546 939 546 q 888 535 903 546 q 860 504 872 523 q 841 460 849 485 q 830 408 833 436 q 753 428 781 408 q 725 479 725 448 q 739 531 725 507 q 782 572 754 555 q 850 599 811 590 q 941 609 890 609 q 1019 599 985 609 q 1079 574 1054 590 q 1116 534 1103 558 q 1130 483 1130 511 q 1120 427 1130 454 q 1086 371 1110 400 q 1023 309 1062 342 q 924 233 983 275 l 751 107 l 955 107 q 1004 124 987 107 q 1028 164 1020 141 l 1039 193 l 1094 193 l 1055 0 l 610 0 "},"⅞":{"x_min":81,"x_max":1125,"ha":1167,"o":"m 223 0 l 105 0 l 809 992 l 926 992 l 223 0 m 812 -10 q 719 1 760 -10 q 650 32 678 12 q 608 80 623 53 q 594 141 594 108 q 638 238 594 201 q 764 301 682 275 q 733 325 749 311 q 706 356 718 339 q 687 395 694 374 q 680 441 680 416 q 691 501 680 472 q 731 555 703 531 q 807 592 759 578 q 927 607 855 607 q 1007 598 971 607 q 1069 574 1043 590 q 1110 536 1095 558 q 1125 484 1125 513 q 1112 425 1125 450 q 1077 382 1099 400 q 1028 351 1055 364 q 970 326 1000 337 q 1053 263 1023 300 q 1083 177 1083 226 q 1066 99 1083 134 q 1015 40 1049 65 q 931 3 981 16 q 812 -10 880 -10 m 824 51 q 905 76 876 51 q 935 144 935 100 q 909 209 935 179 q 830 261 882 240 q 795 240 812 252 q 764 213 778 228 q 742 178 751 197 q 734 134 734 158 q 740 103 734 118 q 758 76 746 88 q 786 58 769 65 q 824 51 802 51 m 897 362 q 929 383 915 372 q 953 406 943 394 q 967 434 962 419 q 973 470 973 450 q 969 497 973 484 q 958 521 965 511 q 939 539 950 532 q 912 545 927 545 q 879 539 894 545 q 854 520 865 532 q 837 491 843 508 q 831 457 831 475 q 850 399 831 423 q 897 362 869 375 m 92 399 l 444 880 l 213 880 q 178 871 190 880 q 159 840 166 861 l 144 796 l 81 796 l 126 992 l 571 992 l 552 908 l 211 399 l 92 399 "},"Æ":{"x_min":-60.84375,"x_max":1413,"ha":1380,"o":"m 1413 992 l 1364 733 l 1265 733 q 1267 750 1266 737 q 1269 775 1268 762 q 1271 800 1270 788 q 1272 813 1272 811 q 1267 850 1272 833 q 1250 879 1261 867 q 1219 900 1238 892 q 1174 907 1201 907 l 988 907 l 914 560 l 1231 560 l 1212 476 l 897 476 l 813 84 l 1033 84 q 1091 93 1066 84 q 1136 118 1117 103 q 1168 154 1155 134 q 1190 198 1182 175 l 1212 258 l 1311 258 l 1247 0 l 450 0 l 465 73 l 483 73 q 525 76 505 73 q 563 88 546 79 q 593 113 580 97 q 611 156 605 129 l 645 318 l 328 318 l 245 201 q 216 149 225 172 q 207 115 207 126 q 226 83 207 93 q 280 73 245 73 l 304 73 l 289 0 l -60 0 l -45 73 l -28 73 q 6 80 -10 73 q 40 100 23 86 q 76 133 57 113 q 115 181 94 154 l 661 911 l 571 918 l 586 992 l 1413 992 m 755 907 l 390 402 l 662 402 l 769 907 l 755 907 "},"₣":{"x_min":-24.921875,"x_max":875,"ha":777,"o":"m 374 318 l 562 318 l 546 237 l 357 237 l 342 164 q 336 137 338 148 q 335 120 335 126 q 342 96 335 105 q 363 82 350 87 q 395 75 377 77 q 436 73 414 73 l 482 73 l 466 0 l -24 0 l -9 73 l 8 73 q 50 76 30 73 q 88 88 71 79 q 117 113 105 96 q 136 156 130 129 l 153 237 l 31 237 l 47 318 l 170 318 l 278 823 q 286 871 286 861 q 278 895 286 886 q 258 910 271 905 q 226 917 245 915 q 186 918 207 918 l 168 918 l 183 992 l 875 992 l 826 733 l 727 733 q 729 757 728 744 q 732 782 731 770 q 733 802 733 794 q 734 813 734 811 q 729 850 734 833 q 711 880 723 867 q 679 900 699 892 q 630 907 660 907 l 500 907 l 419 528 l 690 528 l 673 445 l 402 445 l 374 318 "},"Ë":{"x_min":-31.734375,"x_max":931,"ha":879,"o":"m -16 73 l 1 73 q 43 76 23 73 q 81 88 64 79 q 111 113 98 97 q 129 156 123 129 l 273 839 q 277 856 276 846 q 279 871 279 865 q 272 895 279 886 q 251 910 264 905 q 219 917 238 915 q 179 918 200 918 l 161 918 l 176 992 l 931 992 l 882 733 l 783 733 q 785 750 784 737 q 787 775 786 762 q 789 800 788 788 q 790 813 790 811 q 785 850 790 833 q 768 879 779 867 q 737 900 756 892 q 692 907 719 907 l 507 907 l 433 560 l 749 560 l 730 476 l 415 476 l 331 84 l 551 84 q 610 93 584 84 q 654 118 635 103 q 687 155 673 134 q 708 199 700 175 l 730 259 l 830 259 l 765 0 l -31 0 l -16 73 m 550 1190 q 542 1144 550 1163 q 523 1114 535 1126 q 497 1098 512 1103 q 467 1093 482 1093 q 412 1111 433 1093 q 391 1169 391 1130 q 413 1240 391 1213 q 474 1267 435 1267 q 529 1247 507 1267 q 550 1190 550 1228 m 840 1190 q 832 1144 840 1163 q 813 1114 825 1126 q 787 1098 802 1103 q 757 1093 772 1093 q 702 1111 723 1093 q 681 1169 681 1130 q 703 1240 681 1213 q 764 1267 725 1267 q 819 1247 797 1267 q 840 1190 840 1228 "},"'":{"x_min":211,"x_max":447,"ha":403,"o":"m 230 992 l 447 992 l 302 610 l 211 610 l 230 992 "},"ª":{"x_min":106,"x_max":665.75,"ha":599,"o":"m 524 530 q 452 548 477 530 q 427 599 427 567 q 429 638 427 616 q 433 675 431 660 l 428 675 q 390 616 410 643 q 347 571 370 590 q 297 541 324 552 q 240 531 270 531 q 180 543 205 531 q 138 575 154 555 q 113 624 121 596 q 106 684 106 652 q 114 753 106 717 q 139 824 122 789 q 182 890 156 859 q 243 945 208 921 q 322 983 278 969 q 421 997 367 997 q 483 988 458 997 q 529 967 508 980 l 578 987 l 625 987 l 574 734 q 563 682 568 705 q 558 642 558 660 q 587 606 558 606 q 616 613 601 606 q 647 629 631 619 l 665 595 q 642 574 656 586 q 609 553 627 563 q 569 536 591 543 q 524 530 547 530 m 268 692 q 271 654 268 669 q 281 629 274 639 q 294 616 287 620 q 311 612 302 612 q 349 628 329 612 q 386 670 369 645 q 416 725 403 696 q 436 780 430 754 l 469 912 q 444 931 461 925 q 409 938 426 938 q 367 926 386 938 q 331 894 347 914 q 304 849 316 874 q 284 796 292 823 q 272 742 276 768 q 268 692 268 715 "},"ð":{"x_min":56,"x_max":799,"ha":855,"o":"m 56 277 q 67 368 56 320 q 100 465 78 417 q 156 558 123 514 q 236 637 190 603 q 341 691 283 671 q 469 712 398 712 q 536 701 504 712 q 590 674 568 691 q 558 773 580 728 q 502 853 536 817 l 285 752 l 305 849 l 436 910 q 367 950 404 933 q 291 980 330 967 l 317 1065 q 437 1024 379 1050 q 549 963 496 999 l 755 1058 l 734 959 l 619 906 q 692 823 659 868 q 749 725 725 778 q 786 609 773 672 q 799 474 799 547 q 787 354 799 413 q 751 240 775 294 q 690 139 727 186 q 603 58 653 93 q 489 5 553 24 q 347 -14 425 -14 q 229 3 283 -14 q 137 57 175 21 q 77 148 98 93 q 56 277 56 203 m 266 265 q 274 186 266 219 q 297 133 282 153 q 332 103 311 112 q 379 93 353 93 q 446 111 416 93 q 499 157 476 128 q 538 223 522 186 q 566 300 555 260 q 581 380 576 340 q 586 453 586 419 q 557 577 586 538 q 474 615 528 615 q 406 598 436 615 q 353 552 376 581 q 314 486 330 523 q 287 411 298 450 q 272 334 277 372 q 266 265 266 296 "},"T":{"x_min":94.390625,"x_max":1022.203125,"ha":907,"o":"m 144 0 l 160 73 l 177 73 q 220 76 199 73 q 257 88 240 79 q 287 113 274 97 q 306 156 299 129 l 462 907 l 351 907 q 296 899 318 907 q 256 875 273 890 q 228 836 240 859 q 206 782 217 813 l 187 723 l 94 723 l 158 992 l 1022 992 l 974 723 l 880 723 q 882 744 881 727 q 886 779 884 760 q 890 814 888 798 q 891 834 891 830 q 869 888 891 870 q 794 907 847 907 l 683 907 l 523 152 q 520 135 522 145 q 518 120 518 126 q 525 96 518 105 q 546 82 533 87 q 578 75 560 77 q 619 73 597 73 l 637 73 l 622 0 l 144 0 "},"Þ":{"x_min":-31.734375,"x_max":886,"ha":886,"o":"m -31 0 l -16 73 l 1 73 q 43 76 23 73 q 81 88 64 79 q 111 113 98 96 q 129 156 123 129 l 273 839 q 277 856 276 846 q 279 871 279 865 q 272 895 279 886 q 251 910 264 905 q 219 917 238 915 q 179 918 200 918 l 161 918 l 176 992 l 655 992 l 640 918 l 622 918 q 578 915 599 918 q 539 903 556 912 q 508 878 521 895 q 490 834 495 861 l 486 813 l 531 813 q 679 795 613 813 q 790 744 744 778 q 861 659 836 709 q 886 542 886 608 q 879 467 886 506 q 855 390 872 428 q 807 317 837 352 q 729 257 776 283 q 616 215 682 231 q 461 200 549 200 l 356 200 l 347 152 q 344 135 346 145 q 341 120 341 126 q 349 96 341 105 q 370 82 356 87 q 402 75 384 77 q 443 73 421 73 l 461 73 l 445 0 l -31 0 m 373 280 l 430 280 q 537 299 493 280 q 608 352 580 318 q 647 434 635 386 q 659 538 659 481 q 647 626 659 589 q 614 686 635 663 q 563 720 593 709 q 499 730 534 730 l 469 730 l 373 280 "},"j":{"x_min":-194.484375,"x_max":457.765625,"ha":469,"o":"m 325 869 q 282 875 302 869 q 248 890 263 880 q 225 918 233 901 q 217 956 217 934 q 227 1007 217 986 q 255 1043 238 1029 q 297 1063 273 1057 q 346 1070 320 1070 q 388 1065 368 1070 q 424 1049 408 1060 q 448 1022 439 1038 q 457 982 457 1005 q 446 932 457 954 q 416 897 435 911 q 374 876 398 883 q 325 869 350 869 m 421 745 l 259 -10 q 209 -166 240 -103 q 135 -265 177 -228 q 44 -318 93 -302 q -56 -334 -3 -334 q -132 -329 -100 -334 q -194 -317 -164 -324 l -177 -244 q -148 -251 -167 -247 q -115 -254 -130 -254 q -58 -242 -82 -254 q -15 -202 -34 -230 q 18 -127 3 -173 q 49 -10 34 -80 l 168 552 q 172 571 170 561 q 175 589 173 580 q 177 603 176 597 q 177 612 177 609 q 173 643 177 631 q 160 660 169 654 q 138 669 152 667 q 104 671 124 671 l 79 671 l 91 745 l 421 745 "},"1":{"x_min":55.78125,"x_max":657.375,"ha":777,"o":"m 657 997 l 481 168 q 475 143 479 159 q 472 119 472 128 q 480 95 472 104 q 502 81 487 86 q 535 75 516 76 q 576 73 554 73 l 644 73 l 629 0 l 55 0 l 70 73 l 152 73 q 232 93 202 73 q 273 164 263 113 l 380 669 q 397 746 389 711 q 412 806 405 780 q 426 860 419 836 l 421 860 q 361 799 388 826 q 310 753 333 772 q 264 725 286 735 q 219 715 242 715 q 171 742 190 715 q 152 817 152 769 q 201 832 176 824 q 255 852 226 840 q 316 882 283 864 q 388 925 349 899 l 501 997 l 657 997 "},"ä":{"x_min":56,"x_max":876.578125,"ha":924,"o":"m 657 -14 q 558 14 595 -14 q 521 96 521 42 q 523 138 521 118 q 530 186 525 159 l 521 186 q 469 100 495 138 q 413 37 444 63 q 343 0 382 12 q 254 -14 305 -14 q 167 5 205 -14 q 105 58 130 24 q 68 138 81 92 q 56 239 56 185 q 68 353 56 293 q 106 470 81 412 q 168 580 131 528 q 253 671 205 632 q 361 734 302 711 q 492 758 421 758 q 547 753 519 758 q 601 742 575 749 q 649 727 627 735 q 688 709 672 718 l 761 743 l 835 743 l 743 309 q 736 279 740 298 q 729 238 732 260 q 722 197 725 217 q 719 163 719 177 q 733 112 719 129 q 768 95 747 95 q 806 103 788 95 q 846 124 824 112 l 876 68 q 836 40 858 55 q 786 13 814 26 q 727 -6 759 1 q 657 -14 694 -14 m 266 238 q 272 171 266 198 q 288 127 278 144 q 312 103 298 110 q 342 96 325 96 q 405 123 372 96 q 466 192 437 149 q 517 289 494 235 q 551 399 540 344 l 600 630 q 562 659 586 650 q 511 669 538 669 q 437 648 471 669 q 376 591 403 627 q 328 511 349 556 q 294 418 308 466 q 273 323 280 370 q 266 238 266 276 m 447 961 q 439 915 447 934 q 420 885 432 897 q 394 869 409 874 q 364 864 379 864 q 309 882 330 864 q 288 940 288 901 q 310 1011 288 984 q 371 1038 332 1038 q 426 1018 404 1038 q 447 961 447 999 m 737 961 q 729 915 737 934 q 710 885 722 897 q 684 869 699 874 q 654 864 669 864 q 599 882 620 864 q 578 940 578 901 q 600 1011 578 984 q 661 1038 622 1038 q 716 1018 694 1038 q 737 961 737 999 "},"<":{"x_min":113,"x_max":708,"ha":777,"o":"m 113 468 l 113 525 l 708 850 l 708 740 l 261 496 l 708 254 l 708 145 l 113 468 "},"£":{"x_min":-8,"x_max":808,"ha":777,"o":"m 407 482 q 408 468 407 477 q 409 451 409 460 q 410 431 410 441 q 411 412 411 421 q 397 334 411 369 q 358 270 384 299 q 295 215 332 240 q 209 166 257 189 l 211 161 q 277 180 247 174 q 334 185 307 185 q 398 177 365 185 q 463 160 431 169 q 523 143 494 151 q 573 135 551 135 q 615 138 596 135 q 649 148 633 141 q 680 165 665 154 q 714 190 696 175 l 759 120 q 715 80 742 103 q 655 36 688 57 q 585 0 622 15 q 514 -14 549 -14 q 447 -4 480 -14 q 379 18 414 5 q 308 40 345 30 q 228 50 270 50 q 176 47 200 50 q 132 40 153 45 q 89 27 110 35 q 44 8 68 19 l 22 -1 l -8 72 l 38 102 q 108 150 73 122 q 171 214 143 178 q 217 295 199 250 q 235 392 235 339 q 232 437 235 415 q 226 481 230 459 l 66 481 l 86 566 l 216 566 q 207 627 212 591 q 203 697 203 663 q 228 828 203 770 q 301 925 254 886 q 415 985 348 964 q 564 1006 482 1006 q 668 994 623 1006 q 745 961 714 982 q 792 913 776 940 q 808 854 808 886 q 763 763 808 795 q 634 732 718 732 q 607 874 634 827 q 532 921 579 921 q 424 862 462 921 q 387 697 387 804 q 392 623 387 656 q 400 566 397 589 l 647 566 l 628 481 l 407 482 "},"¹":{"x_min":88.828125,"x_max":493.046875,"ha":555,"o":"m 486 999 l 387 531 q 382 509 383 519 q 381 495 381 499 q 386 476 381 483 q 398 465 390 469 q 415 461 405 462 q 436 460 425 460 l 493 460 l 480 399 l 88 399 l 101 460 l 172 460 q 197 461 185 460 q 218 468 208 463 q 234 484 227 474 q 245 512 242 495 l 328 906 q 258 844 289 868 q 202 820 227 820 q 172 840 183 820 q 162 889 162 860 q 195 896 179 891 q 229 908 211 901 q 267 927 246 916 q 311 952 287 937 l 383 999 l 486 999 "},"t":{"x_min":83.5,"x_max":591.203125,"ha":579,"o":"m 375 99 q 434 110 407 99 q 483 135 460 120 l 515 82 q 467 45 492 63 q 411 14 441 28 q 347 -6 381 1 q 273 -14 313 -14 q 202 -4 235 -14 q 145 25 169 5 q 106 76 120 45 q 93 148 93 106 q 94 175 93 160 q 97 205 95 190 q 101 236 99 221 q 107 265 104 252 l 190 650 l 83 650 l 98 721 q 163 731 128 721 q 235 764 198 741 q 309 825 272 787 q 379 916 346 862 l 459 916 l 423 745 l 591 745 l 572 650 l 403 650 l 319 269 q 309 213 312 238 q 305 169 305 189 q 324 116 305 134 q 375 99 343 99 "},"¬":{"x_min":113,"x_max":708,"ha":777,"o":"m 708 546 l 708 199 l 608 199 l 608 446 l 113 446 l 113 546 l 708 546 "},"ù":{"x_min":79.296875,"x_max":913.1875,"ha":935,"o":"m 537 119 q 538 133 537 125 q 539 150 538 141 q 541 166 540 159 q 544 180 542 174 l 532 180 q 472 101 502 136 q 410 40 443 66 q 338 1 376 15 q 250 -12 299 -12 q 174 0 205 -12 q 126 33 144 12 q 99 82 107 54 q 91 141 91 110 q 99 217 91 176 q 115 294 107 258 l 165 539 q 174 590 170 567 q 177 625 177 614 q 160 662 177 653 q 104 671 143 671 l 79 671 l 91 745 l 425 745 l 333 328 q 325 292 329 312 q 318 251 321 271 q 312 212 314 230 q 309 181 309 194 q 322 132 309 150 q 369 114 335 114 q 432 142 400 114 q 494 213 464 169 q 546 311 523 257 q 582 417 570 365 l 656 745 l 863 745 l 768 292 q 754 221 759 254 q 749 159 749 188 q 761 112 749 129 q 797 96 774 96 q 837 104 819 96 q 879 128 855 112 l 913 81 q 875 46 896 64 q 828 15 854 29 q 770 -5 801 2 q 700 -14 738 -14 q 622 -3 653 -14 q 572 25 591 7 q 545 67 553 43 q 537 119 537 91 m 510 842 q 447 886 481 859 q 382 943 413 913 q 325 1001 351 972 q 284 1049 299 1029 l 289 1064 l 493 1064 q 514 1009 501 1038 q 542 953 527 980 q 570 900 556 925 q 597 860 585 876 l 593 842 l 510 842 "},"W":{"x_min":119.203125,"x_max":1621.203125,"ha":1482,"o":"m 1605 918 l 1572 918 q 1536 914 1552 918 q 1507 899 1520 910 q 1481 868 1494 888 q 1453 816 1467 848 l 1064 0 l 905 0 l 809 662 l 471 0 l 299 0 l 225 851 q 215 885 222 872 q 196 906 208 899 q 169 916 184 914 q 137 918 154 918 l 119 918 l 134 992 l 588 992 l 573 918 l 541 918 q 470 907 496 918 q 444 863 444 896 q 444 836 444 851 q 446 802 445 821 l 473 455 q 477 407 475 437 q 481 344 479 377 q 483 278 482 310 q 484 223 484 246 q 518 305 499 264 q 558 387 537 346 l 868 982 l 969 982 l 1048 451 q 1065 326 1058 386 q 1072 221 1072 265 q 1092 274 1080 244 q 1117 339 1103 305 q 1147 409 1131 373 q 1178 478 1162 444 l 1332 810 q 1347 849 1341 829 q 1353 884 1353 869 q 1335 911 1353 904 q 1276 918 1316 918 l 1244 918 l 1258 992 l 1621 992 l 1605 918 "},"ï":{"x_min":79.296875,"x_max":531.375,"ha":492,"o":"m 421 745 l 324 292 q 311 221 316 254 q 305 159 305 188 q 318 112 305 129 q 353 96 330 96 q 393 104 375 96 q 436 128 412 112 l 469 81 q 431 46 452 64 q 384 15 410 29 q 326 -5 358 2 q 256 -14 294 -14 q 134 23 176 -14 q 91 128 91 61 q 96 199 91 158 q 113 294 102 241 l 168 552 q 171 571 170 561 q 174 589 173 580 q 176 603 176 597 q 177 612 177 609 q 173 643 177 631 q 160 660 169 654 q 137 669 151 667 q 104 671 124 671 l 79 671 l 91 745 l 421 745 m 241 961 q 233 915 241 934 q 214 885 226 897 q 188 869 203 874 q 158 864 173 864 q 103 882 124 864 q 82 940 82 901 q 104 1011 82 984 q 165 1038 126 1038 q 220 1018 198 1038 q 241 961 241 999 m 531 961 q 523 915 531 934 q 504 885 516 897 q 478 869 493 874 q 448 864 463 864 q 393 882 414 864 q 372 940 372 901 q 394 1011 372 984 q 455 1038 416 1038 q 510 1018 488 1038 q 531 961 531 999 "},">":{"x_min":113,"x_max":708,"ha":777,"o":"m 113 145 l 113 254 l 559 496 l 113 740 l 113 850 l 708 525 l 708 468 l 113 145 "},"v":{"x_min":22.125,"x_max":770,"ha":814,"o":"m 132 597 q 120 633 127 619 q 100 656 112 648 q 72 667 88 664 q 35 671 56 671 l 22 671 l 38 745 l 311 745 l 374 333 q 389 208 385 263 q 397 118 393 152 l 401 118 q 492 223 448 167 q 569 336 535 279 q 622 446 602 392 q 641 542 641 499 q 615 610 641 588 q 550 632 588 632 q 581 723 550 689 q 665 757 612 757 q 706 749 687 757 q 739 727 725 742 q 761 687 753 711 q 770 628 770 662 q 752 514 770 573 q 705 396 734 455 q 639 279 677 337 q 562 171 602 222 q 484 76 522 120 q 413 1 445 32 l 230 -12 l 132 597 "},"û":{"x_min":79.296875,"x_max":913.1875,"ha":935,"o":"m 537 119 q 538 133 537 125 q 539 150 538 141 q 541 166 540 159 q 544 180 542 174 l 532 180 q 472 101 502 136 q 410 40 443 66 q 338 1 376 15 q 250 -12 299 -12 q 174 0 205 -12 q 126 33 144 12 q 99 82 107 54 q 91 141 91 110 q 99 217 91 176 q 115 294 107 258 l 165 539 q 174 590 170 567 q 177 625 177 614 q 160 662 177 653 q 104 671 143 671 l 79 671 l 91 745 l 425 745 l 333 328 q 325 292 329 312 q 318 251 321 271 q 312 212 314 230 q 309 181 309 194 q 322 132 309 150 q 369 114 335 114 q 432 142 400 114 q 494 213 464 169 q 546 311 523 257 q 582 417 570 365 l 656 745 l 863 745 l 768 292 q 754 221 759 254 q 749 159 749 188 q 761 112 749 129 q 797 96 774 96 q 837 104 819 96 q 879 128 855 112 l 913 81 q 875 46 896 64 q 828 15 854 29 q 770 -5 801 2 q 700 -14 738 -14 q 622 -3 653 -14 q 572 25 591 7 q 545 67 553 43 q 537 119 537 91 m 306 860 q 352 905 326 879 q 405 957 377 930 q 457 1012 432 984 q 503 1064 483 1039 l 690 1064 q 712 1015 699 1042 q 741 960 726 988 q 771 906 756 932 q 799 860 786 879 l 794 842 l 707 842 q 678 869 695 853 q 645 901 662 884 q 612 935 628 918 q 583 966 595 952 q 542 935 565 952 q 495 901 518 918 q 449 869 471 884 q 409 842 426 853 l 302 842 l 306 860 "},"Ò":{"x_min":87,"x_max":1063,"ha":1100,"o":"m 87 369 q 103 509 87 435 q 153 653 120 582 q 236 788 186 724 q 351 900 285 852 q 498 978 416 949 q 678 1007 581 1007 q 825 984 755 1007 q 947 915 894 962 q 1031 796 1000 868 q 1063 625 1063 724 q 1047 488 1063 561 q 998 344 1031 416 q 918 208 966 273 q 804 93 869 143 q 656 13 738 43 q 474 -16 573 -16 q 321 8 392 -16 q 198 82 250 33 q 116 203 146 131 q 87 369 87 275 m 313 336 q 328 218 313 267 q 368 137 342 169 q 428 91 393 106 q 502 76 462 76 q 607 104 560 76 q 691 178 654 131 q 756 284 729 224 q 802 409 784 344 q 829 537 820 473 q 837 656 837 602 q 823 773 837 724 q 784 854 809 822 q 725 901 759 886 q 649 916 690 916 q 544 888 591 916 q 460 814 497 861 q 395 708 422 768 q 349 583 367 648 q 322 454 331 518 q 313 336 313 390 m 666 1071 q 603 1115 637 1088 q 538 1172 569 1142 q 481 1230 507 1201 q 440 1278 455 1258 l 445 1293 l 649 1293 q 670 1238 657 1267 q 698 1182 683 1209 q 726 1129 712 1154 q 753 1089 741 1105 l 749 1071 l 666 1071 "},"&":{"x_min":47,"x_max":1100,"ha":1112,"o":"m 752 0 l 683 95 q 549 16 625 46 q 371 -14 472 -14 q 226 5 287 -14 q 125 60 165 25 q 66 143 85 95 q 47 247 47 190 q 71 365 47 316 q 137 450 95 414 q 233 512 178 486 q 349 560 288 538 q 300 665 317 614 q 284 766 284 717 q 305 870 284 826 q 365 945 326 915 q 463 990 405 975 q 595 1006 521 1006 q 706 992 659 1006 q 783 953 752 978 q 828 896 813 929 q 843 825 843 863 q 828 740 843 777 q 782 673 814 704 q 698 615 749 643 q 571 557 646 588 l 742 333 q 783 435 766 383 q 810 538 800 487 l 821 591 l 1100 591 l 1084 517 l 1072 517 q 1026 515 1048 517 q 982 502 1003 512 q 941 474 960 492 q 906 424 922 456 q 862 338 885 384 q 808 245 838 292 l 895 130 q 948 88 916 102 q 1024 73 979 73 l 1035 73 l 1019 0 l 752 0 m 251 257 q 262 186 251 219 q 293 129 272 153 q 345 92 314 106 q 414 78 375 78 q 532 103 479 78 q 628 170 586 128 l 402 484 q 332 437 360 461 q 285 385 303 412 q 259 326 267 357 q 251 257 251 294 m 684 805 q 660 891 684 860 q 585 922 635 922 q 539 913 561 922 q 503 885 518 903 q 479 839 488 866 q 471 777 471 812 q 484 701 471 737 q 525 624 498 665 q 598 661 568 643 q 648 701 629 680 q 676 747 667 722 q 684 805 684 773 "},"Ð":{"x_min":-33.09375,"x_max":1042,"ha":1067,"o":"m -18 73 l 1 73 q 43 76 23 73 q 81 88 64 79 q 111 113 98 97 q 129 156 123 129 l 196 476 l 82 476 l 100 561 l 214 561 l 273 839 q 277 856 275 846 q 278 871 278 865 q 271 895 278 886 q 250 910 263 905 q 219 917 237 915 q 179 918 200 918 l 160 918 l 176 992 l 620 992 q 798 967 720 992 q 930 895 876 943 q 1013 776 985 847 q 1042 614 1042 706 q 1024 453 1042 531 q 973 307 1007 375 q 890 182 940 239 q 776 85 841 126 q 630 22 710 44 q 455 0 550 0 l -33 0 l -18 73 m 396 86 q 570 125 493 86 q 700 237 647 165 q 780 407 753 308 q 808 625 808 506 q 791 751 808 698 q 742 839 774 804 q 665 890 710 873 q 565 907 620 907 l 506 907 l 433 561 l 608 561 l 590 476 l 415 476 l 333 86 l 396 86 "},"I":{"x_min":-31.734375,"x_max":655.984375,"ha":557,"o":"m -31 0 l -16 73 l 1 73 q 43 76 23 73 q 81 88 64 79 q 111 113 98 97 q 129 156 123 129 l 273 839 q 277 856 276 846 q 279 871 279 865 q 272 895 279 886 q 251 910 264 905 q 219 917 238 915 q 179 918 200 918 l 161 918 l 176 992 l 655 992 l 640 918 l 622 918 q 578 915 599 918 q 539 903 556 912 q 508 878 521 895 q 490 833 495 861 l 347 152 q 344 135 346 145 q 341 120 341 126 q 349 96 341 105 q 370 82 356 87 q 402 75 384 77 q 443 73 421 73 l 461 73 l 445 0 l -31 0 "},"G":{"x_min":87,"x_max":1062.90625,"ha":1106,"o":"m 1047 399 l 1045 399 q 1001 396 1022 399 q 962 384 980 393 q 932 359 945 376 q 914 314 919 342 l 861 49 q 779 21 819 33 q 696 1 738 9 q 611 -10 655 -6 q 518 -14 566 -14 q 330 11 410 -14 q 195 85 249 37 q 114 202 141 133 q 87 357 87 271 q 108 530 87 447 q 168 685 129 613 q 264 816 207 757 q 393 917 321 875 q 549 982 464 959 q 730 1006 634 1006 q 869 991 810 1006 q 967 954 928 977 q 1026 901 1007 931 q 1046 840 1046 871 q 1030 789 1046 813 q 987 749 1014 766 q 922 721 959 731 q 844 711 885 711 q 835 792 844 754 q 806 858 826 830 q 757 901 787 885 q 687 917 728 917 q 586 895 634 917 q 496 834 538 873 q 421 742 455 796 q 364 625 388 689 q 327 489 340 561 q 314 341 314 416 q 326 235 314 283 q 363 152 337 187 q 428 99 388 118 q 524 80 468 80 q 590 85 556 80 q 648 99 623 91 l 694 305 q 702 352 702 342 q 695 376 702 367 q 674 391 687 386 q 643 398 661 396 q 603 399 624 399 l 584 399 l 600 473 l 1062 473 l 1047 399 "},"`":{"x_min":337.921875,"x_max":650.0625,"ha":802,"o":"m 563 842 q 500 886 534 859 q 435 943 466 913 q 378 1001 404 972 q 337 1049 352 1029 l 342 1064 l 546 1064 q 567 1009 554 1038 q 595 953 580 980 q 623 900 609 925 q 650 860 638 876 l 646 842 l 563 842 "},"·":{"x_min":118,"x_max":351,"ha":423,"o":"m 351 506 q 340 447 351 472 q 312 409 330 423 q 273 388 295 394 q 230 382 252 382 q 149 406 180 382 q 118 481 118 430 q 126 532 118 509 q 150 572 134 555 q 188 597 166 588 q 238 606 210 606 q 282 599 262 606 q 318 581 303 593 q 342 550 334 569 q 351 506 351 531 "},"r":{"x_min":51.5,"x_max":774,"ha":765,"o":"m 177 622 q 160 659 177 648 q 104 671 143 671 l 79 671 l 91 745 l 398 745 l 369 553 l 376 553 q 424 642 400 604 q 477 705 448 680 q 542 744 505 731 q 628 758 579 758 q 738 730 702 758 q 774 649 774 702 q 731 542 774 577 q 609 507 689 507 q 606 563 609 538 q 595 607 603 589 q 574 634 588 625 q 541 644 561 644 q 500 628 522 644 q 456 584 478 612 q 414 518 434 556 q 374 434 393 480 q 339 340 355 389 q 313 240 323 290 l 261 0 l 51 0 l 169 558 q 174 588 171 569 q 177 622 177 607 "},"₤":{"x_min":-8,"x_max":808,"ha":777,"o":"m 407 482 q 408 469 407 477 q 409 451 409 460 q 410 431 410 442 q 411 413 411 421 q 411 404 411 408 q 409 396 411 400 l 610 396 l 592 312 l 386 312 q 318 232 363 267 q 209 166 273 197 l 211 161 q 277 180 247 174 q 334 185 307 185 q 398 177 365 185 q 463 160 431 169 q 523 143 494 151 q 572 135 551 135 q 615 138 596 135 q 649 148 633 141 q 680 165 665 154 q 714 190 696 175 l 759 120 q 715 80 742 103 q 655 36 688 57 q 585 0 622 15 q 514 -14 549 -14 q 447 -4 480 -14 q 379 18 414 5 q 308 40 345 30 q 228 50 270 50 q 176 47 200 50 q 132 40 153 45 q 89 27 110 35 q 44 8 68 19 l 22 -1 l -8 72 l 38 102 q 93 139 65 118 q 146 187 121 161 q 191 244 171 212 q 222 312 211 275 l 32 312 l 48 396 l 235 396 q 226 481 232 439 l 66 481 l 86 566 l 216 566 q 207 627 212 591 q 203 697 203 663 q 228 828 203 770 q 301 925 254 886 q 415 985 348 964 q 564 1006 482 1006 q 668 994 623 1006 q 745 961 714 982 q 792 913 776 940 q 808 854 808 886 q 763 763 808 795 q 634 732 718 732 q 607 874 634 827 q 532 921 579 921 q 424 862 462 921 q 387 697 387 804 q 392 623 387 656 q 400 566 397 589 l 647 566 l 628 481 l 407 482 "},"¿":{"x_min":3,"x_max":624,"ha":743,"o":"m 3 -33 q 29 77 3 27 q 102 168 55 127 q 211 242 148 209 q 349 301 275 275 l 399 426 l 488 426 l 491 253 q 379 204 429 231 q 294 143 329 177 q 239 64 258 108 q 220 -35 220 21 q 227 -97 220 -70 q 248 -141 234 -123 q 279 -169 262 -160 q 319 -179 297 -179 q 375 -162 352 -179 q 414 -117 398 -145 q 439 -53 430 -89 q 453 23 448 -16 q 624 -83 624 23 q 601 -153 624 -120 q 537 -211 579 -186 q 436 -249 495 -235 q 302 -264 376 -264 q 177 -250 233 -264 q 83 -208 122 -236 q 24 -137 45 -180 q 3 -33 3 -93 m 356 628 q 366 686 356 662 q 394 725 377 710 q 433 746 411 740 q 476 753 454 753 q 558 728 527 753 q 589 653 589 704 q 580 601 589 624 q 556 562 572 578 q 518 537 540 546 q 468 528 496 528 q 424 534 444 528 q 388 552 403 540 q 364 583 372 564 q 356 628 356 602 "},"ý":{"x_min":-233,"x_max":770,"ha":814,"o":"m 109 597 q 75 655 97 639 q 12 671 53 671 l 0 671 l 16 745 l 288 745 l 379 384 q 393 321 386 357 q 407 248 401 284 q 419 180 414 212 q 425 132 424 149 l 429 132 q 507 244 471 187 q 571 353 544 300 q 615 454 599 406 q 630 543 630 503 q 608 614 630 589 q 544 638 585 638 q 553 687 544 665 q 576 725 561 709 q 611 749 591 741 q 656 758 632 758 q 741 726 712 758 q 770 639 770 695 q 751 525 770 585 q 699 397 733 464 q 617 253 665 329 q 507 92 568 177 q 413 -36 457 22 q 326 -143 369 -95 q 240 -226 284 -190 q 147 -286 197 -262 q 40 -322 98 -310 q -88 -334 -17 -334 q -166 -327 -128 -334 q -233 -308 -203 -320 l -211 -230 q -166 -242 -195 -236 q -93 -249 -136 -249 q 22 -232 -30 -249 q 120 -186 75 -215 q 205 -118 165 -157 q 282 -36 245 -80 l 109 597 m 345 860 q 386 905 364 879 q 430 958 408 931 q 473 1013 452 986 q 510 1064 494 1040 l 728 1064 l 723 1049 q 694 1021 713 1037 q 651 985 675 1004 q 599 946 627 966 q 543 907 572 926 q 487 871 515 888 q 435 842 459 854 l 341 842 l 345 860 "},"x":{"x_min":-28,"x_max":843,"ha":839,"o":"m -28 0 l -13 73 l 3 73 q 39 76 23 73 q 71 89 55 80 q 106 116 87 99 q 151 162 125 134 l 326 355 l 230 586 q 208 629 219 612 q 186 654 198 645 q 158 667 173 664 q 124 671 144 671 l 108 671 l 121 745 l 382 745 l 480 481 l 673 745 l 843 745 l 829 671 l 804 671 q 767 667 783 671 q 736 651 752 662 q 702 621 720 640 q 659 571 684 601 l 516 405 l 617 172 q 641 124 630 143 q 665 93 652 105 q 692 78 677 82 q 727 73 707 73 l 746 73 l 731 0 l 462 0 l 357 280 l 141 0 l -28 0 "},"è":{"x_min":56,"x_max":736,"ha":743,"o":"m 419 91 q 483 100 453 91 q 540 126 514 110 q 586 162 566 142 q 622 203 607 182 q 635 177 630 193 q 640 144 640 161 q 623 91 640 118 q 573 39 607 63 q 488 1 540 16 q 365 -14 436 -14 q 245 3 301 -14 q 147 56 189 21 q 80 146 104 92 q 56 272 56 200 q 69 380 56 324 q 109 491 83 437 q 176 593 136 544 q 268 678 216 642 q 385 736 320 715 q 526 758 449 758 q 681 714 626 758 q 736 594 736 671 q 704 486 736 538 q 618 396 673 435 q 487 334 563 357 q 322 311 411 311 q 297 311 310 311 q 271 312 283 311 q 268 285 268 299 q 268 259 268 271 q 305 134 268 178 q 419 91 343 91 m 468 674 q 403 649 434 674 q 348 583 373 623 q 306 491 324 542 q 281 392 289 441 l 293 392 q 389 405 344 392 q 466 444 433 419 q 517 505 499 469 q 536 584 536 540 q 518 650 536 627 q 468 674 500 674 m 516 842 q 453 886 487 859 q 388 943 419 913 q 331 1001 357 972 q 290 1049 305 1029 l 295 1064 l 499 1064 q 520 1009 507 1038 q 548 953 533 980 q 576 900 562 925 q 603 860 591 876 l 599 842 l 516 842 "},"º":{"x_min":100,"x_max":626,"ha":566,"o":"m 626 826 q 617 764 626 797 q 592 697 609 731 q 550 634 575 664 q 489 580 524 603 q 410 542 454 556 q 313 529 366 529 q 225 540 264 529 q 158 573 186 551 q 115 628 130 596 q 100 703 100 661 q 109 769 100 735 q 135 836 118 803 q 180 898 153 868 q 241 950 206 927 q 320 985 277 972 q 415 999 364 999 q 497 988 459 999 q 564 957 535 978 q 609 904 592 936 q 626 826 626 871 m 470 830 q 455 901 470 876 q 408 925 441 925 q 345 902 373 925 q 297 846 317 880 q 267 771 278 811 q 257 697 257 731 q 272 624 257 650 q 319 598 288 598 q 385 622 357 598 q 432 680 413 645 q 460 756 450 716 q 470 830 470 796 "},"Ø":{"x_min":87,"x_max":1063,"ha":1100,"o":"m 87 369 q 103 509 87 435 q 153 653 120 582 q 236 788 186 724 q 351 900 285 852 q 498 978 416 949 q 678 1007 581 1007 q 879 960 788 1007 l 944 1048 l 1041 1048 l 943 918 q 1030 798 997 871 q 1063 625 1063 726 q 1047 488 1063 561 q 998 344 1031 416 q 918 208 966 273 q 804 93 869 143 q 656 13 738 43 q 474 -16 573 -16 q 370 -4 419 -16 q 276 28 320 7 l 213 -56 l 114 -56 l 211 70 q 120 193 153 119 q 87 369 87 268 m 313 336 q 325 223 313 270 l 791 844 q 730 898 766 880 q 649 916 693 916 q 544 888 591 916 q 460 814 497 861 q 395 708 422 768 q 349 583 367 648 q 322 454 331 518 q 313 336 313 390 m 837 656 q 835 712 837 686 q 826 760 832 739 l 363 144 q 424 92 388 108 q 502 76 460 76 q 607 104 560 76 q 691 178 654 131 q 756 284 729 224 q 802 409 784 344 q 829 537 820 473 q 837 656 837 602 "},"÷":{"x_min":113,"x_max":708,"ha":777,"o":"m 334 759 q 356 825 334 806 q 411 844 378 844 q 441 839 427 844 q 466 825 455 835 q 482 799 476 815 q 489 759 489 782 q 482 719 489 735 q 466 693 476 703 q 441 678 455 682 q 411 674 427 674 q 356 693 378 674 q 334 759 334 712 m 334 233 q 356 299 334 280 q 411 318 378 318 q 441 313 427 318 q 466 299 455 309 q 482 273 476 289 q 489 233 489 256 q 482 193 489 209 q 466 167 476 177 q 441 152 455 156 q 411 148 427 148 q 356 167 378 148 q 334 233 334 186 m 708 446 l 113 446 l 113 546 l 708 546 l 708 446 "},"h":{"x_min":29,"x_max":889.28125,"ha":911,"o":"m 511 128 q 516 199 511 158 q 533 293 521 241 l 556 403 q 564 437 560 417 q 572 478 569 456 q 579 520 576 499 q 582 559 582 542 q 579 586 582 572 q 571 612 577 600 q 553 631 565 623 q 523 638 542 638 q 476 622 500 638 q 431 580 453 606 q 390 521 409 554 q 355 452 371 487 q 327 383 339 416 q 309 322 316 349 l 237 0 l 29 0 l 212 863 q 216 882 214 872 q 219 900 218 891 q 221 914 220 908 q 222 923 222 920 q 218 953 222 942 q 205 971 214 965 q 182 979 196 977 q 148 981 168 981 l 119 981 l 132 1055 l 467 1055 l 402 749 q 390 702 397 728 q 378 652 384 675 q 363 595 370 624 l 372 595 q 426 667 398 637 q 487 718 454 698 q 558 748 520 738 q 642 758 596 758 q 717 745 687 758 q 766 710 748 732 q 793 659 785 688 q 801 598 801 630 q 799 560 801 580 q 792 520 796 540 q 784 479 788 500 q 776 441 780 459 l 744 292 q 730 221 736 254 q 725 159 725 188 q 738 112 725 129 q 773 96 750 96 q 813 104 795 96 q 856 128 831 112 l 889 81 q 851 46 872 64 q 804 15 830 29 q 746 -5 778 2 q 676 -14 714 -14 q 554 23 596 -14 q 511 128 511 61 "},".":{"x_min":61,"x_max":294,"ha":423,"o":"m 294 113 q 283 54 294 79 q 255 16 273 30 q 216 -4 238 1 q 173 -11 195 -11 q 92 13 123 -11 q 61 88 61 37 q 69 139 61 116 q 93 179 77 162 q 131 204 109 195 q 181 213 153 213 q 225 206 205 213 q 261 188 246 200 q 285 157 277 176 q 294 113 294 138 "},";":{"x_min":-16,"x_max":416,"ha":497,"o":"m 290 85 q 270 -14 290 32 q 212 -100 251 -62 q 117 -167 174 -139 q -16 -210 59 -195 l 0 -136 q 142 -21 142 -102 q 137 3 142 -7 q 122 22 131 13 q 103 39 113 30 q 85 57 94 47 q 70 82 76 68 q 65 116 65 95 q 73 156 65 138 q 96 186 81 174 q 129 205 110 199 q 169 212 148 212 q 216 203 194 212 q 254 179 238 195 q 280 139 271 163 q 290 85 290 116 m 416 651 q 405 592 416 616 q 377 553 395 568 q 338 532 360 538 q 295 526 317 526 q 214 550 245 526 q 183 626 183 574 q 191 677 183 654 q 215 716 199 700 q 254 741 231 732 q 304 751 276 751 q 348 744 327 751 q 384 726 369 738 q 407 695 399 714 q 416 651 416 676 "},"f":{"x_min":-193.1875,"x_max":782,"ha":561,"o":"m 589 650 l 414 650 l 282 29 q 241 -100 266 -44 q 186 -196 217 -156 q 119 -263 155 -236 q 45 -305 83 -289 q -31 -327 7 -321 q -108 -334 -71 -334 q -130 -332 -118 -334 q -154 -330 -143 -331 q -176 -326 -166 -328 q -193 -322 -186 -324 l -176 -241 q -146 -248 -164 -245 q -112 -251 -128 -251 q -52 -240 -78 -251 q -5 -201 -26 -228 q 31 -127 15 -173 q 62 -12 48 -81 l 203 650 l 77 650 l 90 715 l 223 745 l 234 796 q 278 916 251 865 q 345 1001 305 967 q 439 1053 385 1036 q 563 1070 493 1070 q 658 1060 617 1070 q 726 1034 699 1051 q 768 996 754 1018 q 782 949 782 974 q 741 877 782 903 q 622 851 700 851 q 619 902 622 878 q 609 946 616 927 q 589 976 601 965 q 558 987 577 987 q 490 949 514 987 q 453 833 467 911 l 434 745 l 609 745 l 589 650 "},"A":{"x_min":-68.03125,"x_max":987.875,"ha":1046,"o":"m 296 326 l 229 201 q 209 157 215 176 q 202 123 202 138 q 221 85 202 97 q 280 73 240 73 l 308 73 l 292 0 l -68 0 l -53 73 l -23 73 q 9 78 -4 73 q 37 94 24 82 q 65 128 51 107 q 99 181 80 149 l 571 992 l 761 992 l 878 173 q 887 133 881 151 q 902 102 892 115 q 926 81 911 88 q 962 73 941 73 l 987 73 l 972 0 l 514 0 l 529 73 l 561 73 q 632 87 606 73 q 658 132 658 101 q 658 155 658 143 q 656 176 657 166 l 635 326 l 296 326 m 600 644 q 594 701 597 675 q 588 753 591 728 q 584 802 586 778 q 582 851 582 826 q 561 805 572 826 q 540 761 551 783 q 514 714 528 739 q 482 657 500 690 l 344 411 l 626 411 l 600 644 "},"6":{"x_min":71,"x_max":818,"ha":777,"o":"m 562 923 q 405 828 472 923 q 296 538 338 733 q 332 563 311 551 q 377 585 352 575 q 433 601 403 595 q 498 608 463 608 q 603 588 558 608 q 676 535 647 568 q 719 456 705 501 q 733 362 733 411 q 710 221 733 289 q 641 101 687 153 q 524 17 594 49 q 359 -14 454 -14 q 247 6 300 -14 q 155 69 195 27 q 93 174 116 111 q 71 321 71 237 q 86 492 71 408 q 133 653 102 577 q 209 793 164 729 q 311 905 254 858 q 438 979 368 953 q 587 1006 507 1006 q 687 994 644 1006 q 759 962 730 982 q 803 917 788 942 q 818 862 818 891 q 772 776 818 807 q 644 744 727 744 q 642 811 644 778 q 631 868 639 843 q 606 908 622 893 q 562 923 590 923 m 434 523 q 390 516 412 523 q 348 500 368 510 q 310 477 327 490 q 278 451 292 464 q 261 277 261 350 q 293 124 261 172 q 379 76 325 76 q 443 97 414 76 q 493 155 472 118 q 526 242 514 192 q 537 350 537 292 q 511 479 537 435 q 434 523 485 523 "},"O":{"x_min":87,"x_max":1063,"ha":1100,"o":"m 87 369 q 103 509 87 435 q 153 653 120 582 q 236 788 186 724 q 351 900 285 852 q 498 978 416 949 q 678 1007 581 1007 q 825 984 755 1007 q 947 915 894 962 q 1031 796 1000 868 q 1063 625 1063 724 q 1047 488 1063 561 q 998 344 1031 416 q 918 208 966 273 q 804 93 869 143 q 656 13 738 43 q 474 -16 573 -16 q 321 8 392 -16 q 198 82 250 33 q 116 203 146 131 q 87 369 87 275 m 313 336 q 328 218 313 267 q 368 137 342 169 q 428 91 393 106 q 502 76 462 76 q 607 104 560 76 q 691 178 654 131 q 756 284 729 224 q 802 409 784 344 q 829 537 820 473 q 837 656 837 602 q 823 773 837 724 q 784 854 809 822 q 725 901 759 886 q 649 916 690 916 q 544 888 591 916 q 460 814 497 861 q 395 708 422 768 q 349 583 367 648 q 322 454 331 518 q 313 336 313 390 "},"n":{"x_min":51.5,"x_max":910.78125,"ha":933,"o":"m 533 128 q 555 293 533 188 l 577 403 q 584 437 580 417 q 592 478 588 456 q 599 520 596 499 q 602 559 602 542 q 600 586 602 572 q 591 612 598 600 q 574 631 585 623 q 544 638 562 638 q 497 622 520 638 q 452 580 474 606 q 411 521 430 554 q 375 452 391 487 q 348 383 359 417 q 330 322 336 349 l 259 0 l 51 0 l 168 552 q 171 571 170 561 q 174 589 173 580 q 176 603 176 597 q 177 612 177 610 q 173 643 177 631 q 160 660 169 654 q 137 669 151 667 q 104 671 124 671 l 79 671 l 91 745 l 400 745 l 384 595 l 393 595 q 447 667 419 637 q 508 718 476 698 q 579 748 541 738 q 663 758 617 758 q 738 745 707 758 q 786 710 768 732 q 813 659 805 688 q 821 598 821 630 q 819 560 821 580 q 813 520 817 540 q 805 479 809 500 q 797 441 800 459 l 766 292 q 752 221 758 254 q 747 159 747 188 q 759 112 747 129 q 796 96 772 96 q 835 104 817 96 q 877 128 853 112 l 910 81 q 873 46 894 64 q 826 15 852 29 q 768 -5 800 2 q 698 -14 736 -14 q 575 23 618 -14 q 533 128 533 61 "},"﻿":{"x_min":0,"x_max":0,"ha":0},"3":{"x_min":-1,"x_max":778,"ha":777,"o":"m 310 84 q 377 97 344 84 q 435 138 409 111 q 475 207 460 166 q 490 302 490 247 q 439 425 490 382 q 294 468 387 468 l 235 468 l 249 555 l 293 555 q 401 572 351 555 q 486 622 450 590 q 543 701 523 655 q 563 801 563 746 q 557 849 563 827 q 540 887 552 871 q 511 912 529 903 q 468 921 493 921 q 403 904 430 921 q 358 858 376 887 q 328 792 340 830 q 310 714 317 755 q 248 718 277 714 q 198 733 219 723 q 165 760 177 743 q 152 803 152 777 q 179 882 152 845 q 252 947 206 919 q 360 990 298 974 q 493 1006 422 1006 q 609 992 557 1006 q 699 954 662 979 q 757 891 737 928 q 778 807 778 854 q 760 711 778 758 q 708 625 743 664 q 621 557 673 586 q 498 516 568 528 q 585 495 546 510 q 651 453 624 479 q 692 392 677 428 q 707 312 707 356 q 689 202 707 250 q 641 118 671 154 q 570 56 610 82 q 483 15 529 31 q 387 -6 437 0 q 291 -14 338 -14 q 154 1 210 -14 q 64 40 98 16 q 14 94 29 64 q -1 153 -1 124 q 39 239 -1 208 q 151 271 79 271 q 161 196 151 230 q 190 137 170 162 q 239 98 209 112 q 310 84 269 84 "},"9":{"x_min":39,"x_max":773,"ha":777,"o":"m 265 73 q 357 99 316 73 q 432 177 398 126 q 495 303 467 228 q 550 476 524 378 q 511 441 532 457 q 463 410 489 424 q 407 389 437 397 q 340 382 376 382 q 241 399 285 382 q 169 447 198 416 q 124 520 139 477 q 109 612 109 562 q 140 772 109 699 q 225 896 172 844 q 350 977 279 948 q 500 1006 420 1006 q 613 987 562 1006 q 699 934 663 969 q 754 848 735 899 q 773 731 773 797 q 771 691 773 715 q 767 638 770 666 q 759 578 764 609 q 746 515 754 546 q 708 383 731 448 q 654 259 686 317 q 582 150 623 200 q 492 63 542 100 q 381 6 441 27 q 250 -14 321 -14 q 155 -2 195 -14 q 89 28 114 9 q 51 73 63 47 q 39 128 39 99 q 67 199 39 175 q 147 224 96 224 q 154 171 148 198 q 176 122 161 144 q 212 87 190 100 q 265 73 234 73 m 411 482 q 462 492 438 483 q 505 517 485 502 q 541 551 525 532 q 570 590 557 570 q 578 627 574 607 q 584 668 581 647 q 588 707 587 688 q 590 740 590 726 q 583 819 590 786 q 561 872 575 852 q 529 903 547 893 q 488 913 510 913 q 415 887 448 913 q 359 819 383 861 q 322 725 335 778 q 309 619 309 672 q 336 516 309 551 q 411 482 364 482 "},"⅛":{"x_min":44.828125,"x_max":1136,"ha":1167,"o":"m 289 0 l 171 0 l 875 992 l 992 992 l 289 0 m 823 -10 q 730 1 771 -10 q 661 32 689 12 q 619 80 634 53 q 605 141 605 108 q 649 238 605 201 q 775 301 693 275 q 744 325 760 311 q 717 356 729 339 q 698 395 705 374 q 691 441 691 416 q 702 501 691 472 q 742 555 714 531 q 818 592 770 578 q 938 607 866 607 q 1018 598 982 607 q 1080 574 1054 590 q 1121 536 1106 558 q 1136 484 1136 513 q 1123 425 1136 450 q 1088 382 1110 400 q 1039 351 1066 364 q 981 326 1011 337 q 1064 263 1034 300 q 1094 177 1094 226 q 1077 99 1094 134 q 1026 40 1060 65 q 942 3 992 16 q 823 -10 891 -10 m 835 51 q 916 76 887 51 q 946 144 946 100 q 920 209 946 179 q 841 261 893 240 q 806 240 823 252 q 775 213 789 228 q 753 178 762 197 q 745 134 745 158 q 751 103 745 118 q 769 76 757 88 q 797 58 780 65 q 835 51 813 51 m 908 362 q 940 383 926 372 q 964 406 954 394 q 978 434 973 419 q 984 470 984 450 q 980 497 984 484 q 969 521 976 511 q 950 539 961 532 q 923 545 938 545 q 890 539 905 545 q 865 520 876 532 q 848 491 854 508 q 842 457 842 475 q 861 399 842 423 q 908 362 880 375 m 442 999 l 343 531 q 338 509 339 519 q 337 495 337 499 q 342 476 337 483 q 354 465 346 469 q 371 461 361 462 q 392 460 381 460 l 449 460 l 436 399 l 44 399 l 57 460 l 128 460 q 153 461 141 460 q 174 468 164 463 q 190 484 183 474 q 201 512 198 495 l 284 906 q 214 844 245 868 q 158 820 183 820 q 128 840 139 820 q 118 889 118 860 q 151 896 135 891 q 185 908 167 901 q 223 927 202 916 q 267 952 243 937 l 339 999 l 442 999 "},"l":{"x_min":69,"x_max":467.796875,"ha":492,"o":"m 331 96 q 371 104 353 96 q 413 128 389 112 l 446 81 q 409 46 430 64 q 362 15 388 29 q 304 -5 336 2 q 234 -14 272 -14 q 111 23 154 -14 q 69 128 69 61 q 91 293 69 188 l 212 863 q 216 882 214 872 q 219 900 218 891 q 221 914 220 908 q 222 923 222 920 q 218 953 222 942 q 205 971 214 965 q 182 979 196 977 q 148 981 168 981 l 119 981 l 132 1055 l 467 1055 l 302 292 q 288 221 294 254 q 283 159 283 188 q 295 112 283 129 q 331 96 308 96 "},"¤":{"x_min":113.984375,"x_max":704.015625,"ha":777,"o":"m 154 494 q 165 571 154 534 q 198 638 177 608 l 115 722 l 184 791 l 267 707 q 333 738 298 727 q 408 750 368 750 q 482 738 446 750 q 548 706 518 727 l 634 792 l 704 722 l 619 636 q 652 569 640 605 q 664 494 664 534 q 653 419 664 454 q 622 353 642 384 l 704 271 l 634 202 l 552 284 q 484 251 521 263 q 408 240 448 240 q 332 251 368 240 q 265 283 295 262 l 184 202 l 113 273 l 194 353 q 154 494 154 416 m 248 494 q 261 431 248 461 q 295 380 274 402 q 345 346 316 358 q 408 333 375 333 q 472 346 442 333 q 522 380 501 358 q 556 431 543 402 q 568 494 568 461 q 556 558 568 528 q 522 609 543 587 q 472 644 501 632 q 408 657 442 657 q 345 644 375 657 q 295 609 316 632 q 261 558 274 587 q 248 494 248 528 "},"4":{"x_min":0,"x_max":753.171875,"ha":777,"o":"m 456 593 q 469 653 462 620 q 485 721 476 686 q 503 792 493 757 q 522 860 512 827 q 488 808 507 836 q 447 750 468 779 q 407 696 427 721 q 373 652 388 670 l 127 350 l 405 350 l 456 593 m 178 0 l 193 73 l 233 73 q 274 76 253 73 q 313 88 295 78 q 346 118 332 98 q 368 173 360 138 l 385 258 l 0 258 l 19 344 l 551 992 l 745 992 l 608 350 l 753 350 l 733 258 l 589 258 l 570 172 q 567 149 568 164 q 565 128 565 135 q 571 100 565 111 q 590 83 578 89 q 618 75 601 77 q 656 73 635 73 l 682 73 l 666 0 l 178 0 "},"p":{"x_min":-41.5,"x_max":809,"ha":865,"o":"m 599 496 q 595 552 599 525 q 583 599 591 578 q 560 633 575 621 q 524 646 545 646 q 478 633 501 646 q 434 597 455 620 q 394 546 413 575 q 360 485 375 517 q 334 422 345 454 q 317 362 323 390 l 264 113 q 280 100 270 107 q 304 87 291 93 q 332 78 316 82 q 363 74 347 74 q 433 95 400 74 q 491 149 465 115 q 537 227 517 183 q 571 317 558 270 q 592 411 585 364 q 599 496 599 457 m -41 -334 l 147 552 q 150 571 149 561 q 153 589 152 580 q 155 603 155 597 q 156 612 156 609 q 152 643 156 631 q 139 660 148 654 q 116 669 130 667 q 83 671 102 671 l 58 671 l 70 745 l 369 745 l 333 559 l 342 559 q 391 639 366 602 q 447 702 416 675 q 516 743 477 728 q 606 758 554 758 q 689 741 651 758 q 753 693 727 725 q 794 614 779 661 q 809 507 809 568 q 797 398 809 456 q 761 282 785 340 q 702 171 737 224 q 618 76 666 117 q 510 10 570 35 q 379 -14 450 -14 q 300 -5 337 -14 q 237 17 264 2 q 234 -4 236 7 q 231 -25 233 -13 q 226 -49 229 -37 l 206 -142 q 203 -160 204 -150 q 199 -178 201 -169 q 197 -192 198 -186 q 197 -201 197 -199 q 201 -232 197 -220 q 214 -249 205 -243 q 236 -258 223 -256 q 270 -260 250 -260 l 323 -260 l 311 -334 l -41 -334 "},"à":{"x_min":56,"x_max":876.578125,"ha":924,"o":"m 657 -14 q 558 14 595 -14 q 521 96 521 42 q 523 138 521 118 q 530 186 525 159 l 521 186 q 469 100 495 138 q 413 37 444 63 q 343 0 382 12 q 254 -14 305 -14 q 167 5 205 -14 q 105 58 130 24 q 68 138 81 92 q 56 239 56 185 q 68 353 56 293 q 106 470 81 412 q 168 580 131 528 q 253 671 205 632 q 361 734 302 711 q 492 758 421 758 q 547 753 519 758 q 601 742 575 749 q 649 727 627 735 q 688 709 672 718 l 761 743 l 835 743 l 743 309 q 736 279 740 298 q 729 238 732 260 q 722 197 725 217 q 719 163 719 177 q 733 112 719 129 q 768 95 747 95 q 806 103 788 95 q 846 124 824 112 l 876 68 q 836 40 858 55 q 786 13 814 26 q 727 -6 759 1 q 657 -14 694 -14 m 266 238 q 272 171 266 198 q 288 127 278 144 q 312 103 298 110 q 342 96 325 96 q 405 123 372 96 q 466 192 437 149 q 517 289 494 235 q 551 399 540 344 l 600 630 q 562 659 586 650 q 511 669 538 669 q 437 648 471 669 q 376 591 403 627 q 328 511 349 556 q 294 418 308 466 q 273 323 280 370 q 266 238 266 276 m 514 842 q 451 886 485 859 q 386 943 417 913 q 329 1001 355 972 q 288 1049 303 1029 l 293 1064 l 497 1064 q 518 1009 505 1038 q 546 953 531 980 q 574 900 560 925 q 601 860 589 876 l 597 842 l 514 842 "},"Ü":{"x_min":137.671875,"x_max":1153.0625,"ha":1038,"o":"m 523 84 q 630 102 586 84 q 702 153 673 121 q 749 230 731 185 q 778 327 767 274 l 885 829 q 888 853 887 841 q 890 871 890 865 q 883 895 890 886 q 862 910 875 905 q 830 917 849 915 q 790 918 811 918 l 772 918 l 787 992 l 1153 992 l 1137 918 l 1119 918 q 1076 915 1097 918 q 1037 903 1055 912 q 1007 877 1020 894 q 988 833 995 861 l 877 305 q 829 167 861 227 q 747 67 796 108 q 629 6 697 27 q 473 -14 561 -14 q 329 1 392 -14 q 224 48 267 17 q 159 124 181 79 q 137 226 137 169 q 139 253 137 237 q 142 287 140 269 q 147 320 144 304 q 152 349 149 337 l 254 823 q 262 871 262 861 q 255 895 262 886 q 234 910 247 905 q 202 917 221 915 q 162 918 184 918 l 144 918 l 160 992 l 640 992 l 625 918 l 607 918 q 562 915 583 918 q 523 904 541 912 q 493 879 505 895 q 474 836 480 863 l 369 347 q 363 319 366 334 q 358 289 360 305 q 354 256 356 273 q 352 226 352 240 q 396 120 352 156 q 523 84 439 84 m 648 1190 q 640 1144 648 1163 q 621 1114 633 1126 q 595 1098 610 1103 q 565 1093 580 1093 q 510 1111 531 1093 q 489 1169 489 1130 q 511 1240 489 1213 q 572 1267 533 1267 q 627 1247 605 1267 q 648 1190 648 1228 m 938 1190 q 930 1144 938 1163 q 911 1114 923 1126 q 885 1098 900 1103 q 855 1093 870 1093 q 800 1111 821 1093 q 779 1169 779 1130 q 801 1240 779 1213 q 862 1267 823 1267 q 917 1247 895 1267 q 938 1190 938 1228 "},"ó":{"x_min":56,"x_max":840,"ha":859,"o":"m 56 277 q 68 385 56 329 q 105 494 80 441 q 167 596 129 548 q 255 679 204 644 q 369 736 305 715 q 511 758 433 758 q 624 741 571 758 q 716 689 677 724 q 778 598 755 654 q 802 466 802 543 q 790 361 802 416 q 754 252 778 306 q 693 151 730 199 q 606 66 656 102 q 492 7 556 29 q 350 -14 429 -14 q 230 3 285 -14 q 138 58 176 21 q 77 149 99 94 q 56 277 56 204 m 375 85 q 442 107 412 85 q 497 163 473 128 q 538 243 521 198 q 567 335 556 287 q 584 428 578 382 q 590 511 590 474 q 562 629 590 593 q 485 665 534 665 q 420 644 450 665 q 366 590 390 624 q 323 512 342 556 q 293 422 305 469 q 274 328 280 375 q 268 243 268 282 q 296 122 268 158 q 375 85 325 85 m 457 860 q 498 905 476 879 q 542 958 520 931 q 585 1013 564 986 q 622 1064 606 1040 l 840 1064 l 835 1049 q 806 1021 825 1037 q 763 985 787 1004 q 711 946 739 966 q 655 907 684 926 q 599 871 627 888 q 547 842 571 854 l 453 842 l 457 860 "}}}
